<?xml version="1.0" standalone="no"?>
<!DOCTYPE svg PUBLIC "-//W3C//DTD SVG 1.1//EN" "http://www.w3.org/Graphics/SVG/1.1/DTD/svg11.dtd" >
<svg xmlns="http://www.w3.org/2000/svg">
<metadata></metadata>
<defs>
<font id="jacques_francois_shadowRg" horiz-adv-x="1171" >
<font-face units-per-em="2048" ascent="1638" descent="-410" />
<missing-glyph horiz-adv-x="532" />
<glyph horiz-adv-x="2048" />
<glyph horiz-adv-x="2048" />
<glyph unicode="&#xd;" horiz-adv-x="0" />
<glyph unicode=" "  horiz-adv-x="532" />
<glyph unicode="&#x09;" horiz-adv-x="532" />
<glyph unicode="&#xa0;" horiz-adv-x="532" />
<glyph unicode="!" horiz-adv-x="823" d="M211 1389q0 49 18.5 82.5t49 48t54 19.5t46.5 5q51 0 88 -5t75 -19.5t57 -47t19 -83.5q0 -72 -26 -308q-41 -374 -53 -594l-11 -180h-227l-8 180q-12 283 -57 637q-25 187 -25 265zM213 98q0 34 13 63.5t35.5 52t52 35.5t63.5 13q225 0 225 -164t-225 -164q-33 0 -63 13 t-52.5 35.5t-35.5 52.5t-13 63zM252 1389q0 -11 5 -60t13 -123.5t18 -167t19 -189t16.5 -190t10.5 -170.5l6 -141h49l8 141q4 73 11.5 164t16.5 186t18 187.5t16.5 168t12.5 127.5t5 67q0 37 -13 59.5t-31 34.5t-37 16t-32 4q-10 0 -29 -3t-37.5 -14.5t-32 -34t-13.5 -62.5z M254 98q0 -26 8.5 -48t23 -39t34 -26.5t42.5 -9.5t43 10t34.5 27t23 39t8.5 47q0 26 -8.5 48.5t-23.5 39t-35 26t-42 9.5q-46 0 -77 -37q-31 -34 -31 -86z" />
<glyph unicode="&#x22;" horiz-adv-x="938" d="M123 1421q0 60 39 91.5t100 31.5q105 0 154 -24.5t55 -79.5q12 104 139 104q211 0 211 -123l-63 -432h-219l-68 424l-61 -424h-220zM164 1427l61 -397h76l59 397q0 37 -27.5 56.5t-70.5 19.5q-98 0 -98 -76zM512 1427l61 -397h76l60 397q0 37 -28 56.5t-71 19.5 q-98 0 -98 -76z" />
<glyph unicode="#" d="M-106 371l24 180h272l66 389h-274l22 184h277l65 387h281l-64 -387h180l58 387h289l-64 -387h258l-27 -184h-264l-59 -389h262l-25 -180h-264l-67 -412h-279l68 412h-176l-72 -412h-281l62 412h-268zM-59 412h270l-61 -412h124l70 412h332l-66 -412h123l66 412h264l14 98 h-264l74 471h262l16 102h-260l64 387h-131l-58 -387h-338l64 387h-125l-64 -387h-276l-12 -102h276l-78 -471h-272zM356 510l72 471h330l-70 -471h-332zM475 551h176l60 389h-174z" />
<glyph unicode="$" d="M45 500q27 14 96.5 15t102.5 -11q45 -324 233 -406v545q-184 62 -285.5 165t-101.5 284q0 208 111.5 316t275.5 130v133h236v-131q98 -12 270 -104q-27 -164 10 -389q-59 -33 -121 -7q-47 228 -159 306v-461q88 -27 154.5 -58.5t131 -85t99.5 -134.5t35 -187 q0 -203 -124 -329t-296 -161v-145h-236v135q-190 17 -414 129q7 154 7 172q0 103 -25 279zM90 477q21 -141 21 -256q0 -45 -5 -147q211 -111 412 -115v-133h82v139q160 23 279.5 140.5t119.5 314.5q0 92 -33.5 161.5t-97 113.5t-124 70t-144.5 48v617q242 -27 307 -359 q23 -6 41 0q-4 197 -94 313.5t-254 116.5v129h-82v-129q-72 -6 -136.5 -29.5t-122.5 -68.5t-93 -125t-35 -186q0 -172 98.5 -267.5t288.5 -150.5v-641q-139 4 -244.5 104.5t-140.5 339.5q-22 10 -43 0zM279 1190q0 98 62 161.5t177 75.5v-591q-139 47 -189 138t-50 216z M412 1190q0 -80 11 -127t54 -84v360q-65 -53 -65 -149zM600 39v610q129 -45 176 -118.5t47 -200.5q0 -115 -58 -193t-165 -98zM713 137q69 68 69 193q0 135 -69 207v-400z" />
<glyph unicode="%" horiz-adv-x="2073" d="M113 1124q0 174 120.5 296t292.5 122q127 0 233.5 -41t181.5 -139t75 -238q0 -176 -134 -294.5t-356 -118.5q-172 0 -292.5 120.5t-120.5 292.5zM154 1124q0 -155 108.5 -263.5t263.5 -108.5q150 0 256.5 108.5t106.5 264t-106.5 266t-256.5 110.5q-155 0 -263.5 -109.5 t-108.5 -267.5zM242 1122q0 115 83 196t199 81q115 0 196 -81t81 -196q0 -110 -82 -191t-195 -81q-114 0 -198 81t-84 191zM369 1122q0 -84 55 -149.5t137 -79.5q84 14 141.5 79.5t57.5 149.5q0 86 -56.5 151.5t-142.5 80.5q-82 -13 -137 -78.5t-55 -153.5zM518 -82 l791 1692h71l164 -60l-792 -1702h-72zM571 -61l88 -37l758 1624l-88 33zM1063 344q0 174 121 296t293 122q221 0 355 -120t134 -298q0 -176 -134 -295t-355 -119q-172 0 -293 121t-121 293zM1104 344q0 -156 108.5 -264.5t264.5 -108.5q149 0 255.5 108.5t106.5 264.5 t-106.5 266.5t-255.5 110.5q-156 0 -264.5 -109.5t-108.5 -267.5zM1192 342q0 115 83 195.5t200 80.5q114 0 195 -80.5t81 -195.5q0 -111 -82 -191.5t-194 -80.5q-115 0 -199 80.5t-84 191.5zM1319 342q0 -84 55.5 -149.5t136.5 -79.5q84 14 141.5 79.5t57.5 149.5 q0 88 -57.5 153.5t-141.5 77.5q-81 -12 -136.5 -77.5t-55.5 -153.5z" />
<glyph unicode="&#x26;" horiz-adv-x="1651" d="M102 338q0 47 13 107t47 122t92.5 122.5t148.5 109.5q-38 37 -66 73t-46.5 74t-27.5 81t-9 95q0 72 29.5 134.5t80.5 108t119 71.5t146 26q202 0 302.5 -75.5t100.5 -237.5q0 -59 -13 -106t-39.5 -86.5t-68 -74.5t-98.5 -71q125 -131 248 -303q39 75 64.5 147.5 t25.5 133.5q0 7 -1.5 13t-10.5 10t-29 7t-57 6q-11 31 -11 63t11 68q135 -6 272 -6t277 6q16 -26 16 -60q0 -15 -3 -32t-11 -35q-118 -14 -156 -79l-252 -433q96 -146 166 -174q54 28 86 125q71 0 121 -39q-12 -59 -32 -113.5t-55.5 -96t-90 -66.5t-136.5 -25 q-84 3 -117 18.5t-70 38t-89 85.5q-59 -44 -110 -71.5t-103 -43.5t-108.5 -21.5t-127.5 -5.5q-78 0 -140.5 17.5t-110 48t-81 71t-55 86t-31.5 94t-10 93.5zM143 338q0 -60 20.5 -125t66 -119.5t119.5 -89.5t181 -35q213 0 428 201q30 -46 64 -87t86.5 -72.5t88 -36.5 t58.5 -5q63 0 108 18t76 50t51 77.5t34 100.5q-15 12 -47 12q-53 -131 -148 -131q-22 0 -45 7t-51 19t-71 58.5t-118 134.5l283 459q45 74 236 92q6 10 6 22q0 11 -6 25q-69 -3 -133 -4t-124 -1q-61 0 -117 1t-108 4q-5 -10 -5 -23q0 -14 5 -24q21 -3 41 -7t36 -12t25.5 -22 t9.5 -38q0 -86 -50.5 -191t-138.5 -219q-189 273 -357 442q60 33 106 68.5t76.5 75t46 85.5t15.5 101q0 137 -70.5 204.5t-191.5 67.5q-69 0 -130 -23.5t-106 -64t-71.5 -95t-26.5 -116.5q0 -53 9.5 -94t31 -78.5t55.5 -75.5t82 -86q-99 -47 -162.5 -106t-101 -119.5 t-52 -119t-14.5 -105.5zM309 387q0 125 64.5 217t156.5 127q234 -244 385 -491q-112 -121 -292 -121q-138 0 -226 69.5t-88 198.5zM440 1124q0 88 52.5 147.5t146.5 59.5q70 0 118 -46t48 -140q0 -98 -64.5 -169t-146.5 -108q-154 125 -154 256zM451 387q0 -102 58 -159.5 t153 -67.5q114 10 200 86q-135 217 -311 405q-100 -90 -100 -264zM582 1124q0 -88 84 -176q98 82 98 197q0 117 -90 139q-45 -14 -68.5 -57t-23.5 -103z" />
<glyph unicode="'" horiz-adv-x="590" d="M123 1421q0 60 39 91.5t100 31.5q211 0 211 -123l-63 -432h-220zM164 1427l61 -397h76l59 397q0 37 -27.5 56.5t-70.5 19.5q-98 0 -98 -76z" />
<glyph unicode="(" horiz-adv-x="975" d="M164 604q0 44 6 115t27 159t61.5 189.5t108.5 207.5t168 212t241 203h72l78 -76q-59 -59 -109.5 -131.5t-92.5 -154t-74.5 -171t-55 -182t-34 -186.5t-11.5 -185q0 -566 385 -1003l-86 -82h-72q-137 95 -236 199t-167 208.5t-109 205.5t-63.5 190t-29.5 161.5t-7 120.5z M205 604q0 -54 8.5 -140t40 -192.5t94 -228t143.5 -216.5t144.5 -150.5t136.5 -104.5l33 31q-91 87 -163.5 202.5t-126.5 262.5t-80.5 281t-26.5 255q0 571 397 1002l-33 30q-105 -70 -185.5 -150t-141 -163t-102 -165.5t-68.5 -157.5t-48.5 -182.5t-21.5 -213.5z" />
<glyph unicode=")" horiz-adv-x="975" d="M47 -397q94 98 166 213.5t120.5 243t73.5 265t25 279.5q0 141 -25 278.5t-73.5 266t-120.5 244t-166 213.5l86 84h72q143 -99 244 -207.5t169 -217t107.5 -211.5t60 -190.5t26 -155t5.5 -104.5q0 -42 -5.5 -111.5t-26 -157t-60.5 -189.5t-108 -208.5t-169 -213.5 t-243 -205h-72zM104 -397l33 -31q101 72 178 153t134 164.5t96 165.5t64 157t38 139t18.5 106.5t8 78.5t2.5 68q0 54 -9 140.5t-39.5 193.5t-90 229t-160.5 245q-104 127 -240 224l-33 -30q369 -402 369 -1002q0 -601 -369 -1001z" />
<glyph unicode="*" horiz-adv-x="1102" d="M102 899q0 121 148 158l106 26l-106 27h2q-150 33 -150 158q0 35 32 70.5t77 35.5q100 0 195 -49q-13 43 -13 80q0 63 33 101t92 38q47 0 76 -4t59.5 -17.5t45 -43t14.5 -78.5q0 -39 -13 -76q52 47 119 47h72q55 0 85 -32.5t30 -71.5q0 -51 -44 -94.5t-104 -63.5 l-104 -29l104 -24q148 -41 148 -152q0 -49 -29 -79.5t-86 -30.5q-137 0 -189 43q11 -33 11 -68q0 -149 -195 -149q-125 0 -125 143q0 41 10 74q-55 -47 -98 -47h-72q-55 0 -93 26.5t-38 81.5zM143 899q0 -68 90 -68q18 0 43.5 15t55.5 47l125 129q18 -18 39 -21l-52 -172 q-10 -34 -10 -65q0 -102 84 -102q39 0 60.5 30t21.5 78q0 32 -8 59l-53 175q22 6 36 20l130 -131q55 -57 114 -57q74 0 74 69q0 83 -117 113l-178 45q2 8 2 20q0 8 -4 23l180 43q54 13 85.5 44t31.5 75q0 24 -18.5 43.5t-55.5 19.5q-58 -2 -114 -59l-127 -131q-11 12 -39 24 l53 174q4 16 6 31t2 31q0 48 -21.5 75t-60.5 27t-61.5 -26.5t-22.5 -71.5q0 -14 2 -30.5t8 -35.5l52 -172q-25 -6 -41 -22l-136 141l-23 23t-20 14.5t-26 7.5t-39 2q-14 0 -26 -6t-21.5 -15.5t-15 -21t-5.5 -22.5q0 -92 117 -119l172 -43q-2 -8 -2 -23q0 -12 2 -22l-172 -43 q-117 -32 -117 -119z" />
<glyph unicode="+" horiz-adv-x="1571" d="M143 612v197h510v512h271v-512h510v-197h-510v-510h-271v510h-510zM184 653h510v-510h117v510h510v115h-510v512h-117v-512h-510v-115z" />
<glyph unicode="," horiz-adv-x="684" d="M123 -217q115 98 143 160q-123 18 -123 155q0 64 45 114t113 50q43 0 72.5 -2t65.5 -12t57.5 -27.5t36 -52.5t14.5 -82q0 -102 -72 -219t-170 -180h-72zM184 98q0 -118 136 -119q-27 -102 -136 -196l52 -45q81 53 139.5 153.5t58.5 194.5q0 72 -38 103.5t-95 31.5 q-49 0 -83 -38t-34 -85z" />
<glyph unicode="-" horiz-adv-x="1042" d="M143 371v207h762v-207h-762zM184 412h609v125h-609v-125z" />
<glyph unicode="." horiz-adv-x="684" d="M143 96q0 34 13 64t35.5 52t52.5 35t63 13q225 0 225 -164t-225 -164q-33 0 -62.5 13t-52 35t-36 52t-13.5 64zM184 96q0 -25 8.5 -47.5t23.5 -39t34.5 -26.5t42.5 -10q22 0 41.5 10t34.5 26.5t23.5 39t8.5 47.5t-8.5 47t-23.5 39t-34.5 27t-41.5 10q-45 0 -78 -37 q-31 -34 -31 -86z" />
<glyph unicode="/" horiz-adv-x="1374" d="M123 -467l835 2128h299l-839 -2128h-295zM184 -426h133l807 2046h-137z" />
<glyph unicode="0" d="M8 475q0 225 159 386t384 161q136 0 249.5 -42.5t195.5 -116t127.5 -173.5t45.5 -215t-45.5 -214.5t-127 -173t-195.5 -115.5t-250 -42q-225 0 -384 160t-159 385zM49 475q0 -104 39.5 -195.5t107.5 -160t159.5 -108.5t195.5 -40t196 40t161 108.5t109 160t40 195.5 q0 103 -40.5 195t-109.5 161t-161 109.5t-195 40.5q-209 0 -356 -150q-146 -148 -146 -356zM184 473q0 156 106.5 264.5t258.5 108.5q156 0 264.5 -108.5t108.5 -264.5q0 -151 -108.5 -259t-264.5 -108q-150 0 -257.5 108t-107.5 259zM297 473q0 -125 83 -217t204 -106 q127 12 212 105t85 218q0 129 -85 222t-212 108q-123 -15 -205 -108t-82 -222z" />
<glyph unicode="1" d="M248 -43q-17 61 0 121q178 24 180 61q14 326 0 672q-2 37 -180 61q-17 60 0 121h682q16 -61 0 -121q-140 -22 -142 -61q-16 -317 0 -672q2 -39 142 -61q16 -60 0 -121h-682zM285 -6h608q10 24 0 49q-115 6 -180.5 25.5t-65.5 68.5v676q2 49 66.5 68.5t179.5 25.5 q10 25 0 49h-608q-11 -24 0 -49q40 -6 56.5 -9t54.5 -13.5t55.5 -27.5t17.5 -44q12 -338 0 -676q0 -26 -17.5 -43.5t-55.5 -28t-54.5 -13.5t-56.5 -9q-11 -25 0 -49z" />
<glyph unicode="2" d="M92 98l422 293q156 111 156 266q0 72 -30 110t-69 48q-65 -10 -102 -45t-37 -92q0 -45 17.5 -85t35.5 -58l19 -19q-21 -86 -94 -92h-72q-8 2 -20.5 8t-44 28.5t-56 51.5t-44 79t-19.5 109q0 156 118.5 239t296.5 83q236 0 355.5 -87t119.5 -243q0 -217 -249 -368 l-140 -86h45q58 2 110 40.5t81 88.5q63 0 102 -33l-90 -375h-745q-47 35 -66 139zM137 82q10 -66 33 -82h688l92 334q-10 10 -37 10q-32 -55 -90.5 -101t-128.5 -46h-252v10l246 151q215 142 215 334q0 133 -90 211t-244 78q-159 0 -266.5 -72.5t-107.5 -208.5q0 -51 15 -94 t36.5 -68.5t44 -43t37.5 -23.5l16 -6q35 2 43 37q-68 57 -68 176q0 88 61.5 135t164.5 47q59 0 112.5 -47t53.5 -156q0 -102 -40 -167.5t-134 -131.5z" />
<glyph unicode="3" d="M27 -225q0 39 13 72t36 57t54 37.5t67 13.5q151 0 151 -150q0 -106 -96 -145q62 -31 170 -31q50 0 94 30t77 81.5t52 121t19 148.5q0 205 -160 230q-68 -9 -144 -43h-71l-58 133l199 96q91 44 136.5 111.5t45.5 156.5q0 24 -10 46.5t-28 39t-43 26.5t-55 10 q-32 0 -62.5 -9.5t-54 -26t-38 -40t-14.5 -50.5q0 -94 45 -158q-33 -65 -96 -71q-141 90 -141 248q0 69 26 126.5t76 99t124.5 64.5t172.5 23q475 0 475 -324q0 -87 -49.5 -163t-134.5 -127q237 -83 237 -371q0 -240 -189 -396q-188 -157 -435 -157q-107 0 -181.5 30.5 t-121 75t-67.5 95t-21 90.5zM70 -231q0 -86 96 -165t248 -79q174 0 330.5 147.5t156.5 364.5q0 174 -91 259t-220 95v10q106 33 182 116t76 181q0 146 -91 214.5t-243 68.5q-174 0 -266 -76t-92 -196q0 -134 110 -205q27 4 39 26q-53 60 -53 160q0 76 55 123t168 47 q78 0 128 -50t50 -116q0 -205 -204 -305l-164 -80l24 -59q84 35 156 35q102 0 171 -62.5t69 -212.5q0 -190 -81 -306t-212 -116q-125 0 -198 58.5t-73 130.5q0 73 52 90q14 20 0 47q-54 0 -88.5 -38t-34.5 -107z" />
<glyph unicode="4" horiz-adv-x="1151" d="M-12 74l753 948q150 0 197 -47v-748h272l-39 -266l-233 -2v-438h-358v438h-535q-57 31 -57 115zM29 59q0 -47 26 -59h566v-438h176v438l264 2l29 186h-293l2 781q-13 12 -37 12zM219 186l406 512v-512h-406zM403 227h181v226z" />
<glyph unicode="5" d="M-16 -223q0 78 49 129t121 51q139 0 139 -154q0 -94 -92 -135q26 -20 91.5 -30.5t104.5 -4.5q121 11 204 100t83 273q0 80 -35 132t-100.5 77t-132 34t-158.5 9q-35 8 -55.5 27.5t-42.5 66.5q78 244 116 639h431q54 2 86 24.5t46.5 42t32.5 58.5q76 0 121 -39l-94 -364 h-410l-28 -170q274 -4 422.5 -114t148.5 -382q0 -233 -209 -397t-448 -164q-105 0 -184.5 30.5t-122.5 78t-63.5 94.5t-20.5 88zM27 -229q0 -86 97 -166t253 -80q205 0 359.5 150.5t154.5 371.5q0 133 -43 224t-123 140.5t-176 70t-223 20.5l43 252h499l80 307 q-18 14 -49 14q-30 -58 -67 -89t-142 -36h-377q-34 -358 -110 -594q22 -49 63 -57q101 0 172.5 -10t142 -39t107.5 -90.5t37 -153.5q0 -217 -105.5 -316.5t-250.5 -99.5q-125 0 -198 58.5t-73 130.5q0 74 52 90q14 20 0 47q-54 0 -88.5 -38t-34.5 -107z" />
<glyph unicode="6" d="M8 455q0 149 57.5 286.5t147.5 236.5t200.5 184t221 139.5t201 93.5t204.5 73h72l68 -102q-396 -190 -611 -438q533 -33 533 -482q0 -241 -158 -378.5t-381 -137.5q-80 0 -152.5 13.5t-148.5 49.5t-130 92t-89 151.5t-35 218.5zM49 455q0 -113 33 -201t82 -140.5 t115.5 -86t126 -45t120.5 -11.5q170 0 302.5 128t132.5 347q0 443 -547 443q227 297 633 493l-25 39q-21 -6 -55.5 -16t-136 -52t-193.5 -90.5t-203.5 -131t-192.5 -176t-136.5 -225.5t-55.5 -275zM233 416q0 264 134 401q223 -2 309 -90t88 -281q0 -229 -74 -319t-166 -90 q-137 0 -214 99.5t-77 279.5zM375 416q0 -144 48 -231t134 -103q68 14 117 99t49 265q-2 156 -58.5 233t-203.5 93q-86 -121 -86 -356z" />
<glyph unicode="7" d="M106 -342q0 15 3.5 31.5t8 32t10 28.5t10.5 21q4 8 161 244t465 700h-252q-33 0 -58.5 -10t-47 -30.5t-41 -51.5t-41.5 -74q-47 0 -76.5 1t-51 6.5t-38 17t-35.5 32.5q12 33 24 81.5t21 100t15 100.5t7 83q34 51 93 51l51 -31h710q22 0 44.5 -10.5t40.5 -26t30.5 -33 t14.5 -32.5l-750 -1139q43 -46 43 -108q0 -33 -12.5 -61.5t-36 -50t-57 -34t-76.5 -12.5q-85 0 -132 46.5t-47 127.5zM147 -342q0 -61 39.5 -98t120.5 -37q7 4 12 13.5t5 20.5t-5 17q-51 2 -51 46q4 68 113 237l678 1042q-2 16 -14.5 33.5t-28.5 17.5h-697l-49 31 q-23 0 -39 -25q-1 -32 -6 -78t-13.5 -95t-19 -94t-22.5 -75q22 -24 57 -24q0 2 10.5 20.5t34.5 55.5q21 31 46 49t50 26.5t46 10.5t35 2h391l-594 -895l-63 -91q-6 -9 -12 -22.5t-11.5 -28.5t-9 -30.5t-3.5 -28.5z" />
<glyph unicode="8" d="M72 350q0 246 213 352q-191 101 -191 334q0 115 42 200t97.5 126t128 65.5t112.5 29.5t73 5q514 0 514 -403q0 -228 -180 -348q225 -103 225 -342q0 -222 -163 -330.5t-400 -108.5q-70 0 -147 22.5t-152.5 69t-123.5 132.5t-48 196zM113 350q0 -100 44 -177t112.5 -119 t138 -62.5t135.5 -20.5q162 0 292 100.5t130 297.5q0 221 -183 305l-63 22v13q35 16 69.5 44.5t61.5 64.5t48.5 100.5t21.5 140.5q0 92 -30 161.5t-71 106.5t-96 59.5t-96 28.5t-80 6q-29 0 -66 -4t-102.5 -26.5t-115.5 -59.5t-89 -114.5t-39 -180.5q0 -217 184 -305l64 -22 v-15q-10 -2 -28.5 -7t-65.5 -30.5t-82 -59.5t-64.5 -99.5t-29.5 -147.5zM299 350q0 164 77 242t169 78q33 0 63.5 -8.5t73.5 -35t69.5 -94t26.5 -167.5q0 -185 -62.5 -256.5t-170.5 -71.5q-101 0 -173.5 71.5t-72.5 241.5zM322 1034q0 160 59 241t162 81q94 0 142 -79 t48 -218q0 -127 -43 -225.5t-145 -98.5q-35 0 -68 10.5t-70.5 38t-61 92t-23.5 158.5zM440 350q0 -241 144 -270q153 26 153 285q0 229 -151 260q-60 -17 -103 -83.5t-43 -191.5zM463 1034q0 -217 115 -254q114 35 114 279q0 219 -112 250q-117 -33 -117 -275z" />
<glyph unicode="9" d="M-61 -414q395 191 610 439q-537 32 -537 481q0 239 152.5 377.5t351.5 138.5q113 0 208 -22.5t186 -78t143.5 -163t52.5 -260.5q0 -150 -56.5 -287t-147.5 -236.5t-200.5 -184.5t-219.5 -143t-404 -163h-72zM0 -430l25 -39q195 68 265 103.5t145.5 79t136.5 91.5 q78 57 149 130t125.5 160.5t86.5 188t32 213.5q0 98 -21 172t-56.5 127.5t-82 89.5t-96.5 57t-100 29.5t-93 8.5q-89 0 -172.5 -32.5t-148 -94t-103.5 -149.5t-39 -199q0 -119 41.5 -203t117.5 -137t183 -78t238 -25q-228 -297 -633 -493zM250 506q0 121 26.5 208t70.5 128 t85 57t86 16q123 0 192.5 -99t69.5 -279q0 -289 -108 -402q-236 2 -328 90t-94 281zM391 506q2 -156 59.5 -232.5t204.5 -93.5q84 113 84 357q0 143 -49 230t-135 103q-164 -41 -164 -364z" />
<glyph unicode=":" horiz-adv-x="684" d="M143 96q0 35 13 65.5t35.5 53t53 35t64.5 12.5q44 0 87 -5.5t76.5 -23.5t54 -50.5t20.5 -86.5q0 -51 -16.5 -83t-47.5 -50.5t-75 -25.5t-99 -7q-34 0 -64 13t-52.5 35.5t-36 52.5t-13.5 65zM143 778q0 35 13 65.5t35.5 53t53 35t64.5 12.5q45 0 87.5 -5.5t76 -23.5 t54 -50.5t20.5 -86.5q0 -51 -16.5 -83t-47.5 -50.5t-75 -25.5t-99 -7q-35 0 -65 13t-52.5 35.5t-35.5 52.5t-13 65zM184 96q0 -25 10 -47.5t27.5 -40t40 -27.5t47.5 -10t47.5 10t40 27.5t27.5 40t10 47.5t-10 47.5t-27.5 40t-40 27.5t-47.5 10q-24 0 -47 -9.5t-41 -27.5 q-19 -19 -28 -41.5t-9 -46.5zM184 778q0 -27 10 -49.5t27.5 -39.5t40 -26.5t47.5 -9.5t47.5 9.5t39.5 26.5t27.5 39.5t10.5 49.5t-10.5 49.5t-27.5 39.5t-39.5 26.5t-47.5 9.5q-24 0 -46.5 -9t-41.5 -28q-37 -34 -37 -88z" />
<glyph unicode=";" horiz-adv-x="684" d="M123 -217q58 49 93.5 89t49.5 71q-123 18 -123 155q0 32 12 61.5t33 52.5t50 36.5t63 13.5q125 0 185.5 -40t60.5 -136q0 -50 -20 -107t-53.5 -112t-77 -102t-91.5 -78h-72zM143 778q0 35 13 65.5t35.5 53t53 35t64.5 12.5q45 0 87.5 -5.5t76 -23.5t54 -50.5t20.5 -86.5 q0 -51 -16.5 -83t-47.5 -50.5t-75 -25.5t-99 -7q-35 0 -65 13t-52.5 35.5t-35.5 52.5t-13 65zM184 98q0 -118 129 -118l5 -7q-25 -96 -134 -190l52 -45q39 25 75 65.5t63 87.5t43.5 98t16.5 97q0 72 -38 103.5t-95 31.5q-24 0 -45.5 -10.5t-37.5 -28t-25 -39.5t-9 -45z M184 778q0 -27 10 -49.5t27.5 -39.5t40 -26.5t47.5 -9.5t47.5 9.5t39.5 26.5t27.5 39.5t10.5 49.5t-10.5 49.5t-27.5 39.5t-39.5 26.5t-47.5 9.5q-24 0 -46.5 -9t-41.5 -28q-37 -34 -37 -88z" />
<glyph unicode="&#x3c;" horiz-adv-x="1669" d="M82 713l1309 567h71l84 -182l-897 -383l897 -387l-84 -183h-71zM184 713l1186 -514l49 108l-946 408l946 403l-49 109z" />
<glyph unicode="=" horiz-adv-x="1571" d="M143 428v197h1291v-197h-1291zM143 797v196h1291v-196h-1291zM184 469h1137v115h-1137v-115zM184 838h1137v114h-1137v-114z" />
<glyph unicode="&#x3e;" horiz-adv-x="1669" d="M129 328l899 387l-899 383l84 182h72l1308 -567l-1308 -568h-72zM184 307l49 -108l1186 514l-1186 514l-49 -109l946 -403z" />
<glyph unicode="?" horiz-adv-x="1137" d="M51 1235q0 117 117 213t328 96q206 0 344.5 -97t138.5 -273q0 -107 -49 -190t-119 -139.5t-139.5 -108.5t-118.5 -121.5t-49 -155.5v-152h-232v182q0 103 34 182t81 130t94 101t81 124t34 170q0 72 -35 126t-112 64q-97 0 -134 -53q54 -37 54 -110q0 -64 -43 -108 t-111 -44q-76 0 -120 42t-44 122zM100 1241q0 -59 35 -92t88 -33q15 27 0 47q-51 15 -51 70q0 88 64.5 142.5t185.5 54.5q113 0 164 -70t51 -164q0 -98 -34 -174t-81 -127t-94 -103.5t-81 -128t-34 -174.5v-141h49v111q0 84 49.5 155.5t119 126t139 111.5t119 139t49.5 183 q0 174 -114 251.5t-300 77.5q-135 0 -229.5 -76.5t-94.5 -185.5zM211 77q0 34 13 64t35.5 52.5t52.5 35.5t63 13q225 0 225 -164t-225 -164q-33 0 -63 13t-52.5 35t-35.5 51.5t-13 63.5zM252 78q0 -26 8.5 -48t23 -39t34 -26.5t42.5 -9.5t43 10t34.5 27t23 39t8.5 47 t-8.5 47t-23 39t-34.5 27t-43 10q-46 0 -77 -37q-31 -34 -31 -86z" />
<glyph unicode="@" horiz-adv-x="2144" d="M115 578q0 417 278.5 690.5t728.5 273.5q385 0 649.5 -240.5t264.5 -578.5q0 -160 -59.5 -287t-157 -201.5t-210 -113.5t-227.5 -39q-137 0 -211 72q-77 -45 -264 -45q-137 0 -236.5 102t-99.5 287q0 225 148.5 387t372.5 162q188 0 276 -84l66 47h192 q-184 -578 -187 -589t-8.5 -32.5t-6.5 -36t0 -32t8.5 -31t19.5 -21.5q49 11 99.5 41.5t99.5 82.5t79.5 138t30.5 193q0 266 -180 447.5t-461 191.5q-176 -8 -318.5 -80t-229.5 -184.5t-133 -243.5t-46 -266q0 -297 206 -517.5t529 -234.5q111 8 234 60.5t217 140.5h72 l102 -178q-164 -121 -300 -168t-349 -47q-225 0 -414.5 78.5t-313.5 209.5t-192.5 298t-68.5 348zM156 578q0 -232 110.5 -433.5t330.5 -330.5t507 -129q156 0 270.5 42t253.5 144l-59 100q-90 -84 -222.5 -131t-252.5 -47q-185 0 -344.5 65.5t-267 176t-169 254 t-61.5 299.5q0 145 53 287.5t152.5 262t264.5 193.5t368 74q309 0 510.5 -195.5t201.5 -486.5q0 -133 -45 -236.5t-111.5 -158t-129 -81t-113.5 -26.5q-168 0 -86 266l153 484l-24 -2l-129 -95q-49 72 -113.5 102t-111.5 30q-207 0 -343.5 -150.5t-136.5 -357.5 q0 -166 87 -257t208 -91q144 0 248 98q57 -125 227 -125q78 0 164 37t166 105.5t131 189t51 268.5q0 324 -226 551t-578 227q-412 0 -673 -263t-261 -660zM768 402q0 108 24.5 206.5t67.5 173.5t101 119.5t126 44.5q33 0 62.5 -13t52.5 -36t39.5 -55.5t24.5 -71.5l-125 -440 q-46 -61 -96.5 -87t-112.5 -26q-48 0 -79.5 17t-50.5 43.5t-26.5 59.5t-7.5 65zM909 440q0 -29 4 -57.5t12.5 -52.5t22.5 -42t35 -26q71 16 121 86l121 422q-20 102 -101 129q-35 -12 -68.5 -49t-62 -93t-50 -127t-31.5 -152q-3 -18 -3 -38z" />
<glyph unicode="A" horiz-adv-x="1757" d="M35 78q206 24 233 90l422 1061q-4 8 -15.5 36.5t-13.5 37.5q78 79 86 204q88 43 207 49l561 -1392q19 -47 60 -62.5t143 -23.5q12 -29 12 -59q0 -33 -14 -68h-793q-12 34 -12 66t12 61q109 6 154 22q34 13 34 38q0 8 -3 16l-131 331q-72 3 -148 3q-119 0 -248 -7 l-129 -331q-6 -17 9.5 -30.5t50.5 -21.5t82 -13t106 -7q12 -29 12 -59q0 -33 -14 -68q-164 6 -329 6t-332 -6q-14 35 -14 68q0 30 12 59zM59 16q0 -12 6 -24q114 4 183.5 6t95.5 2q23 0 104.5 -2t221.5 -6q6 12 6 24q0 11 -6 25q-83 8 -135 17.5t-81 20.5t-39 24.5t-10 30.5 q0 11 4 22l146 366q111 2 179.5 3t94.5 1q57 0 101.5 -0.5t76.5 -1.5l145 -368q5 -15 5 -23q0 -27 -27.5 -48t-67.5 -29l-108 -15q-6 -14 -6 -25q0 -12 6 -24q85 3 172.5 5t179.5 2t186.5 -2t194.5 -5q7 14 7 24q0 6 -2 12t-5 13q-56 3 -108.5 8.5t-95.5 15.5t-72.5 26.5 t-38.5 41.5l-553 1366q-17 -1 -33 -14q-7 -124 -76 -199l23 -59l-422 -1061q-40 -100 -246 -125q-6 -14 -6 -25zM590 608l190 490h4l191 -492q-54 -2 -146 -2q-145 0 -239 4zM649 647q73 -4 154 -4q54 0 112 2l-133 348z" />
<glyph unicode="B" horiz-adv-x="1587" d="M74 1384q-8 29 -8 57q0 36 12 72q145 -6 274 -6t252 2t168 2q84 0 152.5 -6t152.5 -28.5t141.5 -60.5t96.5 -108.5t39 -166.5q0 -178 -197 -287q162 -47 262.5 -150.5t100.5 -252.5q0 -97 -33 -173.5t-84 -127t-130 -87t-152 -56t-168 -31t-162.5 -14.5t-149.5 -3 q-238 0 -565 -8q-12 34 -12 66.5t12 62.5q217 22 219 59q12 314 12 629q0 322 -10 557q-2 37 -223 59zM104 -6q195 6 465 6q90 0 162 4t172 17.5t175 45t144.5 79t106.5 125t37 180.5q0 157 -123 257.5t-303 129.5v8q117 37 188.5 110.5t71.5 184.5q0 329 -500 329 q-39 0 -131 -4t-203.5 -4t-259.5 8q-4 -9 -4 -20.5t4 -26.5q230 -22 232 -96q10 -235 10 -559q0 -317 -12 -631q-2 -74 -232 -96q-4 -8 -4 -19.5t4 -27.5zM518 768q80 6 156 6q215 0 342 -79t127 -249q0 -100 -37 -171.5t-92.5 -110.5t-143.5 -61.5t-163.5 -28.5t-178.5 -6z M518 829l12 570q84 6 127 6q142 0 226 -63.5t84 -200.5q0 -312 -449 -312zM672 731l10 -620q90 6 158.5 21t131 50t96.5 101.5t34 162.5q0 103 -70 173.5t-165 96.5q-68 18 -139 18q-28 0 -56 -3zM674 877q252 38 252 264q0 207 -244 221z" />
<glyph unicode="C" horiz-adv-x="1659" d="M113 729q0 186 55 332.5t141 234.5t201 146.5t223.5 80t218.5 21.5q150 0 326 -40t252 -50q-27 -106 -27 -191q0 -17 1 -35q7 -98 57 -239q-29 -59 -107 -71q-43 96 -79 158.5t-96 140t-143 120.5t-186 52q-114 -9 -199 -72.5t-131.5 -162.5t-68 -205.5t-21.5 -219.5 q0 -252 127 -423t379 -183q244 12 383 182q39 0 68 -25.5t29 -60.5q-101 -147 -273 -224t-332 -77q-100 0 -202.5 23.5t-212 83t-193.5 148.5t-137 233.5t-53 322.5zM154 729q0 -170 51 -307t130 -221t182.5 -140.5t201.5 -79t192 -22.5q152 0 311.5 69.5t252.5 204.5 q0 13 -11.5 22t-25.5 9q-150 -182 -441 -182q-307 0 -463.5 185.5t-156.5 461.5q0 125 27.5 241.5t86 223t167 172.5t253.5 66q99 0 183 -31t138 -73t105.5 -112.5t78 -122t63.5 -130.5q30 4 37 22q-74 297 -223.5 407.5t-381.5 110.5q-94 0 -192 -22.5t-201.5 -80 t-182.5 -142t-130 -222t-51 -307.5z" />
<glyph unicode="D" horiz-adv-x="1827" d="M74 1384q-8 29 -8 57q0 36 12 72q123 -2 766 -2q139 0 255.5 -17t237.5 -68.5t204 -134.5t135 -224t52 -330q0 -180 -61 -319t-159.5 -224t-231.5 -139.5t-262 -75t-269 -20.5q-335 0 -669 -8q-12 34 -12 66.5t12 62.5q217 22 219 59q12 314 12 629q0 322 -10 557 q-2 37 -223 59zM104 -6q215 6 570 6q127 0 245.5 19.5t240.5 71.5t211 132t146.5 213t57.5 303q0 731 -803 731q-74 0 -210 -3t-246.5 -3t-209.5 6q-4 -9 -4 -20.5t4 -26.5q230 -22 232 -96q10 -235 10 -559q0 -317 -12 -631q-2 -74 -232 -96q-5 -12 -5 -23.5t5 -23.5z M518 694q0 371 12 692q109 13 230 13q133 0 238.5 -42t171 -107.5t107.5 -154.5t58.5 -176.5t16.5 -179.5q0 -303 -170 -485t-490 -182l-164 2q-10 415 -10 620zM672 694q0 -248 8 -581q315 8 473 177t158 449q0 109 -26 208.5t-83 193.5t-166.5 152.5t-257.5 62.5 q-49 0 -94 -6q-12 -351 -12 -656z" />
<glyph unicode="E" horiz-adv-x="1714" d="M70 80q219 22 221 59q12 314 12 629q0 322 -10 557q-2 37 -223 59q-9 32 -9 61q0 36 13 68q307 -10 407 -10h967q24 -196 156 -413q-23 -48 -107 -78q-82 149 -241.5 248.5t-413.5 99.5h-164q-10 -359 -10 -551q63 -2 182 -2q84 0 134 56.5t110 176.5l43 84 q84 -30 106 -77q-45 -78 -75.5 -168.5t-30.5 -145.5q0 -133 106 -313q-24 -51 -102 -78q-37 61 -54 94q-41 68 -64.5 101.5t-70.5 67.5t-104 36h-180q0 -221 8 -539h207q254 0 413.5 99.5t241.5 249.5q84 -31 106 -78q-131 -217 -155 -414h-830q-395 0 -587 -6 q-11 34 -11 67q0 31 9 60zM100 -6q193 6 897 6q246 0 370 84t224 289q-8 16 -35 26q-182 -338 -671 -338h-361q-10 437 -10 639l326 2q43 0 80.5 -14t60 -28.5t52.5 -55.5t42 -59.5t42 -76.5t40 -75q31 13 39 27q-100 170 -100 313q0 62 28.5 151t71.5 163q-8 14 -39 26 q-8 -14 -31.5 -60t-31 -59.5t-29 -49.5t-33.5 -48l-35.5 -35.5t-45 -32t-50.5 -15.5t-61 -7q-215 0 -326 4q0 242 12 631h318q489 0 671 -338q27 10 35 27q-100 204 -224 288t-370 84h-503q-125 0 -351 8v-47q230 -22 232 -96q10 -235 10 -559q0 -317 -12 -631 q-2 -74 -232 -96q-2 -18 -2 -29.5t2 -17.5z" />
<glyph unicode="F" horiz-adv-x="1610" d="M74 1384q-9 32 -9 61q0 36 13 68q307 -10 407 -10h926q25 -196 156 -413q-23 -48 -107 -78q-82 149 -241.5 248.5t-413.5 99.5h-123q-10 -359 -10 -551q49 -2 141 -2q84 0 134 56.5t110 176.5l43 84q84 -30 106 -77q-106 -191 -106 -314q0 -133 106 -313 q-24 -51 -102 -78q-23 31 -53 94q-41 68 -65 101.5t-71 67.5t-104 36h-139q0 -238 10 -504q0 -6 5 -11t14.5 -10t32.5 -13t93 -17.5t80 -11.5q7 -24 7 -50q0 -35 -13 -73q-369 8 -448 8q-54 0 -377 -8q-12 34 -12 66.5t12 62.5q217 22 219 59q12 250 12 629q0 322 -10 557 q-2 37 -223 59zM104 -6q170 6 349 6q213 0 409 -6q8 16 0 47q-330 20 -334 96q-10 236 -10 563l285 2q43 0 81 -14t60.5 -28.5t52 -55.5t42 -59.5t42 -76.5t39.5 -75q31 13 39 27q-100 178 -100 313q0 62 28.5 151t71.5 163q-4 14 -39 26q-8 -14 -31.5 -60t-30.5 -59.5 t-28.5 -49.5t-34 -48t-36 -35.5t-45 -32t-50.5 -15.5t-61 -7q-187 0 -285 4q0 242 12 631h277q489 0 672 -338q26 10 34 27q-100 204 -224 288t-370 84h-462q-125 0 -351 8v-47q230 -22 232 -96q10 -235 10 -559q0 -317 -12 -631q-2 -74 -232 -96q-4 -8 -4 -19.5t4 -27.5z " />
<glyph unicode="G" horiz-adv-x="1843" d="M113 729q0 186 55 332.5t140 234.5t196.5 146.5t214 80t205.5 21.5q166 0 368.5 -42t257.5 -48q-26 -106 -26 -190q0 -19 1 -36q7 -98 56 -239q-29 -59 -106 -71q-43 96 -79 158.5t-96.5 140t-143.5 120.5t-185 52q-117 -7 -206 -70.5t-138 -162.5t-73 -206.5t-24 -220.5 q0 -156 42 -298t147.5 -250.5t259.5 -108.5q143 0 217 73v390q0 34 -223 57q-13 33 -13 63q0 34 17 66q190 -9 473 -9q162 0 354 3q12 -31 12 -64q0 -29 -10 -59q-223 -23 -223 -57v-148q0 -182 57 -336q-141 -53 -209.5 -73.5t-198.5 -40t-300 -19.5q-103 0 -206 21.5 t-216 79t-199 144.5t-142 233.5t-56 332.5zM154 729q0 -176 53 -315.5t135 -222t189.5 -137t206 -75t194.5 -20.5q151 0 271 28.5t272 88.5q-45 123 -45 311v148q0 73 333 96q5 12 5 23.5t-5 23.5q-262 -8 -409 -8q-123 0 -348 8q-7 -23 0 -47q231 -23 231 -96v-406 q-86 -98 -305 -98q-117 0 -213 43t-158.5 113.5t-104.5 163.5t-60.5 187.5t-18.5 190.5q0 123 30.5 240.5t93 224t174 172.5t257.5 66q98 0 182 -31t138.5 -73t105.5 -112.5t77.5 -122t63.5 -130.5q31 4 37 22q-74 297 -223.5 407.5t-380.5 110.5q-96 0 -194.5 -20.5 t-206 -75.5t-189.5 -139t-135 -223.5t-53 -315.5z" />
<glyph unicode="H" horiz-adv-x="1872" d="M70 1384q-8 29 -8 57q0 36 12 72q88 0 238.5 -5t209.5 -5q43 0 166 2t213 2q10 -30 10 -63q0 -29 -8 -60q-221 -22 -223 -59q-12 -276 -12 -516q58 -4 134 -4q51 0 109 2l307 4q-4 326 -10 514q-2 37 -223 59q-8 32 -8 61q0 36 12 68q145 -10 393 -10q47 0 191.5 2 t242.5 2q10 -31 10 -65q0 -28 -7 -58q-222 -22 -224 -59q-10 -248 -10 -594q0 -344 10 -592q2 -37 224 -59q7 -28 7 -56q0 -37 -12 -73q-323 8 -376 8q-80 0 -449 -8q-12 34 -12 66.5t12 62.5q219 22 219 57q8 398 10 502q-196 4 -307 4q-86 0 -160.5 -1t-82.5 -1 q0 -231 10 -502q0 -6 4 -12t14 -10t20.5 -8.5t27 -8.5t29.5 -7t33.5 -6t33 -5t34 -4t29.5 -4q7 -24 7 -49q0 -35 -13 -74q-369 8 -449 8q-53 0 -376 -8q-12 34 -12 66.5t12 62.5q217 22 219 59q12 314 12 629q0 322 -10 557q-2 37 -223 59zM100 -6q170 6 348 6q213 0 410 -6 q8 16 0 47q-332 20 -334 96q-10 301 -10 563q246 5 397 5q164 0 348 -7q-2 -223 -10 -561q0 -74 -231 -96q-8 -16 0 -47q170 6 348 6q213 0 410 -6q4 9 4 20.5t-4 26.5q-332 20 -334 96q-11 248 -11 594q0 348 11 596q2 76 334 96q5 12 5 24t-5 23q-263 -8 -410 -8 q-123 0 -348 8q-6 -24 0 -47q229 -22 231 -96q6 -184 10 -555q-184 -6 -348 -6q-274 0 -397 4q0 336 12 557q2 76 334 96q6 19 0 47q-262 -8 -410 -8q-122 0 -348 8q-4 -9 -4 -20.5t4 -26.5q230 -22 232 -96q10 -235 10 -559q0 -317 -12 -631q-2 -74 -232 -96 q-4 -8 -4 -19.5t4 -27.5z" />
<glyph unicode="I" horiz-adv-x="956" d="M74 1384q-8 30 -8 58q0 36 12 71q88 0 238.5 -5t209.5 -5q43 0 166 2t213 2q10 -30 10 -63q0 -29 -8 -60q-221 -22 -223 -59q-12 -250 -12 -631q0 -368 10 -555q0 -6 5 -12t14.5 -10t19.5 -8.5t27.5 -8.5t29.5 -7t32.5 -6t33 -5t34 -4t29.5 -4q7 -24 7 -50q0 -35 -13 -73 q-369 8 -448 8q-54 0 -377 -8q-12 34 -12 66.5t12 62.5q217 22 219 59q12 250 12 629q0 322 -10 557q-2 37 -223 59zM104 -6q170 6 349 6q213 0 409 -6q4 8 4 20t-4 27q-332 20 -334 96q-8 418 -8 631q0 246 10 559q2 76 334 96q3 10 3 21.5t-3 25.5q-262 -8 -409 -8 q-123 0 -349 8q-4 -9 -4 -20.5t4 -26.5q230 -22 232 -96q10 -235 10 -559q0 -317 -12 -631q-2 -74 -232 -96q-4 -8 -4 -19.5t4 -27.5z" />
<glyph unicode="J" horiz-adv-x="1012" d="M-152 -293v7q0 98 58 153q61 57 141 57q76 0 131 -51t55 -141q0 -39 -12 -65.5t-26.5 -42t-16.5 -21.5q8 -19 35 -27q84 18 110.5 127t26.5 352v713q0 322 -10 557q-2 37 -223 59q-8 30 -8 58q0 36 12 71q176 -10 448 -10q41 0 164 2t215 2q10 -30 10 -63q0 -29 -8 -60 q-221 -22 -223 -59q-12 -250 -12 -631q0 -162 -4 -286.5t-17.5 -262t-36 -238t-61.5 -195.5t-93 -154.5t-131 -95t-173 -35.5q-172 0 -260.5 81.5t-90.5 198.5zM-111 -293q0 -96 75 -167.5t210 -71.5q55 0 100 12t82 39.5t65 61.5t49.5 92.5t36.5 114.5t25.5 144t16.5 167 t9 198t4 220t1 251q0 246 10 559q2 76 334 96q3 9 3 21t-3 26q-262 -8 -409 -8q-123 0 -348 8q-9 -18 0 -47q229 -22 231 -96q10 -235 10 -559v-713q0 -291 -42 -407.5t-175 -116.5q-96 0 -147.5 52t-51.5 120q0 53 27 84t64 31q34 0 59 -25q25 6 33 35q-37 53 -109 53 t-116 -46t-44 -128z" />
<glyph unicode="K" horiz-adv-x="1743" d="M74 1384q-8 30 -8 58q0 36 12 71q88 0 238.5 -5t209.5 -5q43 0 160 2t207 2q10 -30 10 -63q0 -29 -8 -60q-209 -20 -211 -59q-10 -207 -12 -407l454 438q0 16 -170 28q-10 32 -10 63q0 33 12 64q207 -9 410 -9q152 0 301 5q8 -28 8 -59t-8 -64q-240 -16 -344 -88 l-459 -438l629 -637q141 -141 281 -147q8 -33 8 -63.5t-8 -59.5q-136 8 -342 8t-484 -8q-12 34 -12 70q0 26 6 53q154 4 154 35q0 10 -426 452q0 -186 10 -422q0 -6 5 -12t14.5 -10t19.5 -8.5t27.5 -8.5t29.5 -7t32.5 -6t33 -5t34 -4t29.5 -4q6 -28 6 -53q0 -36 -12 -70 q-369 8 -448 8q-54 0 -377 -8q-12 34 -12 66.5t12 62.5q217 22 219 59q12 250 12 629q0 322 -10 557q-2 37 -223 59zM104 -6q170 6 349 6q213 0 409 -6q8 16 0 47q-332 20 -334 96q-10 312 -10 557l80 2l487 -506q54 -57 54 -81q0 -35 -32 -50.5t-128 -17.5q-8 -31 0 -47v-2 q221 8 379 8q231 0 372 -6q4 11 4 22.5t-4 24.5q-233 8 -374 149l-617 625l539 512q53 37 118.5 58.5t107.5 26.5t112 11q6 25 0 47q-275 -8 -336 -8q-72 0 -297 8q-6 -22 0 -47q104 -6 144 -18t40 -49q0 -18 -12 -29l-567 -547h-70q0 273 12 547q2 76 334 96q6 19 0 47 q-262 -8 -409 -8q-123 0 -349 8q-4 -9 -4 -20.5t4 -26.5q230 -22 232 -96q10 -235 10 -559q0 -317 -12 -631q-2 -74 -232 -96q-4 -8 -4 -19.5t4 -27.5z" />
<glyph unicode="L" horiz-adv-x="1704" d="M70 80q219 22 221 59q12 314 12 629q0 322 -10 557q-2 37 -223 59q-8 30 -8 58q0 36 12 71q174 -10 448 -10q41 0 164 2t215 2q10 -30 10 -63q0 -29 -8 -60q-221 -22 -223 -59q-12 -250 -12 -631q0 -274 8 -592h207q444 0 645 369q84 -31 106 -78q-143 -237 -168 -434 h-807q-395 0 -587 -6q-11 34 -11 67q0 31 9 60zM100 -6q193 6 897 6q240 0 360 90t224 303q-8 17 -35 27q-39 -72 -86 -128t-124 -112.5t-191.5 -87.5t-259.5 -31h-361q-8 351 -8 707q0 246 10 559q2 76 334 96q6 19 0 47q-262 -8 -409 -8q-123 0 -349 8q-4 -9 -4 -20.5 t4 -26.5q230 -22 232 -96q10 -235 10 -559q0 -317 -12 -631q-2 -74 -232 -96q-3 -12 -3 -24t3 -23z" />
<glyph unicode="M" horiz-adv-x="2015" d="M65 -49q-12 34 -12 66.5t12 62.5q207 20 209 72q13 315 13 616q0 219 -7 465q-2 92 -35.5 118.5t-144.5 41.5q-14 29 -14 58q0 31 16 62q230 -10 598 -10l328 -876l338 876q268 0 592 8q11 -36 11 -72q0 -29 -7 -57q-221 -22 -223 -59q-9 -188 -9 -555q0 -379 13 -627 q2 -37 223 -59q7 -28 7 -57q0 -36 -11 -72q-324 8 -377 8q-80 0 -448 -8q-12 35 -12.5 67t12.5 62q217 22 219 57q10 234 10 555q0 250 -2 367l-404 -1077h-67l-436 1099v-389q0 -231 10 -542q2 -54 219 -72q12 -30 12.5 -62t-12.5 -67q-150 6 -305 6t-316 -6zM94 -6 q189 6 268 6q125 0 285 -6q8 31 0 47q-219 20 -221 111q-10 311 -10 542q0 316 8 559h10l488 -1228h10l456 1204h9q10 -301 10 -535q0 -325 -10 -555q-2 -26 -23.5 -44.5t-63.5 -29t-71 -14.5t-75 -8q-8 -16 0 -47q170 6 349 6q213 0 410 -6q4 9 4 20.5t-4 26.5 q-332 20 -334 94q-12 314 -12 631q0 307 8 559q2 74 334 94q4 14 4 26t-4 21q-197 -6 -524 -6l-426 -1112l-410 1112q-244 0 -432 8q-10 -20 0 -38q119 -17 155.5 -49.5t38.5 -149.5q7 -246 7 -465q0 -303 -13 -616q-4 -91 -221 -111q-4 -8 -4 -19.5t4 -27.5z" />
<glyph unicode="N" horiz-adv-x="1810" d="M41 16q0 29 14 64q207 20 209 72q12 210 12 616q0 311 -8 555q-65 51 -198 61q-15 27 -15 62q0 37 19 67q209 -10 528 -10l692 -864v131q0 231 -10 543q-2 53 -219 71q-14 35 -14 64q0 18 14 61q152 -6 305.5 -6t315.5 6q14 -43 14 -61q0 -29 -14 -64q-207 -20 -209 -71 q-13 -211 -13 -617q0 -458 13 -741l-82 -2l-949 1161q0 -18 -1 -65.5t-1 -73.5q0 -483 13 -823q2 -54 219 -72q14 -35 14 -64q0 -22 -14 -65q-154 6 -305 6q-154 0 -316 -6q-14 43 -14 65zM84 -6q188 6 268 6q125 0 285 -6q8 31 0 47q-219 20 -221 111q-10 311 -10 542 q0 264 6 523h10l993 -1223l19 2q-11 235 -11 700q0 303 13 617q4 90 221 110q4 8 4 20t-4 27q-189 -6 -268 -6q-125 0 -285 6q-8 -30 0 -47q219 -20 221 -110q10 -312 10 -543q0 -135 -4 -364l-862 1056q-225 0 -373 8q-8 -24 0 -47q129 -8 213 -82q8 -243 8 -573 q0 -303 -12 -616q-4 -91 -221 -111q-4 -8 -4 -19.5t4 -27.5z" />
<glyph unicode="O" horiz-adv-x="1888" d="M113 729q0 184 55 334.5t161 257t261 165t356 58.5q189 0 343.5 -54t264 -157.5t169 -255.5t59.5 -348q0 -197 -59.5 -348.5t-169 -255.5t-264 -157.5t-343.5 -53.5q-201 0 -356 58.5t-261 165t-161 257t-55 334.5zM154 729q0 -152 35.5 -268t94.5 -201.5t136.5 -143 t161.5 -92.5t169 -50t160 -15q69 0 149 14t159.5 48t153.5 91t130.5 142.5t90.5 203t34 271.5q0 151 -33.5 267.5t-89.5 202.5t-129 144t-153 93.5t-160.5 51t-151.5 15.5q-69 0 -152 -13.5t-167 -47t-163 -90.5t-140 -143t-98 -204.5t-37 -275.5zM377 729q0 80 12 163.5 t38 161.5t68 147t101 120t137.5 81t177.5 30q91 0 163 -29.5t126.5 -81t93.5 -120.5t63.5 -147t36 -161.5t11.5 -163.5t-11 -162.5t-35.5 -160t-63 -146t-93.5 -119.5t-127 -80.5t-164 -29.5q-99 0 -177 29.5t-137.5 80t-101 118.5t-68 145.5t-38.5 161t-12 163.5zM530 729 q0 -73 9.5 -148.5t30.5 -146.5t53.5 -134t79 -111.5t107 -78.5t136.5 -36q78 6 139 36.5t107.5 79t79 112t53 134t30 146t9.5 147.5q0 73 -9.5 148.5t-30 147t-53 135t-79 112.5t-108 80t-138.5 37q-77 -6 -138 -37t-107 -80.5t-78.5 -113t-53 -134.5t-30 -146.5 t-9.5 -148.5z" />
<glyph unicode="P" horiz-adv-x="1419" d="M74 1384q-8 30 -8 58q0 36 12 71q106 -4 228 -5h85q89 0 195 1q158 2 233 2q277 0 422 -130t145 -347q0 -219 -160.5 -343t-416.5 -124q-72 0 -129 13q0 -283 6 -443q0 -6 14.5 -16t43 -19t93 -17.5t74.5 -10.5q7 -24 7 -50q0 -35 -13 -73q-369 8 -448 8q-58 0 -381 -8 q-12 34 -12 66.5t12 62.5q217 22 219 59q12 250 12 629q0 322 -10 557q-2 37 -223 59zM104 -6q170 6 353 6q213 0 409 -6q8 16 0 47q-332 20 -334 96q-6 283 -6 527q125 -56 283 -56q203 0 313.5 119t110.5 307q0 197 -125 316.5t-361 119.5q-73 0 -205 -3t-236.5 -3 t-199.5 6q-4 -9 -4 -20.5t4 -26.5q45 -4 74 -8t71 -14t63.5 -28.5t23.5 -45.5q10 -235 10 -559q0 -317 -12 -631q-2 -74 -232 -96q-4 -8 -4 -19.5t4 -27.5zM526 731q0 309 6 670q82 4 117 4q365 0 365 -369q0 -159 -71 -250.5t-212 -91.5q-106 0 -205 37zM680 756 q37 -17 80 -21q104 10 158.5 90t54.5 211q0 310 -289 326q-4 -221 -4 -606z" />
<glyph unicode="Q" horiz-adv-x="1888" d="M113 729q0 186 54 332.5t137 234.5t192.5 146.5t211 80t203.5 21.5q185 0 338.5 -47t275.5 -143.5t189.5 -256t67.5 -368.5q0 -176 -46 -316.5t-127 -231.5t-175.5 -146t-206.5 -86q53 -109 158.5 -195t328.5 -160q7 -23 7 -49q0 -34 -13 -73q-352 0 -591.5 101 t-387.5 361q-119 23 -221 74t-195.5 141.5t-146.5 239t-53 340.5zM154 729q0 -340 201.5 -551t543.5 -219q96 -192 304 -315t478 -131q6 14 6 27q0 11 -4 20q-127 39 -223 92t-157.5 116.5t-95 111.5t-66.5 112q76 26 136 59t129 92.5t115 135t76.5 191.5t30.5 259 q0 176 -48 315.5t-123 223.5t-174 139t-190.5 75.5t-181.5 20.5q-96 0 -192 -20.5t-200.5 -75.5t-183.5 -139t-130 -223.5t-51 -315.5zM377 729q0 80 12 163.5t38 161.5t68 147t101 120t137.5 81t177.5 30q91 0 163 -29.5t126.5 -81t93.5 -120.5t63.5 -147t36 -161.5 t11.5 -163.5t-11 -162.5t-35.5 -160t-63 -146t-93.5 -119.5t-127 -80.5t-164 -29.5q-101 0 -180 30t-138 82t-100.5 121t-67 146.5t-37 159.5t-11.5 159zM530 729q0 -73 9.5 -148.5t30.5 -146.5t53.5 -134t79 -111.5t107 -78.5t136.5 -36q78 6 139 36.5t107.5 79t79 112 t53 134t30 146t9.5 147.5q0 73 -9.5 148.5t-30 147t-53 135t-79 112.5t-108 80t-138.5 37q-77 -6 -138 -37t-107 -80.5t-78.5 -113t-53 -134.5t-30 -146.5t-9.5 -148.5z" />
<glyph unicode="R" horiz-adv-x="1659" d="M74 1384q-8 30 -8 58q0 36 12 71q110 -6 239 -6t296 2t245 2q242 0 380 -122.5t138 -321.5q0 -141 -81 -260t-218 -180q68 -111 158 -228q106 -141 208.5 -224t227.5 -95q7 -28 7 -57q0 -36 -11 -72q-143 4 -526 8q-281 328 -439 616h-30q0 -186 10 -436q0 -6 5 -12 t39 -19t103.5 -22.5t77.5 -11.5q7 -24 7 -50q0 -35 -13 -73q-369 8 -448 8q-54 0 -377 -8q-12 34 -12 66.5t12 62.5q217 22 219 59q12 250 12 629q0 322 -10 557q-2 37 -223 59zM104 -6q170 6 349 6q213 0 409 -6q8 16 0 47q-332 20 -334 96q-10 281 -10 502 q113 -23 209 -23q164 -305 432 -616q51 0 147.5 -1t174 -2t147.5 -3q4 9 4 20.5t-4 26.5q-164 12 -276.5 80.5t-262.5 253.5q-102 129 -184 272q148 49 233 163t85 257q0 180 -116 291.5t-321 111.5q-338 -4 -508 -4t-172 4q-3 -12 -3 -24t3 -23q230 -22 232 -96 q10 -235 10 -559q0 -317 -12 -631q-2 -74 -232 -96q-4 -8 -4 -19.5t4 -27.5zM518 715q0 352 10 686h2q62 4 160 4q152 0 232.5 -94t80.5 -244q0 -152 -73.5 -263.5t-229.5 -111.5q-92 0 -182 23zM672 745q20 -6 61 -10q117 13 173 110t56 222q0 129 -78 217q-70 79 -179 79 q-12 0 -25 -1q-8 -385 -8 -617z" />
<glyph unicode="S" horiz-adv-x="1391" d="M98 555q47 23 100 23q48 0 101 -19q37 -227 143.5 -348t233.5 -135q119 8 183.5 77.5t64.5 176.5q0 90 -42 152.5t-111 97t-149.5 62.5t-162.5 59.5t-150.5 75.5t-110.5 123t-42 192q0 102 32.5 183t85 130t123 82t140 45t141.5 12q143 0 263 -40t216 -52 q-28 -97 -28 -201q0 -97 24 -200q-51 -43 -117 -50q-8 19 -28.5 79.5t-39 99.5t-51 89t-86 79.5t-122.5 40.5q-101 -9 -156 -62t-55 -137q0 -86 44 -141.5t114.5 -83t155.5 -48t169 -50t154.5 -77t114.5 -141.5t44 -229q0 -164 -95 -282t-224 -169t-264 -51q-297 0 -588 131 q6 129 6 158q0 162 -31 348zM143 532q27 -157 27 -325q0 -47 -4 -133q248 -115 473 -115q186 0 344 110.5t158 309.5q0 113 -44 191.5t-115 122.5t-156 76t-169 60.5t-154.5 63.5t-114.5 99.5t-44 156.5q0 129 87 206t247 77q278 0 383 -385q31 -5 43 14q-33 244 -144.5 343 t-281.5 99q-84 0 -163 -19.5t-153.5 -63.5t-119.5 -129t-45 -199q0 -101 42 -173.5t110.5 -112.5t150.5 -70.5t162.5 -61.5t149.5 -70t111 -108.5t42 -165.5q0 -133 -85 -215t-241 -82q-150 0 -279 125t-170 374q-20 13 -47 0z" />
<glyph unicode="T" horiz-adv-x="1735" d="M-16 1090q57 108 76.5 145t45 113.5t35.5 154.5h693h833q25 -196 156 -413q-23 -48 -107 -78q-82 149 -241.5 248.5t-413.5 99.5q-8 -248 -8 -588q0 -434 10 -633q2 -37 223 -59q8 -29 8 -57q0 -36 -12 -72q-324 8 -377 8q-80 0 -448 -8q-12 34 -12.5 66.5t12.5 62.5 q217 22 219 57q10 252 10 635q0 320 -8 582q-416 -54 -594 -342q-76 30 -100 78zM31 1090q8 -17 35 -27q71 117 110 173t92.5 107.5t98.5 51.5l350 10q10 -332 10 -633q0 -387 -10 -635q-2 -74 -233 -96q-8 -16 0 -47q170 6 350 6q213 0 409 -6q8 18 0 47q-332 20 -334 96 q-10 332 -10 635q0 385 10 633l154 -4q498 -12 672 -338q26 10 34 27q-100 204 -224 288t-369 84h-342q-109 0 -329 1t-327 1q-4 -34 -14 -71t-18.5 -62.5t-28 -67.5t-26.5 -56.5t-31.5 -62.5t-28.5 -54z" />
<glyph unicode="U" horiz-adv-x="1874" d="M20 1446q0 33 13 70q88 0 238.5 -5.5t209.5 -5.5q43 0 166 2t213 2q10 -30 10 -61q0 -29 -8 -62q-221 -22 -223 -59q-4 -70 -4 -731q0 -252 79 -372t263 -130q194 12 299.5 141.5t105.5 360.5q0 475 -6 715q-2 49 -215 80q-8 24 -8 49q0 30 14 71q283 -8 338 -8 q107 0 273 6q14 -43 14 -63q0 -31 -14 -62q-207 -20 -209 -73q-10 -193 -10 -715q0 -156 -41 -277.5t-104.5 -195.5t-147.5 -122t-162 -65.5t-158 -17.5q-160 0 -276.5 28.5t-213 100.5t-145.5 209t-49 340q0 489 -10 731q-2 37 -223 59q-9 31 -9 60zM61 1425q45 -4 74 -8 t71 -14t64.5 -29.5t22.5 -46.5q10 -317 10 -731q0 -190 46 -319.5t137.5 -197t200 -94t259.5 -26.5q74 0 147.5 16.5t151.5 61.5t137.5 114.5t97.5 184.5t38 260q0 479 10 717q4 88 221 108q4 8 4 20t-4 27q-188 -6 -268 -6q-125 0 -285 6q-8 -16 0 -47q219 -20 221 -108 q6 -240 6 -717q0 -262 -124.5 -402.5t-356.5 -140.5q-252 0 -356.5 129t-104.5 414q0 598 4 733q2 76 334 96q6 19 0 48q-262 -9 -409 -9q-123 0 -349 9q-4 -10 -4 -22t4 -26z" />
<glyph unicode="V" horiz-adv-x="1710" d="M-3 1384q-8 30 -8 58q0 36 12 71q270 -8 498 -8q163 0 305 4q10 -28 10 -60t-10 -67q-129 -10 -162 -22t-19 -49l343 -797l317 797q6 16 -8.5 28.5t-48 20.5t-67.5 13t-83 9q-7 29 -7 58q0 36 11 71q152 -6 297 -6q169 0 328 8q11 -35 11 -71q0 -29 -7 -58 q-100 -8 -158.5 -24.5t-77.5 -61.5l-550 -1368h-103l-592 1354q-37 82 -231 100zM30 1423q188 -18 235 -123l582 -1329h47l541 1342q28 57 88.5 79.5t152.5 30.5q4 14 4 26t-4 21q-131 -6 -268 -6q-131 0 -297 6q-8 -18 0 -47q45 -4 75.5 -8t74.5 -15t61.5 -34t5.5 -53 l-414 -1041l-442 1028q-10 24 -10 42q0 32 34 46q52 20 269 35q8 29 0 47q-148 -7 -331.5 -7t-403.5 7q-4 -9 -4 -21t4 -26z" />
<glyph unicode="W" horiz-adv-x="2251" d="M5 1384q-12 32 -12.5 62t12.5 57h663q12 -28 12 -57.5t-12 -61.5q-51 -2 -60 -24q-3 -6 -2 -15q0 -22 15 -61l308 -758l122 328l-172 432q-22 53 -54 73.5t-101 24.5q-12 32 -12 62t12 57h706q12 -28 12 -57.5t-12 -61.5q-108 -4 -141 -30q-22 -17 -22 -42q0 -13 6 -28 l286 -752l281 752q7 21 7 36q-1 26 -21 38q-34 18 -134 26q-12 32 -12 62t12 57h594q12 -28 12.5 -57.5t-12.5 -61.5q-151 -10 -194 -30q-45 -23 -64 -70l-512 -1354h-102l-268 691l-261 -691h-100l-559 1354q-20 49 -70.5 69.5t-150.5 30.5zM40 1423q180 -18 223 -123 l549 -1329h45l284 762l302 -762h45l508 1342q22 57 80.5 79.5t166.5 30.5q6 14 6.5 25.5t-6.5 21.5h-508q-12 -20 0 -47q119 -14 146 -37q21 -16 20 -41q0 -14 -6 -32l-389 -1047l-395 1034q-6 13 -6 25q0 35 53 59q70 30 229 39q13 27 0 47h-628q-13 -20 0 -47 q63 -6 99 -32.5t60 -90.5l176 -446l-219 -588l-420 1034q-15 31 -15 52q0 26 22 38q41 22 172 33q12 27 0 47h-594q-6 -10 -6 -21.5t6 -25.5z" />
<glyph unicode="X" horiz-adv-x="1630" d="M24 -49q-12 34 -12 66.5t12 62.5q164 14 226 96l397 539l-371 590l2 -2q-22 30 -64 48.5t-74 22.5t-93 10q-7 28 -7 57q0 36 11 72q243 -10 494 -10q157 0 317 4q10 -28 10.5 -58.5t-10.5 -64.5q-110 -4 -153 -20q-28 -11 -28 -30q0 -10 7 -23l178 -289l223 313 q9 13 0.5 22t-32 15t-41 9t-45.5 8l-29 2q-7 23 -7 48q0 35 13 74q121 -7 255.5 -7t283.5 7q10 -22 10 -64t-10 -65q-168 -14 -226 -96l-296 -416l438 -698q49 -78 250 -96q7 -28 7 -57q0 -36 -11 -72q-277 11 -528 11q-168 0 -324 -5q-12 30 -11.5 60.5t11.5 62.5 q163 6 196 18q35 13 21 33l-277 432l-313 -432q-12 -16 1 -27.5t45 -16.5t56.5 -7t52.5 -4q7 -24 7 -50q0 -35 -13 -73q-154 7 -291 7t-258 -7zM53 -6q115 6 248 6q115 0 244 -6q8 16 0 47q-140 16 -162 53q-14 25 8 60l352 483l305 -485q13 -19 14 -34.5t-16.5 -32 t-52.5 -25.5t-53 -12t-45 -5t-39 -3t-28 -1q-8 -16 0 -47q150 8 347 8q172 0 435 -8q4 9 4 20.5t-4 26.5q-269 18 -355 113l-401 639l375 522q65 94 229 110q10 23 0 47q-115 -6 -248 -6q-104 0 -233 6q-8 -16 0 -47q157 -20 160 -73q0 -17 -13 -37l-317 -447l-266 422 q-13 27 -15 46.5t19.5 34.5t47 24.5t66.5 15.5t78 9t84 5q8 17 0 47q-180 -8 -379 -8q-137 0 -362 8q-8 -18 0 -47q57 -6 88 -11t73 -26.5t70 -58.5l385 -614l-413 -561q-70 -97 -230 -111q-4 -8 -4 -19.5t4 -27.5z" />
<glyph unicode="Y" horiz-adv-x="1573" d="M-20 1444q0 31 12 67q211 -8 497 -8q207 0 306 4q10 -34 10 -59q0 -29 -10 -66q-107 -8 -148 -18t-41 -31q0 -6 244 -444q272 452 272 457q0 10 -12 18t-32.5 13t-38 7t-40 4.5t-26.5 2.5q-7 23 -7 48q0 33 13 72q184 -8 274 -8q84 0 244 8q11 -35 11 -66.5t-11 -60.5 q-154 -14 -203 -92l-338 -542q0 -406 11 -609q2 -37 223 -59q6 -26 6 -53q0 -36 -10 -74q-275 4 -414 4q-137 0 -412 -4q-16 29 -16 61t16 66q218 22 220 57q10 277 12 496l-373 649q-49 82 -231 100q-8 31 -8 60zM20 1423q177 -16 236 -123l377 -657q-2 -235 -12 -506 q-3 -74 -232 -96q-10 -25 0 -49q253 5 464 5q159 0 294 -3q8 20 0 49q-332 20 -334 94q-10 287 -10 445l457 731q59 96 208 110q4 9 4 20.5t-4 26.5q-112 -6 -227 -6q-104 0 -233 6q-9 -16 0 -47q147 -16 157 -65q4 -19 -12 -45l-362 -598l-328 585q-13 25 -13 44 q0 30 34 44q57 21 272 35q8 29 0 47q-148 -7 -332 -7t-404 7q-4 -9 -4 -20.5t4 -26.5z" />
<glyph unicode="Z" horiz-adv-x="1575" d="M37 45q232 328 460 656.5t451 658.5q-91 -5 -165 -15t-138 -28t-121.5 -44.5t-116.5 -63t-122 -84.5t-138 -109q-71 17 -96 71q177 186 250 424q129 -5 258 -6.5t260 -1.5t262 1.5t265 6.5q67 -22 67 -98q-256 -362 -484 -689.5t-427 -621.5h284q124 0 222 37.5 t171 102.5t122.5 153t78.5 189q80 -17 115 -62q-4 -15 -11.5 -43t-17 -63t-20.5 -74.5t-21 -77t-18 -71.5t-19 -87.5t-18 -146.5q-1122 0 -1294 -6q-6 5 -13 17t-13 26t-9.5 27.5t-3.5 21.5zM78 33q0 -25 14 -39q109 6 809 6q232 0 352.5 122t188.5 396q-17 14 -39 17 q-27 -97 -71 -175.5t-115.5 -148.5t-181 -110t-247.5 -40h-475q469 693 947 1364q0 33 -33 45q-190 -5 -414 -5t-481 5q-72 -225 -230 -391q13 -22 41 -22q174 162 267 309q28 2 247.5 19.5t370.5 19.5q-459 -682 -950 -1372z" />
<glyph unicode="[" horiz-adv-x="930" d="M225 -467v2128h649v-168h-296v-1792h296v-168h-649zM266 -426h496v86h-297v1874h297v86h-496v-2046z" />
<glyph unicode="\" horiz-adv-x="1374" d="M123 1661h299l835 -2128h-294zM184 1620l807 -2046h133l-802 2046h-138z" />
<glyph unicode="]" horiz-adv-x="930" d="M61 -299h297v1792h-297v168h650v-2128h-650v168zM102 -340v-86h496v2046h-496v-86h297v-1874h-297z" />
<glyph unicode="^" horiz-adv-x="1333" d="M86 1014l547 549h72l548 -549h-368l-217 215l-215 -215h-367zM184 1055h181l268 268l268 -268h182l-450 450z" />
<glyph unicode="_" horiz-adv-x="1364" d="M-20 -383h1411v-190h-1411v190zM20 -424v-108h1258v108h-1258z" />
<glyph unicode="`" horiz-adv-x="1100" d="M266 1382q0 58 35 92.5t92 34.5q146 0 195 -61l262 -326l-68 -94h-71l-394 250q-51 33 -51 104zM307 1382q0 -51 37 -73l354 -226l29 37l-242 301q-36 47 -92 47q-39 0 -62.5 -23.5t-23.5 -62.5z" />
<glyph unicode="a" horiz-adv-x="1145" d="M113 158q0 147 99 220t400 150v109q0 80 -33.5 117t-86.5 37q-113 0 -162 -64q47 -8 74.5 -36.5t27.5 -72.5q0 -53 -35 -87.5t-92 -34.5q-59 0 -107 42t-48 119q0 131 124.5 212t325.5 81q191 0 268.5 -76.5t77.5 -257.5v-350l64 2q82 -6 114 -78l-32 -55 q-31 -47 -51.5 -72.5t-58.5 -57.5t-89 -46t-119 -14q-84 0 -127 63q-108 -78 -282 -78q-76 0 -129.5 23.5t-78 62.5t-34.5 73t-10 69zM154 158q0 -68 46 -127.5t165 -59.5q47 0 88.5 15t86 48.5t54.5 42.5t33.5 31.5t25.5 24.5q13 -147 121 -147q27 0 62 14t70.5 55t45 54.5 t28.5 43t28 40.5q-13 28 -50 32q-54 -82 -109 -82h-3q-41 2 -41 58v415q0 160 -62.5 226.5t-214.5 66.5q-137 0 -237.5 -70.5t-100.5 -181.5q0 -57 35 -88.5t80 -31.5q14 20 0 47q-35 0 -49 51q-4 18 -4 36q0 60 53 107q68 60 205 60q65 0 104 -50.5t39 -150.5v-139 q-295 -76 -397 -143.5t-102 -196.5zM326 205q0 82 67.5 135t259.5 94v-209q-96 -127 -196 -127q-58 0 -94.5 28t-36.5 79zM467 205q0 -43 31 -60q53 19 114 93v122q-145 -53 -145 -155z" />
<glyph unicode="b" horiz-adv-x="1268" d="M3 1352q-11 31 -11 61q0 33 13 64q178 16 352 92q109 -8 162 -66v-606q104 53 272 53q172 0 280.5 -126t108.5 -339q0 -100 -28.5 -194t-88 -177t-164 -133.5t-241.5 -50.5q-291 0 -473 150q6 305 6 616.5t-6 628.5q-65 21 -182 27zM34 1391q135 -7 192 -41 q4 -373 4 -686t-4 -566q152 -127 361 -127q118 0 208.5 47.5t141.5 124t76.5 163.5t25.5 179q0 195 -89 309.5t-230 114.5q-174 0 -342 -151v735q-9 16 -35 27q-133 -64 -309 -82q-2 -16 -2 -27.5t2 -19.5zM378 680q114 98 245 98q119 0 180.5 -96t61.5 -244 q0 -217 -77 -309t-167 -92q-161 0 -239 119q-4 200 -4 524zM519 664q0 -302 4 -498q45 -74 129 -86q70 16 121 101t51 257q0 117 -43 200t-127 95q-70 -10 -135 -69z" />
<glyph unicode="c" horiz-adv-x="1090" d="M102 424q0 235 144.5 380.5t361.5 145.5q160 0 259.5 -71.5t99.5 -184.5q0 -69 -46.5 -110t-115.5 -41q-125 0 -125 110q0 70 86 101q-57 39 -119 45q-184 -27 -184 -375q0 -262 194 -285q117 15 228 160q67 -8 104 -55q-57 -156 -176 -235t-254 -79q-182 0 -319.5 124 t-137.5 370zM143 424q0 -225 124 -339t292 -114q123 0 228.5 66.5t154.5 200.5q-14 16 -39 22q-26 -37 -42.5 -54.5t-53.5 -49t-83 -46t-101 -14.5q-156 0 -228.5 91.5t-72.5 236.5q0 420 286 420q115 0 181.5 -38t66.5 -112q0 -61 -51 -76q-14 -26 0 -47q51 0 86 35t35 88 q0 94 -88 154.5t-230 60.5q-198 0 -331.5 -134t-133.5 -351z" />
<glyph unicode="d" horiz-adv-x="1298" d="M102 403q0 97 29 189t87 174t161.5 133t236.5 51q91 0 136 -4q-2 158 -2 379q-66 21 -183 27q-11 30 -11 61.5t11 65.5q140 12 355 90q108 -8 161 -66q0 -1141 9 -1364q2 -43 141 -59q16 -31 16 -61q0 -34 -20 -66q-128 4 -235.5 4t-194.5 -4q-37 16 -47 41 q-97 -64 -269 -64q-170 0 -275.5 127t-105.5 346zM164 403q0 -200 89 -316t214 -116q158 0 321 162q0 -84 -4 -108q11 -23 25 -31q33 2 65.5 4t52 3t34.5 1q55 0 235 -6q7 10 7 22t-7 25q-51 4 -77.5 8t-74 14.5t-71 28t-23.5 43.5q-8 223 -8 1356q-10 18 -35 27 q-133 -64 -309 -82q-6 -25 0 -47q135 -7 193 -41q0 -283 2 -473q-103 32 -177 32q-118 0 -208.5 -47t-141.5 -123.5t-76.5 -161.5t-25.5 -174zM338 442q0 119 24.5 204t64.5 125t78 56.5t77 16.5q141 0 211 -119v-145q0 -273 -2 -371q-111 -107 -211 -107 q-119 0 -180.5 96.5t-61.5 243.5zM451 442q0 -116 40.5 -197t122.5 -98q66 15 136 78q2 99 2 355v135q-50 71 -131 84q-70 -15 -120 -96.5t-50 -260.5z" />
<glyph unicode="e" horiz-adv-x="1106" d="M102 424q0 223 137.5 374.5t389.5 151.5q381 0 381 -317q0 -62 -29 -144h-537v-65q5 -121 66 -196.5t168 -88.5q63 6 104 43t101 125q63 -14 102 -63q-57 -156 -176 -235t-254 -79q-184 0 -318.5 124t-134.5 370zM143 424q0 -225 123 -339t289 -114q123 0 228.5 66.5 t154.5 200.5q-14 16 -39 22q-4 -6 -23.5 -32.5t-28.5 -38t-32.5 -33t-45 -31.5t-54.5 -19.5t-72 -9.5q-154 0 -245 91.5t-95 246.5q0 35 4 96h545q16 50 16 103q0 117 -66.5 196.5t-211.5 79.5q-189 0 -318 -137t-129 -348zM317 598q31 125 100.5 185.5t147.5 60.5 q80 0 116 -51.5t36 -128.5q0 -29 -10 -66h-390zM471 639h203q0 4 1 12t1 13q0 110 -74 133q-88 -27 -131 -158z" />
<glyph unicode="f" horiz-adv-x="848" d="M82 78q168 22 170 61q4 99 4 609h-123q-17 40 -17 78t17 75h123v64q0 249 129 422.5t368 173.5q121 0 204 -63.5t83 -168.5q0 -67 -46 -116.5t-120 -49.5q-61 0 -95 31t-34 78q0 84 60 108q-25 15 -72 15q-63 -11 -104 -64t-41 -133v-297h204q16 -40 16 -78.5t-16 -74.5 h-204q0 -467 8 -609q2 -39 135 -61q16 -31 16 -61q0 -34 -20 -66q-270 9 -456 9q-106 0 -185 -3q-20 31 -20 63q0 29 16 58zM123 -6q131 6 274 6t297 -6q14 20 0 47q-237 22 -240 96q-8 156 -8 651h307q7 16 7 34t-7 38h-307v291q0 121 84 212t203 91q100 0 144 -36t44 -85 q0 -71 -51 -88q-14 -20 0 -47q53 0 91 40t38 91q0 86 -70.5 138.5t-175.5 52.5q-219 0 -337.5 -161t-118.5 -394v-105h-135q-8 -16 -8 -34t8 -38h135q0 -552 -4 -651q-2 -74 -170 -96q-7 -13 -7 -25t7 -22z" />
<glyph unicode="g" horiz-adv-x="1159" d="M102 582q0 137 118 252.5t286 115.5q125 0 184.5 -13t149.5 -50q45 67 116 67q70 0 104 -41t34 -102q0 -59 -34 -100t-91 -41q8 -33 8 -74q0 -178 -113.5 -283.5t-277.5 -105.5h-125q-20 -23 -20 -42q0 -9 3 -17q13 -25 48 -25h335q320 0 320 -270q0 -72 -43 -151 t-120 -147.5t-202 -113.5t-270 -45q-195 0 -295 75.5t-100 190.5q0 127 133 236q-129 45 -129 168q0 106 131 215q-150 108 -150 301zM143 582q0 -199 181 -299q-162 -121 -162 -217q0 -121 192 -150q-196 -106 -196 -254q0 -96 90 -160.5t264 -64.5q207 0 350.5 137 t143.5 279q0 229 -279 229q-31 0 -82 -2t-70 -2q-153 0 -215.5 20.5t-62.5 65.5q0 57 88 94q61 -10 129 -10q135 0 228.5 94t93.5 254q0 127 -48 192l5 5q16 -11 43.5 -30.5t42 -27.5t38 -16t46.5 -8q38 0 64 29.5t26 70.5q0 43 -24.5 72.5t-72.5 29.5q-14 -26 0 -47 q27 -2 27 -28q0 -33 -41 -39q-6 -1 -12 -1q-32 0 -74 17q-27 10 -69 28.5t-59 26t-47 17.5t-51.5 13t-53 6t-70.5 3q-152 0 -257.5 -102t-105.5 -225zM313 -266q0 110 127 178q80 8 246 8q119 0 159 -44t40 -128q0 -72 -77 -149.5t-230 -77.5q-138 0 -201.5 62.5 t-63.5 150.5zM317 580q0 139 52.5 201.5t132.5 62.5q59 0 109.5 -56.5t50.5 -189.5q0 -285 -156 -285q-189 0 -189 267zM455 -266q0 -64 37.5 -112t121.5 -58q115 10 172.5 70.5t57.5 113.5q0 62 -28 96.5t-107 34.5q-95 0 -187 -8q-67 -57 -67 -137zM459 580 q0 -189 82 -220q80 31 80 238q0 164 -84 197q-78 -33 -78 -215z" />
<glyph unicode="h" horiz-adv-x="1331" d="M65 -38q-12 30 -12 60t12 61q164 22 166 61v1185q-67 21 -166 27q-11 30 -11 61.5t11 65.5q152 8 340 90q109 -8 162 -66v-651q141 94 326 94q135 0 192.5 -73.5t59.5 -231.5q4 -392 10 -503q2 -41 141 -59q11 -30 10 -58q0 -33 -14 -63q-146 3 -293 3l-293 -3 q-12 30 -12 60t12 61q33 0 67 17.5t34 41.5l2 470q0 109 -43 133q-74 -18 -199 -108q0 -270 8 -493q4 -53 80 -61q12 -31 12.5 -61t-12.5 -60q-146 5 -294 5t-296 -5zM100 -3q131 5 261.5 5t260.5 -5q13 26 0 49q-186 20 -188 96q-8 213 -8 474q200 177 315 177 q109 0 109 -181l-2 -470q0 -49 -30 -68.5t-79 -27.5q-12 -23 0 -49q130 3 260 3l260 -3q8 12 7.5 24.5t-7.5 24.5q-243 12 -245 96l-11 503q-4 137 -44 200.5t-138 63.5q-166 0 -395 -229v817q-8 16 -35 27q-139 -66 -289 -82q-3 -12 -3 -24t3 -23q115 -6 170 -41v-1212 q-2 -74 -172 -96q-6 -12 -6 -24t6 -25z" />
<glyph unicode="i" horiz-adv-x="780" d="M74 -38q-8 30 -8 60t8 61q163 16 165 61q7 152 7 305q0 130 -5 262q-67 20 -167 26q-12 30 -12 61.5t12 65.5q151 8 340 90q108 -8 161 -65q-1 -123 -1 -231q0 -324 9 -514q3 -45 136 -61q8 -31 8 -61t-8 -60q-161 5 -322 5t-323 -5zM110 -3q144 3 287 3t285 -3 q5 12 5 24.5t-5 24.5q-238 22 -240 96q-8 250 -8 595v142q-8 16 -35 26q-139 -65 -289 -82q-3 -12 -3 -23.5t3 -23.5q113 -6 172 -41q4 -168 4 -305q0 -167 -6 -288q-2 -74 -170 -96q-5 -12 -5 -24.5t5 -24.5zM207 1241q0 33 13 63t35 52.5t51.5 35.5t63.5 13 q226 0 226 -164t-226 -164q-34 0 -63.5 13t-51.5 35.5t-35 52.5t-13 63zM248 1241q0 -26 8.5 -48.5t23.5 -39t34.5 -26t41.5 -9.5q21 0 41 9.5t35 26t24 39t9 48.5t-9 48.5t-24 39t-35 26t-41 9.5t-41 -9t-37 -28q-30 -35 -30 -86z" />
<glyph unicode="j" horiz-adv-x="737" d="M-143 -358q0 75 46 124.5t124 49.5q133 0 133 -129q0 -107 -94 -138q26 -7 48 -7q56 0 80 46q35 62 35 176v947q-65 20 -182 26q-11 30 -11 61.5t11 65.5q168 10 354 90q109 -8 162 -65v-961v-14q0 -125 -35 -234q-36 -116 -128.5 -200t-227.5 -84q-149 0 -232 68.5 t-83 177.5zM-98 -370.5q0 -69.5 52 -131t140 -61.5q94 0 162 43t102.5 117.5t49 155.5t14.5 175v951q-8 16 -35 26q-133 -63 -309 -82q-6 -24 0 -47q135 -6 192 -41q8 -237 8 -479.5t-8 -491.5q-4 -145 -43 -203.5t-125 -58.5q-61 0 -95 42t-34 94q0 73 52 90q14 20 0 47 q-54 0 -88.5 -38t-34.5 -107.5zM195 1241.5q0 67.5 48 115.5t115 48q226 0 226 -164t-226 -164q-67 0 -115 48.5t-48 116zM236 1241q0 -26 8.5 -48.5t23.5 -39t34.5 -26t41.5 -9.5q21 0 41 9.5t35 26t24 39t9 48.5t-9 48.5t-24 39t-35 26t-41 9.5t-41 -9t-37 -28 q-30 -35 -30 -86z" />
<glyph unicode="k" horiz-adv-x="1225" d="M63 1352q-11 30 -11 61.5t11 65.5q140 12 355 90q108 -8 161 -66v-837l115 108q14 14 -2 21q-8 2 -66 12q-14 27 -14 56q0 32 17 65q123 -5 230 -5q129 0 236 7q13 -33 13 -67q0 -30 -10 -62q-187 -19 -254 -86l-95 -97l363 -456q33 -41 58.5 -57.5t78.5 -26.5 q11 -30 11 -58q0 -33 -15 -63q-102 6 -236 6t-299 -6q-17 36 -17 71q0 25 9 50q43 9 43 36q0 10 -6 23l-158 201q0 -129 7 -201q4 -47 51 -59q9 -24 9 -51q0 -33 -13 -70q-136 3 -273.5 3t-275.5 -3q-22 32 -22 64q0 29 18 57q159 20 162 61q4 99 4 441q0 84 -1 251.5 t-1 241.5v252q-66 21 -183 27zM94 1391q135 -7 193 -41q0 -125 3 -376t3 -451.5t-9 -385.5q-2 -74 -170 -96q-12 -25 0 -47q132 6 254 6q119 0 250 -6q13 22 0 47q-172 22 -172 96q-6 111 -6 350h78l272 -350q19 -25 19 -43q0 -38 -84 -47q-12 -24 0 -47h229q113 0 254 -6 q6 11 6 22.5t-6 24.5q-127 14 -178 49q-29 19 -51 47l-340 428l176 178q76 78 252 97q8 24 0 47q-112 -6 -216.5 -6.5t-203.5 6.5q-12 -27 0 -47q31 -4 57.5 -15.5t37.5 -33t-19 -48.5l-203 -192h-80q-2 297 -2 942q-10 18 -35 27q-133 -64 -309 -82q-3 -12 -3 -24t3 -23z " />
<glyph unicode="l" horiz-adv-x="770" d="M63 -38q-8 30 -8 60t8 61q164 16 166 61q7 320 7 642q0 269 -5 539q-67 21 -168 27q-11 30 -11 61.5t11 65.5q152 8 340 90q109 -8 162 -66q-1 -223 -1 -419q0 -589 9 -940q2 -45 135 -61q8 -31 8.5 -61t-8.5 -60q-192 4 -353.5 4t-291.5 -4zM100 -3q116 4 259 4t313 -4 q5 12 5 24.5t-5 24.5q-238 22 -240 96q-8 462 -8 1092v259q-8 16 -35 27q-139 -66 -289 -82q-3 -12 -3 -24t3 -23q113 -7 172 -41q4 -334 4 -610q0 -345 -6 -598q-2 -74 -170 -96q-5 -12 -5 -24.5t5 -24.5z" />
<glyph unicode="m" horiz-adv-x="1886" d="M76 -38q-12 30 -12 60t12 61q163 22 165 61q4 112 4.5 254t-4.5 313q-67 20 -165 26q-12 30 -12 61.5t12 65.5q151 8 340 90q108 -8 161 -65v-33q70 49 134.5 71.5t170.5 22.5q164 0 220 -119q98 72 163.5 95.5t178.5 23.5q137 0 194.5 -74.5t57.5 -230.5q0 -297 10 -503 q2 -41 141 -59q11 -30 11 -58q0 -33 -15 -63q-146 3 -292.5 3t-291.5 -3q-12 30 -12 60t12 61q33 0 66 17.5t33 41.5l2 470q0 109 -43 133q-82 -20 -183 -108q0 -289 11 -495q2 -53 67 -59q12 -31 12 -61t-12 -60q-128 3 -256.5 3t-257.5 -3q-12 30 -12 60t12 61 q98 14 98 59l2 470q0 109 -43 133q-88 -22 -178 -108q0 -275 8 -493q3 -26 15 -39.5t53 -21.5q12 -31 12.5 -61t-12.5 -60q-144 4 -288 4t-289 -4zM110 -3q128 4 255.5 4t254.5 -4q13 26 0 49q-174 20 -176 96q-8 208 -8 474q104 91 170 134t125 43q108 0 108 -181l-2 -470 q0 -78 -106 -96q-12 -23 0 -49q112 3 224.5 3t223.5 -3q13 26 0 49q-53 4 -85.5 11t-61.5 28.5t-29 56.5l-10 474q104 91 170 134t125 43q108 0 108 -181l-2 -470q0 -78 -106 -96q-12 -23 0 -49q129 3 258.5 3t259.5 -3q7 12 7 24.5t-7 24.5q-244 12 -246 96l-10 503 q-4 137 -44 200.5t-138 63.5q-68 0 -140.5 -37.5t-117.5 -77.5t-119 -114q-6 119 -47 174t-133 55q-68 0 -140.5 -39t-115.5 -76.5t-119 -113.5v199q-8 16 -35 26q-139 -65 -289 -82q-3 -12 -3 -23.5t3 -23.5q115 -6 170 -41q4 -150 4 -298t-4 -295q-2 -74 -172 -96 q-6 -12 -6 -24t6 -25z" />
<glyph unicode="n" horiz-adv-x="1348" d="M76 -38q-12 30 -12 60t12 61q163 22 165 61q6 141 5.5 282.5t-5.5 284.5q-67 20 -165 26q-12 30 -12 61.5t12 65.5q151 8 340 90q108 -8 161 -65v-33q142 94 326 94q135 0 192.5 -73.5t59.5 -231.5q4 -397 10 -503q2 -41 141 -59q11 -30 11 -58q0 -33 -15 -63 q-146 3 -292.5 3t-292.5 -3q-12 30 -12.5 60t12.5 61q32 0 66 17.5t34 41.5l2 470q0 109 -43 133q-74 -18 -199 -108q0 -275 8 -493q5 -53 80 -61q12 -31 12.5 -61t-12.5 -60q-146 5 -293.5 5t-295.5 -5zM110 -3q130 5 261 5t262 -5q12 26 0 49q-187 20 -189 96 q-8 208 -8 474q201 177 315 177q109 0 109 -181l-2 -470q0 -49 -30 -68.5t-79 -27.5q-12 -23 0 -49q130 3 260.5 3t260.5 -3q7 12 7 24.5t-7 24.5q-244 12 -246 96l-10 503q-5 137 -44.5 200.5t-138.5 63.5q-166 0 -395 -229v199q-8 16 -35 26q-139 -65 -289 -82 q-3 -12 -3 -23.5t3 -23.5q115 -6 170 -41q6 -150 6 -298t-6 -295q-2 -74 -172 -96q-6 -12 -6 -24t6 -25z" />
<glyph unicode="o" horiz-adv-x="1212" d="M102 440q0 113 34 207t99 161.5t159 104.5t214 37q121 0 215.5 -37t159.5 -104.5t99 -161.5t34 -207q0 -112 -34 -206t-98.5 -161.5t-159.5 -105t-216 -37.5q-120 0 -214.5 37.5t-159 105t-98.5 161t-34 206.5zM143 440q0 -103 30 -189t85.5 -148.5t135.5 -97t179 -34.5 q93 0 167 35t126.5 97.5t80.5 148.5t28 188t-28 188t-80.5 148.5t-126.5 97.5t-167 35q-99 0 -179 -35t-135.5 -97t-85.5 -148.5t-30 -188.5zM322 440q0 103 18 179.5t50.5 126t79 74t103.5 24.5q103 0 163.5 -98.5t60.5 -305.5t-60.5 -305t-163.5 -98q-57 0 -103.5 24 t-79 74t-50.5 125.5t-18 179.5zM463 440q0 -323 145 -358q148 35 148 358q0 320 -148 359q-145 -39 -145 -359z" />
<glyph unicode="p" horiz-adv-x="1274" d="M14 864q195 17 352 97q109 -9 162 -66q94 55 273 55q172 0 280.5 -126t108.5 -339q0 -100 -30 -194t-88 -177t-161.5 -133.5t-236.5 -50.5q-86 0 -140 4l6 -327q2 -39 136 -62q13 -29 13 -60.5t-13 -64.5q-240 9 -422 9q-121 0 -217 -4q-11 31 -11 61t11 59 q157 21 159 62l2 1104q-65 20 -182 26q-14 31 -14 64q0 31 12 63zM45 776h2q135 -6 192 -41q0 -766 -2 -1130q-2 -74 -170 -97q-6 -22 0 -47q131 7 274 7t298 -7q12 23 0 47q-238 23 -240 97l-6 401q98 -35 209 -35q117 0 206 47.5t139 124t75.5 163.5t25.5 179 q0 195 -89 309.5t-230 114.5q-172 0 -338 -147v117q-8 16 -35 26q-133 -63 -309 -82q-5 -13 -5 -26q0 -10 3 -21zM391 164v520q115 94 242 94q118 0 179.5 -96t61.5 -244q0 -217 -76.5 -309t-166.5 -92q-172 0 -240 127zM532 170q39 -76 125 -90q72 14 124 98t52 260 q0 117 -43 199t-125 96q-69 -10 -133 -67v-496z" />
<glyph unicode="q" horiz-adv-x="1251" d="M102 403q0 97 29 188t88.5 175t170 134t257.5 50q219 0 387 -65q43 -17 60 -70q0 -997 8 -1208q2 -45 135 -62q8 -31 8 -61t-8 -59q-162 5 -323.5 5t-321.5 -5q-8 29 -8 59t8 61q164 17 166 62q4 96 4 391q-100 -68 -240 -68q-196 0 -308 125t-112 348zM143 403 q0 -200 97.5 -316t251.5 -116q141 0 311 179q0 -447 -4 -545q-2 -74 -170 -97q-11 -24 0 -49q142 3 284.5 3t286.5 -3q5 13 5 25t-5 24q-237 23 -239 97q-9 223 -9 1200q0 26 -30 39q-150 65 -297 65q-125 0 -222.5 -47t-151.5 -123.5t-81 -161.5t-27 -174zM317 442 q0 119 28 204t73 125t87 56.5t85 16.5q141 0 211 -129q0 -291 2 -488q-121 -125 -215 -125q-133 0 -202 96.5t-69 243.5zM459 442q0 -114 41 -195t118 -100q64 17 144 97q-2 192 -2 458q-47 82 -129 97q-70 -15 -121 -96.5t-51 -260.5z" />
<glyph unicode="r" horiz-adv-x="1006" d="M74 737q-12 30 -12 61.5t12 65.5q167 10 354 90q108 -12 162 -65q84 61 151 61q78 0 127 -46t49 -128q0 -78 -46 -122t-118 -44q-67 0 -112 45q-41 -55 -51 -100q0 -217 8 -416q2 -39 135 -61q16 -31 16 -61q0 -34 -20 -66q-270 9 -456 9q-106 0 -185 -3q-20 31 -20 63 q0 29 16 58q168 22 170 61q7 155 7 312q0 130 -5 260q-66 20 -182 26zM104 776q135 -6 193 -41q4 -166 4 -302q0 -171 -6 -296q-2 -74 -170 -96q-15 -27 0 -47q131 6 274 6t297 -6q14 20 0 47q-237 22 -239 96q-9 203 -9 426q25 92 103 179t159 87q95 0 95 -61 q0 -55 -52 -70q-14 -20 0 -47q54 0 88.5 33t34.5 92q0 62 -37.5 97.5t-97.5 35.5q-78 0 -156.5 -62.5t-136.5 -139.5v172q-8 16 -34 26q-134 -63 -310 -82q-3 -12 -3 -23.5t3 -23.5z" />
<glyph unicode="s" horiz-adv-x="1004" d="M98 8q2 6 6 41t8.5 82t7.5 97t3 85q47 22 145 22h22t23 -1q72 -234 197 -254q51 8 78.5 37.5t27.5 66.5q0 27 -15 50.5t-40 43.5t-58.5 37t-70.5 33.5t-75 32t-73 32.5q-37 17 -70 41.5t-58 56t-39.5 69.5t-14.5 82q0 47 16 98t55 93t105 69.5t166 27.5q111 0 164 -12 l37 12h68q13 -85 31.5 -159t41.5 -138q-43 -43 -104 -43q-34 40 -63 72.5t-55.5 56.5t-52 39t-52.5 21q-66 -11 -66 -60q0 -39 34 -68t85 -53t111.5 -45.5t114.5 -45.5q39 -17 73.5 -44t60.5 -62.5t41 -79t15 -93.5q0 -74 -37.5 -133t-99 -100t-140.5 -63t-161 -22 q-141 0 -236 58q-48 -16 -94 -39q-47 29 -62 59zM143 12q7 -10 19 -18q41 29 63 61q88 -49 137.5 -66.5t120.5 -17.5q125 0 214 74t89 166q0 90 -55 155.5t-133 101.5t-157 66.5t-134 71.5t-55 96q0 70 52 106t122 36q74 0 132 -46t142 -147q27 0 39 13 q-37 106 -109.5 175.5t-185.5 69.5q-161 0 -231 -76.5t-70 -170.5q0 -80 53.5 -136.5t129 -87t150.5 -60.5t128 -78t53 -116q0 -57 -49 -102t-137 -45q-106 0 -163.5 67.5t-96.5 188.5q-35 0 -47 -6q0 -72 -7 -165t-14 -110z" />
<glyph unicode="t" horiz-adv-x="907" d="M74 748q-8 26 -8 54t8 56q61 35 93 57.5t80 73.5t85 123q45 19 96 18q57 0 123 -22v-207h291q16 -37 16 -75t-16 -78h-291v-494q0 -96 69 -113q60 13 134 82q63 -8 90 -69q-52 -95 -151 -159.5t-214 -64.5q-282 0 -282 334v484h-123zM115 788h122v-524q0 -293 242 -293 q103 0 190 53.5t130 131.5q-9 22 -33 24q-94 -84 -182 -84q-174 0 -174 158v534h393q7 20 7 38t-7 34h-393v219q-12 5 -25 5l-25 -5q-37 -69 -82 -120.5t-75.5 -72t-87.5 -52.5q-4 -10 -4 -22t4 -24z" />
<glyph unicode="u" horiz-adv-x="1352" d="M57 803q-11 30 -11 60.5t11 60.5h434q29 -11 41.5 -24t22.5 -38q0 -18 -5 -57t-5 -62q-4 -116 -3.5 -235t3.5 -240q4 -114 41 -133q73 19 200 107q4 125 4 250.5t-4 250.5q0 35 -151 60q-12 30 -11.5 60.5t11.5 60.5h432q28 -11 40.5 -24t22.5 -38q0 -18 -5 -57t-5 -62 q-5 -164 -5 -307.5t5 -265.5q72 -23 152 -27q11 -30 11 -61.5t-11 -65.5q-131 -8 -324 -90q-109 8 -162 66v26q-137 -88 -325 -88q-136 0 -193 74t-59 232q1 126 1 252.5t-1 254.5q0 35 -152 60zM90 840q158 -25 160 -97q1 -127 1 -254t-1 -253v-11q0 -127 47 -189 q49 -64 164 -65q151 0 366 187v-146q8 -16 35 -26q143 53 371 71q4 12 4 24t-4 23q-172 7 -254 41q-4 178 -4 327.5t4 270.5q0 27 5 65t5 48q-10 23 -29 31q-72 -4 -145.5 -4t-147.5 4q-8 -23 0 -47q158 -25 160 -97q3 -130 3 -260.5t-3 -261.5q-186 -133 -287 -133 q-137 0 -137 180q-3 121 -3 239.5t3 235.5q0 27 5.5 65t5.5 48q-11 23 -29 31q-74 -5 -147.5 -5t-147.5 5q-4 -12 -4 -23.5t4 -23.5z" />
<glyph unicode="v" horiz-adv-x="1083" d="M-38 803q-12 30 -12 60.5t12 60.5q156 -6 311 -6l311 6q12 -34 12 -64t-12 -57q-65 -10 -86.5 -23.5t-9.5 -48.5l109 -293l123 293q16 37 -2.5 49.5t-83.5 22.5q-12 30 -12 60.5t12 60.5q106 -3 210.5 -3t208.5 3q12 -30 11.5 -60t-11.5 -61q-75 -6 -107 -22.5t-48 -53.5 l-352 -797h-105l-313 799q-15 35 -52.5 50.5t-113.5 23.5zM-7 840q75 -9 114 -27t60 -70l303 -772h49l342 772q43 91 162 97q5 10 5 22t-5 25q-89 -3 -179 -3t-180 3q-10 -27 0 -47q39 -2 62.5 -9.5t43 -29t-0.5 -58.5l-232 -548l-198 548q-11 27 0.5 45.5t46.5 28.5 t71.5 14.5t96.5 8.5q10 20 0 47q-140 -5 -280.5 -5t-280.5 5q-6 -14 -6 -25.5t6 -21.5z" />
<glyph unicode="w" horiz-adv-x="1591" d="M-34 924h541q13 -33 13 -62q0 -32 -15 -59q-42 -3 -42 -36q0 -14 7 -32l129 -315l98 215l-39 98q-22 55 -100 70q-15 27 -15 59q0 29 13 62h557q16 -32 16.5 -62t-16.5 -59q-25 -2 -35 -4t-29.5 -5t-24.5 -7.5t-15.5 -11.5t-6.5 -16t4 -24l111 -299l127 299 q14 33 -5.5 47.5t-74.5 20.5q-16 28 -16 58.5t16 62.5h397q15 -30 15 -59q0 -31 -17 -62q-67 -4 -98 -21.5t-45 -54.5l-346 -797h-102l-193 498l-223 -498h-103l-327 797q-15 35 -47.5 49.5t-106.5 26.5q-15 27 -15 59q0 29 13 62zM-5 840q133 -21 166 -97l317 -772h47 l254 561l217 -561h47l336 772q37 88 154 97q5 12 5 24t-5 23h-340q-10 -23 0 -47q28 -2 47.5 -7.5t38 -15.5t19.5 -27.5t-7 -46.5l-215 -510h-4l-184 510q0 15 -5.5 27t5 21.5t14.5 15.5t22.5 11t31 8t38 6.5t43 4.5t47.5 3q10 24 0 47h-499q-11 -23 0 -47q90 -17 114 -97 l41 -108l-182 -402h-4l-205 510q-5 13 -5 24q0 23 22 37q34 20 112 36q10 24 0 47h-483q-6 -12 -6 -23.5t6 -23.5z" />
<glyph unicode="x" horiz-adv-x="1116" d="M1 -43q-10 30 -10.5 60t10.5 61q117 4 182 86l213 264l-182 260q-39 53 -77 75.5t-122 45.5q-10 28 -10 57q0 32 12 64q138 -6 275 -6t272 6q12 -33 12 -65q0 -29 -10 -56q-37 -6 -41 -21.5t14 -39.5l72 -101l78 103q23 28 9.5 40.5t-73.5 18.5q-8 28 -8 56q0 33 11 65 q105 -5 209.5 -5t209.5 5q12 -30 12 -60t-12 -61q-73 -2 -113 -25.5t-75 -68.5l-154 -197l232 -319q65 -88 157 -121q15 -31 15 -60q0 -31 -17 -61q-141 6 -282.5 6t-284.5 -6q-12 33 -12 65q0 29 10 56q66 6 82 19.5t-6 49.5l-111 148l-127 -160q-14 -16 -15 -27.5 t11 -16.5t24.5 -8t41.5 -5q10 -28 10 -56q0 -32 -12 -65q-104 5 -209 5t-211 -5zM32 -6q90 5 179.5 5t178.5 -5q6 24 0 47q-35 2 -59.5 11t-37 29.5t16.5 55.5l182 230l144 -197q33 -47 33 -75q1 -11 -5 -19q-20 -28 -108 -35q-6 -23 0 -49q125 7 251.5 7t254.5 -7 q6 12 6 24t-6 25q-117 20 -167 44t-93 91l-199 277l227 290q76 99 187 103q8 22 0 47q-90 -5 -179.5 -5t-179.5 5q-8 -23 0 -47q35 -2 59.5 -11.5t37 -30t-16.5 -54.5l-178 -240l-168 233q-17 25 -17 43q0 20 22 32q42 22 136 28q2 6 2 24.5t-2 24.5q-114 -6 -235 -6t-250 6 q-6 -25 0 -49q37 -6 56.5 -11.5t53 -28t62.5 -63.5l229 -317l-233 -289q-74 -92 -184 -96q-4 -12 -4 -23.5t4 -23.5z" />
<glyph unicode="y" horiz-adv-x="1032" d="M-70 924q169 -6 323.5 -6t293.5 6q9 -29 9 -57q0 -33 -13 -64q-60 -4 -81.5 -18.5t-6.5 -49.5l122 -299l113 299q12 31 -6.5 48.5t-83.5 19.5q-14 31 -14 64q0 28 10 57q41 -2 148.5 -2t281.5 2q9 -29 9 -57q0 -33 -13 -64q-125 -6 -156 -76l-307 -739l-109 -289 q-65 -174 -132.5 -238.5t-168.5 -64.5q-84 0 -135 51t-51 127q0 74 51 125t125 51q88 0 141 -67l121 319l-303 725q-22 59 -164 76q-14 31 -14 64q0 28 10 57zM-39 840q139 -17 174 -97l311 -743l-110 -285q-33 -92 -79 -144t-95 -52q-82 0 -82 82q0 53 39 61q14 23 0 47 q-50 0 -82.5 -33.5t-32.5 -93.5q0 -65 44 -105t112 -40q82 0 136 57t116 219l108 291l309 739q39 91 166 97q5 10 5 22t-5 25q-111 -5 -203 -5t-165 5q-11 -27 0 -47q38 -2 64 -8.5t43 -29t3 -59.5l-209 -550l-211 526q-5 14 -5 26q0 38 50 61q68 30 154 34q10 20 0 47 q-150 -7 -288.5 -7t-266.5 7q-5 -13 -5 -25t5 -22z" />
<glyph unicode="z" horiz-adv-x="1059" d="M57 43l492 741q-107 -6 -214.5 -56t-154.5 -146q-20 0 -57 15t-49 28l84 305q190 -10 389 -10q178 0 362 8q43 -43 43 -92l-479 -723h72q57 0 100 15t79 53t58.5 72t61.5 103q51 0 104 -26l-76 -379q-376 8 -413 8q-273 0 -342 -6q-43 24 -60 90zM102 35q9 -29 27 -41 q174 6 358 6q62 0 108 7t112.5 34t116.5 94.5t77 171.5q-16 8 -35 8q-39 -69 -61.5 -102t-61 -72t-86 -54t-112.5 -15h-250l516 778q0 18 -18 37q-134 -8 -297 -8q-162 0 -308 8l-69 -250q14 -14 35 -14l98 184q86 18 242 18h133z" />
<glyph unicode="{" horiz-adv-x="913" d="M82 522v164q75 11 122.5 43t74.5 78.5t37 104.5t10 122l-7 197q0 30 1 61.5t4.5 62.5t11.5 60t23 55q22 39 53 73t85.5 61.5t140 47t216.5 29.5l35 -129q-39 -5 -76.5 -17t-67 -32t-47.5 -48.5t-18 -66.5q17 -341 17 -349q0 -287 -271 -435q271 -148 271 -435 q0 -8 -0.5 -17t-16.5 -332q0 -38 18 -66.5t47.5 -48.5t67 -32t76.5 -17l-35 -129q-169 12 -240 34q-101 29 -159.5 71t-88.5 95t-38.5 116t-8.5 134l7 197q0 30 -1.5 53.5t-5 46t-10.5 46.5t-17 54q-21 60 -74 98t-136 50zM123 559q67 -10 115.5 -42t73 -69.5t37.5 -94 t15.5 -92.5t2.5 -87l-7 -197q0 -47 2.5 -75.5t11.5 -70.5t26.5 -70.5t50 -61.5t80 -55.5t119 -42t163.5 -29.5l14 49q-116 10 -206.5 60.5t-81.5 148.5l16 305q18 334 -328 469q90 35 156 86t97.5 98.5t50 107.5t21.5 96t3 81q0 68 -8 170.5t-8 134.5q0 99 87 149t201 60 l-14 49q-92 -10 -163.5 -29.5t-119 -42t-80 -55t-50 -61.5t-26.5 -71t-11.5 -70.5t-2.5 -75.5l7 -197q0 -51 -2.5 -87t-15.5 -92t-37.5 -94t-73 -70t-115.5 -42v-90z" />
<glyph unicode="|" horiz-adv-x="551" d="M143 -518v2376h271v-2376h-271zM184 -477h117v2294h-117v-2294z" />
<glyph unicode="}" horiz-adv-x="913" d="M31 -344q39 5 76.5 17t67 32t47.5 48.5t18 76.5q-18 314 -18 323.5v18.5q0 288 270 432q-270 145 -270 435v16.5t18 332.5q0 38 -18 66.5t-47.5 48.5t-67 32t-76.5 17l35 129q123 -9 202 -26t130.5 -39.5t83 -50t55.5 -56.5t36.5 -61.5t18.5 -64.5t7.5 -60.5t0.5 -91.5 q-6 -205 -6.5 -211.5t-0.5 -13.5q0 -287 245 -320v-164q-245 -33 -245 -321q0 -7 0.5 -13.5t6.5 -210.5q0 -12 0.5 -38t-1 -54.5t-7.5 -60.5t-18.5 -64.5t-37 -61t-55.5 -56t-82 -50t-130.5 -39.5t-202.5 -26zM82 -379l14 -49q117 17 188.5 51t110 83t51.5 111t13 160 q-7 206 -7 214.5v16.5q0 318 244 351v90q-244 33 -244 351v16.5t7 214.5q0 60 -1.5 87.5t-7.5 59t-12 48.5t-22 48q-67 126 -320 162l-14 -49q37 -5 72.5 -18.5t63.5 -37t45.5 -57.5t17.5 -79q-18 -347 -18 -355q0 -309 329 -436q-329 -129 -329 -436q0 -8 18 -338 q0 -62 -17.5 -96t-45.5 -57.5t-63.5 -37t-72.5 -18.5z" />
<glyph unicode="~" horiz-adv-x="1485" d="M145 416q15 37 32.5 72.5t51 85t73.5 84t100.5 60t129.5 25.5q99 0 182 -23.5t165 -59t129 -48.5q77 21 114 156h236q-43 -190 -164 -299t-303 -109q-84 0 -221.5 62.5t-184.5 75.5q-67 -19 -123 -138h-178zM184 401h80q35 72 77 107t108 35q26 0 59 -9.5t55.5 -18.5 t61.5 -27.5t57 -26.5q127 -60 209 -60q119 0 216 89.5t128 236.5h-82q-43 -160 -178 -160q-66 0 -156 45q-172 90 -287 90q-73 0 -136.5 -32.5t-105.5 -85t-65.5 -95.5t-40.5 -88z" />
<glyph unicode="&#xa1;" horiz-adv-x="823" d="M211 90q0 78 25 264q45 355 57 637l8 180h227l11 -180q12 -219 53 -594q26 -235 26 -307q0 -94 -64.5 -125t-174.5 -31q-23 0 -46.5 5.5t-54 19.5t-49 48t-18.5 83zM213 1380q0 34 13 63.5t35.5 52t52 35.5t63.5 13q225 0 225 -164q0 -163 -225 -163q-33 0 -63 13 t-52.5 35t-35.5 51.5t-13 63.5zM252 90q0 -38 13 -60.5t31 -34.5t37 -16t31 -4q10 0 29 3.5t38 15t32.5 34.5t13.5 62q0 14 -4.5 66.5t-12 128t-17 167.5t-18.5 187.5t-16.5 186t-11.5 163.5l-8 141h-49l-6 -141q-3 -77 -10.5 -170.5t-16.5 -190t-19 -189l-18 -166.5 t-13 -123.5t-5 -59.5zM254 1380q0 -26 8.5 -48t23 -39t34 -26.5t42.5 -9.5t43 10t34.5 27t23 39t8.5 47q0 26 -8.5 48.5t-23.5 39t-35 26t-42 9.5q-46 0 -77 -37q-31 -34 -31 -86z" />
<glyph unicode="&#xa2;" d="M133 424q0 207 104.5 343t278.5 171v154h232v-144q114 -26 181.5 -89.5t67.5 -164.5q0 -71 -47 -117.5t-114 -46.5q-54 0 -88 23v-401q108 38 172 151q53 -8 100 -59q-39 -133 -111.5 -210t-160.5 -97v-142h-232v139q-162 23 -272.5 146t-110.5 344zM174 424 q0 -215 112.5 -327.5t270.5 -123.5v-137h78v137q110 13 201.5 78.5t136.5 186.5q-15 16 -39 22q-27 -35 -44.5 -54.5t-55 -51t-88 -47t-111.5 -15.5v744q115 0 184.5 -39t69.5 -90q0 -72 -66 -86q-10 -25 0 -50q58 0 95.5 35t37.5 88q0 92 -91 152.5t-230 62.5v142h-78v-148 q-170 -24 -276.5 -153t-106.5 -326zM348 424q0 352 209 410v-728q-209 58 -209 318zM469 424q0 -98 47 -158v377q-31 -43 -39 -86t-8 -133z" />
<glyph unicode="&#xa3;" d="M-84 653v170l203 -8q0 189 34.5 327t86 214t128 120t141 56t146.5 12q76 0 212.5 -27.5t176.5 -33.5q-40 -172 7 -385q-37 -45 -115 -45q-25 71 -32 92.5t-27.5 74t-35 70t-38 45t-50 38.5t-61.5 16q-74 -11 -121 -57t-68.5 -133t-27.5 -171t-6 -213l367 8v-170l-367 2 q0 -317 6 -553h96q95 0 169.5 27t126 78t84 101t65.5 122q74 0 102 -55q-86 -180 -110 -418h-1088l-2 123q188 22 191 59q10 260 10 518zM-51 -8h643q194 0 308 98t173 283q-8 16 -33 16q-36 -78 -65 -125t-82 -99t-132 -78t-186 -26h-239q-8 351 -8 639l456 -4v84l-456 -6 v64q0 106 5 181t23.5 159t53 135t96 85t149.5 34q131 0 189.5 -76t120.5 -262q30 -4 43 12q-25 209 -109 303t-244 94q-75 0 -134.5 -11t-131.5 -55t-119 -120t-78.5 -214t-31.5 -329l-203 6v-84l203 4q0 -303 -10 -563q-3 -74 -201 -96v-49z" />
<glyph unicode="&#xa4;" d="M12 293l154 153q-78 127 -78 250q0 129 76 250l-152 152l140 137h71l123 -127q103 49 207 49q164 0 274 -47l125 125h72l141 -137l-149 -150q71 -104 71 -252q0 -143 -73 -254l151 -149l-141 -137h-72l-125 123q-100 -48 -274 -48q-111 0 -207 50q-90 -91 -123 -125h-71z M70 293l82 -80l143 147q127 -88 258 -88q147 0 254 88l145 -147l84 80l-149 147q88 109 88 256q0 156 -86 256l147 146l-84 80l-145 -146q-107 84 -254 84q-139 0 -258 -86l-143 148l-82 -80l147 -148q-88 -112 -88 -254q0 -129 88 -256zM244 696q0 64 24.5 120.5t66.5 98.5 t98 66.5t120 24.5t120 -24.5t98 -66.5t66.5 -98.5t24.5 -120.5t-24 -120.5t-66 -99t-98.5 -67t-120.5 -24.5q-129 0 -219 90q-90 91 -90 221zM356 696q0 -51 18 -97t49 -82t73.5 -59.5t91.5 -29.5q50 6 92.5 30t74 60t49 82t17.5 96q0 51 -18 96.5t-49 80.5t-74 58.5 t-92 31.5q-48 -8 -90.5 -31t-74 -58t-49.5 -80.5t-18 -97.5z" />
<glyph unicode="&#xa5;" d="M-84 1443.5q0 29.5 9 59.5h711q9 -30 9 -59.5t-9 -59.5q-78 -10 -112 -23t-34 -39q0 -13 5 -24l157 -376l176 376q6 12 6 22q0 25 -33.5 40.5t-94.5 23.5q-10 29 -10 59.5t10 59.5h483q7 -22 7 -53.5t-13 -69.5q-144 -13 -168 -86l-264 -534h305v-162h-295v-37h295v-160 l-295 5q2 -87 4 -153t4 -114q0 -6 5 -12.5t22.5 -13.5t50 -14.5t147.5 -24.5q7 -22 7 -53.5t-13 -69.5q-185 4 -296.5 6t-151.5 2q-17 0 -106.5 -2t-252.5 -6q-12 34 -12 67q0 32 12 62q218 23 219 59q7 156 9 267l-293 -5v168h295v33h-295v164h241q-157 360 -190.5 430.5 t-56.5 108.5q-48 79 -185 79q-9 30 -9 59.5zM-46 1447.5q0 -11.5 6 -24.5q26 -3 45.5 -6t32 -5.5t28 -8.5t30 -16.5t27.5 -25.5t21 -34l275 -610h-262v-78h295v-119h-295v-78l293 4q-2 -100 -4.5 -177t-4.5 -132q-3 -74 -231 -96q-4 -8 -4 -20q0 -14 4 -27q168 6 330 6 q212 0 409 -6q4 7 4 19.5t-4 27.5q-161 10 -240 34t-81 62q-2 55 -4 132t-4 177q66 0 161.5 -1t223.5 -3v84h-385v117l385 -4v84h-320l293 590q48 98 166 110q4 10 4 18t-1 14.5t-3 14.5h-393q-7 -10 -7 -22t7 -25q136 -16 136 -72q-1 -8 -2.5 -17.5t-6.5 -20.5l-279 -604 l-254 598q-6 15 -6 28q0 24 19 40t47.5 25.5t61 14.5t60.5 6.5t46.5 1.5t17.5 0q6 13 6 24.5t-6 22.5h-631q-6 -11 -6 -22.5z" />
<glyph unicode="&#xa6;" horiz-adv-x="551" d="M143 516h271v-1034h-271v1034zM143 823v1035h271v-1035h-271zM184 475v-952h117v952h-117zM184 864h117v953h-117v-953z" />
<glyph unicode="&#xa7;" horiz-adv-x="1339" d="M143 633q0 194 211 336q-84 118 -84 235q0 75 26.5 137.5t75.5 107.5t119.5 70t157.5 25q82 0 152.5 -24t122 -63.5t81 -92t29.5 -109.5q0 -157 -162 -157q-30 0 -56 11t-45 30t-29.5 45t-10.5 55q0 66 43 109q-35 30 -88 41q-29 0 -51.5 -9.5t-38.5 -25.5t-24.5 -37 t-8.5 -43q0 -106 119 -199q147 -116 232.5 -186t111.5 -93q38 -34 70.5 -70.5t56 -76t36.5 -82.5t13 -90q0 -53 -18 -103t-48 -95t-68.5 -83.5t-80.5 -68.5q78 -101 78 -229q0 -73 -39 -139.5t-103.5 -117t-146.5 -80.5t-168 -30q-82 0 -151 23t-118.5 63t-77.5 92t-28 111 q0 157 162 157q31 0 57 -11t45 -29.5t29.5 -44.5t10.5 -56q0 -67 -45 -110q6 -6 18.5 -13t29 -12.5t35 -9.5t36.5 -4q29 0 58 10t52.5 29t38 46t14.5 60q0 55 -40.5 108t-115.5 119l-282 236q-193 162 -193 338zM184 633q0 -162 178 -307l283 -236q43 -36 75 -67.5t53 -62 t31.5 -62t10.5 -66.5q0 -45 -19.5 -80t-50 -59t-67 -36.5t-70.5 -12.5q-48 0 -95 11t-84 34t-60 57.5t-23 81.5q0 57 51 74q7 8 7 21t-7 26q-123 0 -123 -129q0 -50 25 -95t69.5 -79t106 -54t133.5 -20q66 0 125 27t103.5 72t70 104t25.5 123q0 136 -98 239q45 26 87.5 61.5 t75.5 79t52.5 93.5t19.5 106q0 37 -13 76t-33 75t-44 66t-46 50q-23 21 -114.5 95t-253.5 203q-135 106 -135 232q0 32 17.5 61t47.5 50.5t70 34t84 12.5q129 0 201 -44.5t72 -119.5q0 -74 -52 -90q-7 -10 -7 -23q0 -12 7 -25q54 0 88.5 38t34.5 108q0 48 -26 89.5t-71.5 72 t-108.5 48t-138 17.5q-77 0 -139.5 -22.5t-106.5 -62t-68 -94.5t-24 -120q0 -130 103 -246q-60 -35 -103 -70.5t-71.5 -74.5t-42 -83.5t-13.5 -96.5zM301 717q0 110 170 190q356 -299 389 -329.5t61.5 -78.5t28.5 -96q0 -124 -164 -210l-325 280q-51 43 -78 69.5t-54.5 76 t-27.5 98.5zM434 717q0 -39 25.5 -82t50.5 -67.5t70 -63.5q55 -47 149 -130t119 -104q61 62 61 133q0 39 -27.5 81t-56 69t-325.5 276q-66 -55 -66 -112z" />
<glyph unicode="&#xa8;" horiz-adv-x="1231" d="M236 1241q0 33 13 63t35 52.5t51.5 35.5t63.5 13q187 0 217 -111q17 49 60 80t96 31q225 0 225 -164t-225 -164q-53 0 -96 30t-60 79q-30 -109 -217 -109q-34 0 -63.5 13t-51.5 35.5t-35 52.5t-13 63zM276 1241q0 -26 9 -48.5t24 -39t35 -26t41 -9.5t41 9.5t35 26t24 39 t9 48.5t-9 48.5t-24 39t-35 26t-41 9.5t-41 -9t-37 -28q-31 -34 -31 -86zM649 1241q0 -25 8.5 -47.5t23.5 -39t34.5 -26.5t42.5 -10q22 0 41.5 10t34.5 26.5t23.5 39t8.5 47.5t-8.5 47t-23.5 39t-34.5 27t-41.5 10q-45 0 -78 -37q-31 -34 -31 -86z" />
<glyph unicode="&#xa9;" horiz-adv-x="1968" d="M82 790.5q0 360.5 255 614.5t615 254q254 0 467 -103.5t343 -304t130 -460.5q0 -367 -266 -619t-674 -252q-360 0 -615 255t-255 615.5zM123 791q0 -345 242.5 -587.5t586.5 -242.5q342 0 585 242.5t243 587.5q0 342 -243 584.5t-585 242.5q-344 0 -586.5 -242.5 t-242.5 -584.5zM221 791q0 311 218 521t513 210q191 0 358 -94.5t270 -263.5t103 -373q0 -312 -219 -523t-512 -211q-295 0 -513 210t-218 524zM334 791q0 -287 192.5 -482.5t460.5 -210.5q266 15 460.5 211.5t194.5 481.5q0 280 -194.5 476.5t-460.5 211.5 q-268 -15 -460.5 -209.5t-192.5 -478.5zM479 788q0 224 129 362t336 138q78 0 137.5 -10t208.5 -47q-8 -49 -8 -70q0 -100 51 -258l-108 -24q-107 243 -240 268q-172 -31 -172 -352q0 -310 209 -334q115 14 250 141l98 -88q-104 -111 -218 -160t-202 -49q-116 0 -207.5 41 t-138.5 97.5t-77.5 128t-39 122.5t-8.5 94zM520 788q0 -38 7.5 -84.5t33 -113t68.5 -118.5t125 -89t188 -37q80 0 179.5 40t183.5 128l-33 31q-137 -127 -287 -127q-143 0 -224 91t-81 286q0 397 270 397q187 0 299 -266l31 10q-53 311 -336 311q-188 0 -306 -127t-118 -332 z" />
<glyph unicode="&#xaa;" horiz-adv-x="926" d="M57 881q0 123 84 185t332 128v84q0 102 -67 123q-21 -4 -27 -8q53 -29 53 -109q0 -55 -48 -93t-159 -38q-53 0 -95 38t-42 105q0 107 102.5 178.5t292.5 71.5q162 0 227.5 -64.5t65.5 -219.5v-289l45 6q78 -10 109 -74q-60 -82 -87.5 -114.5t-88 -63.5t-140.5 -31 q-63 0 -100 45q-82 -57 -242 -57q-120 0 -167.5 62.5t-47.5 134.5zM98 881q0 -58 38 -107t136 -49q109 0 242 133q12 -121 100 -121q19 0 35.5 4t32.5 16.5t27.5 21.5t28 29.5t23.5 30t25.5 37t22.5 33.5q-12 23 -41 27q-47 -66 -70 -66q-34 0 -34 45v347q0 133 -56.5 188 t-195.5 55q-103 0 -193 -54t-90 -155q0 -49 29.5 -75.5t66.5 -26.5q45 0 69.5 27.5t24.5 62.5q0 78 -81 88q8 31 46 52.5t93 21.5q61 0 99 -42t38 -126v-115q-246 -63 -331 -119.5t-85 -162.5zM266 920q0 69 50.5 113t197.5 77v-174q-82 -107 -164 -107q-37 0 -60.5 24 t-23.5 67zM379 920q0 -27 14 -39q39 18 80 67v86q-94 -37 -94 -114z" />
<glyph unicode="&#xab;" horiz-adv-x="1221" d="M125 424l403 434h72l119 -92l-219 -342l219 -344l-119 -92h-72zM182 424l353 -381l57 47l-213 334l213 334l-57 45zM504 424l403 434h72l119 -92l-217 -342l217 -344l-119 -92h-72zM561 424l352 -381l58 47l-211 334l211 334l-58 45z" />
<glyph unicode="&#xac;" horiz-adv-x="1710" d="M143 373v194h1430v-436h-268v242h-1162zM184 414h1162v-242h114v354h-1276v-112z" />
<glyph unicode="&#xad;" horiz-adv-x="1042" d="M143 371v207h762v-207h-762zM184 412h609v125h-609v-125z" />
<glyph unicode="&#xae;" horiz-adv-x="1968" d="M82 790q0 361 255 615q256 254 615 254q122 0 239.5 -26.5t221.5 -77t192 -125t152 -171t99.5 -214t35.5 -254.5q0 -367 -266 -619t-674 -252q-360 0 -615 255t-255 615zM123 791q0 -345 242.5 -587.5t586.5 -242.5q342 0 585 242.5t243 587.5q0 342 -243 584.5 t-585 242.5q-344 0 -586.5 -242.5t-242.5 -584.5zM221 791q0 311 218 521t513 210q191 0 358 -94.5t270 -263.5t103 -373q0 -312 -219 -523t-512 -211q-295 0 -513 210t-218 524zM334 790q0 -244 145 -428q0 36 19 62q120 10 120 16v2q5 106 8 199.5t3 177.5q0 58 -2 139.5 t-6 188.5q-14 7 -44.5 12.5t-76.5 9.5q-19 37 -19 50q-147 -185 -147 -429zM520 315q193 -200 467 -217q273 17 461 211q-100 6 -283 2q-125 138 -237 330q0 -96 6 -199v2q4 -10 123 -20q16 -21 16 -57.5t-18 -55.5q-430 6 -535 4zM522 352q170 8 436 0q9 19 0 33 q-151 10 -157 55q-6 150 -6 295q61 -10 131 -10q123 -221 256 -373h243q7 17 -2 33q-45 4 -92 31.5t-83 61.5t-78 88.5t-64.5 90t-54.5 88.5q88 31 140 99.5t52 154.5q0 109 -73.5 175.5t-202.5 66.5q-54 0 -124.5 -2t-99.5 -2q-84 0 -215 4l-6 -14q0 -10 4 -19 q129 -10 136 -55q8 -221 8 -334q0 -168 -11 -379q0 -45 -135 -55q-10 -14 -2 -33zM537 1280q141 -2 444 2q197 0 296 -77t99 -206q0 -86 -47 -159.5t-127 -114.5q119 -164 188.5 -228.5t147.5 -72.5q104 166 104 367q0 280 -194.5 476.5t-460.5 211.5q-262 -13 -450 -199z M795 786q0 226 6 410q24 2 110 2t131 -55.5t45 -143.5q0 -92 -40.5 -158.5t-131.5 -66.5q-71 0 -120 12zM928 819q61 -2 90 53.5t29 126.5q0 64 -30 106t-85 50q-4 -201 -4 -336z" />
<glyph unicode="&#xaf;" horiz-adv-x="1212" d="M215 1122v205h789v-205h-789zM256 1163h635v123h-635v-123z" />
<glyph unicode="&#xb0;" horiz-adv-x="897" d="M143 1280q0 113 81 192.5t192 79.5q170 0 257 -64.5t87 -207.5q0 -117 -92.5 -193.5t-251.5 -76.5q-111 0 -192 78.5t-81 191.5zM184 1280q0 -96 69 -162.5t163 -66.5t162.5 66.5t68.5 162.5q0 94 -68.5 162.5t-162.5 68.5t-163 -68.5t-69 -162.5zM270 1280q0 51 39 98 t107 47q65 0 105 -45t40 -100q0 -57 -44 -101t-101 -44q-62 0 -104 45t-42 100zM383 1280q0 -31 18.5 -59.5t49.5 -38.5q28 10 48.5 37.5t20.5 60.5q0 31 -19.5 58.5t-49.5 39.5q-31 -12 -49.5 -40.5t-18.5 -57.5z" />
<glyph unicode="&#xb1;" horiz-adv-x="1571" d="M143 80v196h1291v-196h-1291zM143 694v197h510v409h271v-409h510v-197h-510v-407h-271v407h-510zM184 121h1137v115h-1137v-115zM184 735h510v-407h117v407h510v115h-510v410h-117v-410h-510v-115z" />
<glyph unicode="&#xb2;" horiz-adv-x="823" d="M33 801l301 237q125 90 125 209q0 107 -76 125q-45 -6 -56.5 -29.5t-11.5 -76.5q0 -35 14.5 -67t28.5 -46l15 -14q-15 -76 -80 -82h-60q-6 2 -16 7t-36.5 23.5t-46 41t-36 63.5t-16.5 90q0 131 80 197.5t219 66.5q190 0 287.5 -71.5t97.5 -198.5q0 -125 -125 -242 q53 -2 94 -37l-84 -313h-563q-41 35 -55 117zM78 784q6 -41 24 -59h506q4 16 33 115.5t41 148.5q-6 2 -23 2q-79 -117 -180 -117h-164v15l181 139q43 33 69.5 58.5t53 78t26.5 111.5q0 106 -70.5 167.5t-193.5 61.5q-121 0 -188.5 -56t-67.5 -167q0 -121 115 -184 q12 4 28 26q-6 4 -16 17.5t-22.5 48.5t-12.5 76q0 69 43 110t100 41q52 0 95 -39t43 -131q0 -147 -142 -243zM465 915h20q80 7 144 107q-27 -23 -66 -45z" />
<glyph unicode="&#xb3;" horiz-adv-x="823" d="M45 858q0 53 34 94t91 41q141 0 141 -119q0 -34 -24 -59q65 0 109 45t44 115q0 55 -47 69q-28 -6 -65 -22h-72l-61 133l114 37q99 33 99 117q0 28 -21.5 46.5t-50.5 22.5q-98 -22 -74 -164q-29 -32 -94 -43q-74 93 -74 152q0 219 330 219q125 0 218 -52t93 -161 q0 -100 -78 -158q111 -57 111 -182q0 -137 -124 -221t-290 -84q-170 0 -239.5 55.5t-69.5 118.5zM86 858q0 -26 13 -50t41.5 -42.5t73.5 -29.5t110 -11q55 0 109 19t97 54t70 83.5t27 107.5q0 38 -11 67.5t-31 51t-47 36t-59 21.5v2q115 39 115 162q0 41 -16 73t-44 54.5 t-65.5 34.5t-79.5 12q-131 0 -192.5 -49t-61.5 -131q0 -60 49 -106q31 1 43 24q-8 27 -8 68q0 42 27.5 71t87.5 29q25 0 46.5 -8t36.5 -21.5t23.5 -31.5t8.5 -39q0 -115 -115 -152l-84 -27l26 -55q39 17 80 17q125 0 125 -117q0 -93 -48 -142t-126 -49q-73 0 -113.5 22.5 t-40.5 67.5q0 11 9 24t24 13q0 25 -16 41q-18 0 -33.5 -8t-27 -21t-17.5 -30t-6 -35z" />
<glyph unicode="&#xb4;" horiz-adv-x="1489" d="M451 1122l260 324q51 63 125 63h71q58 0 92.5 -34.5t34.5 -92.5q0 -71 -51 -104l-393 -250h-72zM502 1120l28 -37l355 226q37 22 37 73q0 39 -24 62.5t-62 23.5q-56 0 -93 -47z" />
<glyph unicode="&#xb5;" horiz-adv-x="1352" d="M53 803q-18 67 4 125h430q49 -10 64 -66q-8 -180 -10 -545q0 -67 28.5 -112t67.5 -62q59 15 145 88l-8 510q-2 39 -141 62q-19 67 4 125h434q27 -13 36 -27t19 -49q-10 -57 -10 -682q57 -20 186 -31q23 -57 0 -123q-211 -16 -372 -86q-105 -2 -142 47q-71 -43 -243 -43 q-54 0 -88 9q4 -39 33.5 -157t29.5 -187q0 -205 -229 -205q-64 0 -112 49t-48 147q0 109 40 299.5t36 348.5l-13 505q0 37 -141 60zM86 840q149 -23 151 -97l11 -505q-2 -197 -39 -390.5t-37 -257.5q0 -77 36 -116t83 -39q45 0 80.5 38t35.5 126q0 57 -37.5 214.5 t-41.5 305.5h12q26 -84 75.5 -114t129.5 -30q90 0 150.5 39t127.5 123v-135q8 -16 35 -27q145 64 338 82q10 25 0 47q-135 7 -193 41q0 652 7 693q2 8 4 18q-11 23 -25 31h-323q-5 -31 0 -47q147 -23 149 -97l8 -530q-131 -117 -229 -117q-60 0 -113 61.5t-53 159.5 q2 428 10 539q-6 25 -28 31h-324q-4 -31 0 -47z" />
<glyph unicode="&#xb6;" horiz-adv-x="1438" d="M102 1198q0 346 410 346h768v-155h-129v-1887h-285v1887h-73v-1887h-287v1346q-55 2 -104.5 10t-106.5 32.5t-97 60.5t-68 100.5t-28 146.5zM143 1198q0 -80 30 -138.5t72 -90t100 -51t104.5 -24.5t97.5 -5v-1346h112v1887h248v-1887h111v1887h149v73h-655 q-369 0 -369 -305z" />
<glyph unicode="&#xb7;" horiz-adv-x="684" d="M143 751q0 34 13 64t35.5 52t52.5 35t63 13q225 0 225 -164q0 -163 -225 -163q-33 0 -63 13t-52.5 35t-35.5 51.5t-13 63.5zM184 751q0 -25 8.5 -47t23 -38.5t34.5 -26.5t43 -10t42.5 10t34 26.5t23 38.5t8.5 47q0 26 -9 48.5t-24 39t-34.5 26t-40.5 9.5t-41 -9t-37 -27 q-31 -34 -31 -87z" />
<glyph unicode="&#xb8;" horiz-adv-x="1161" d="M287 -332l65 84l86 289h252l-37 -109q103 0 160 -47t57 -137q0 -88 -71.5 -152.5t-196.5 -64.5t-196.5 33t-118.5 104zM338 -334q61 -94 192 -94q95 0 147 52t52 124q0 70 -38 106.5t-101 36.5q-70 0 -92 -4l37 113h-66l-57 -188q51 14 96 14q96 0 96 -82 q0 -41 -29.5 -67.5t-78.5 -26.5q-86 0 -131 47zM436 -244q45 -49 92 -59q35 12 35 47q0 27 -26 37q-35 -6 -101 -25z" />
<glyph unicode="&#xb9;" horiz-adv-x="823" d="M155 788q82 7 105.5 16t23.5 40q2 86 2 487q0 31 -23.5 40t-105.5 15q-30 64 2 117h553q33 -53 2 -119q-67 -4 -90.5 -13t-25.5 -40v-485q0 -33 23.5 -42t90.5 -13q31 -66 -2 -119h-553q-32 53 -2 116zM186 705h490q4 6 4 20t-4 23q-7 0 -74.5 8t-88 20.5t-25.5 20.5 t-5 18q-12 240 2 545q0 10 4 17t25 20t72 19.5t68 8.5t24 2q4 9 4 23t-4 20h-490q-10 -20 0 -43q2 0 33 -3.5t52.5 -11t32.5 -14.5t15 -16.5t4 -21.5q6 -225 -2 -545q0 -12 -4 -21.5t-15 -16.5t-19.5 -11t-33 -9t-44 -7t-21.5 -2q-10 -23 0 -43z" />
<glyph unicode="&#xba;" horiz-adv-x="926" d="M33 1114q0 94 29.5 173t85.5 135.5t136.5 88t182.5 31.5q99 0 179 -30.5t136.5 -86.5t86.5 -135t30 -176q0 -96 -28.5 -175t-84 -136t-136 -88t-185.5 -31q-102 0 -182.5 31t-136 88t-84.5 136t-29 175zM74 1114q0 -172 96 -280q96 -109 260 -109q82 0 148 29t112.5 80.5 t71 123t24.5 156.5t-25 156.5t-71.5 123.5t-112.5 80.5t-147 28.5t-147 -28.5t-112.5 -80.5t-71.5 -123.5t-25 -156.5zM246 1114q0 170 50 252t134 82q86 0 136 -81t50 -253t-50 -253t-136 -81q-84 0 -134 82t-50 252zM358 1114q0 -252 107 -287q110 35 110 287 q0 248 -110 287q-107 -38 -107 -287z" />
<glyph unicode="&#xbb;" horiz-adv-x="1223" d="M129 82l219 342l-219 344l119 90h71l404 -434l-404 -436h-71zM184 90l58 -47l352 381l-352 379l-58 -45l213 -334zM508 82l219 342l-219 344l121 90h71l402 -434l-402 -436h-71zM563 90l60 -47l350 381l-350 379l-60 -45l213 -334z" />
<glyph unicode="&#xbc;" horiz-adv-x="1704" d="M161 788q82 7 105.5 16t23.5 40q2 86 2 487q0 31 -23.5 40t-105.5 15q-30 64 2 117h553q33 -53 2 -119q-67 -4 -90.5 -13t-25.5 -40v-485q0 -33 23.5 -42t90.5 -13q31 -66 -2 -119h-553q-32 53 -2 116zM192 705h490q4 6 4 20t-4 23q-7 0 -74.5 8t-88 20.5t-25.5 20.5 t-5 18q-12 240 2 545q0 10 4 17t25 20t72 19.5t68 8.5t24 2q4 9 4 23t-4 20h-490q-10 -20 0 -43q2 0 33 -3.5t52.5 -11t32.5 -14.5t15 -16.5t4 -21.5q6 -225 -2 -545q0 -12 -4 -21.5t-15 -16.5t-19.5 -11t-33 -9t-44 -7t-21.5 -2q-10 -23 0 -43zM406 -137l770 1749h71 l174 -45l-774 -1749h-72zM461 -111l92 -24l741 1675l-96 25zM906 153v98l449 520h194v-446h111v-172h-111v-201h-311v201h-332zM947 194h332v-201h158v201h110v90h-110v446h-64l-426 -493v-43zM1072 284l207 223v-223h-207z" />
<glyph unicode="&#xbd;" horiz-adv-x="1704" d="M161 788q82 7 105.5 16t23.5 40q2 86 2 487q0 31 -23.5 40t-105.5 15q-30 64 2 117h553q33 -53 2 -119q-67 -4 -90.5 -13t-25.5 -40v-485q0 -33 23.5 -42t90.5 -13q31 -66 -2 -119h-553q-32 53 -2 116zM192 705h490q4 6 4 20t-4 23q-7 0 -74.5 8t-88 20.5t-25.5 20.5 t-5 18q-12 240 2 545q0 10 4 17t25 20t72 19.5t68 8.5t24 2q4 9 4 23t-4 20h-490q-10 -20 0 -43q2 0 33 -3.5t52.5 -11t32.5 -14.5t15 -16.5t4 -21.5q6 -225 -2 -545q0 -12 -4 -21.5t-15 -16.5t-19.5 -11t-33 -9t-44 -7t-21.5 -2q-10 -23 0 -43zM408 -137l770 1749h71 l174 -45l-774 -1749h-72zM463 -111l92 -24l741 1675l-96 25zM1006 116l301 237q125 90 125 209q0 107 -76 125q-45 -6 -56.5 -29.5t-11.5 -76.5q0 -35 14.5 -67t28.5 -46l15 -14q-15 -76 -80 -82h-60q-6 2 -16 7t-36.5 23.5t-46 41t-36 63.5t-16.5 90q0 131 80 197.5 t219 66.5q190 0 287.5 -71.5t97.5 -198.5q0 -125 -125 -242q53 -2 94 -37l-84 -313h-563q-41 35 -55 117zM1051 99q6 -41 24 -59h506q4 16 33 115.5t41 148.5q-6 2 -23 2q-79 -117 -180 -117h-164v15l181 139q43 33 69.5 58.5t53 78t26.5 111.5q0 106 -70.5 167.5 t-193.5 61.5q-121 0 -188.5 -56t-67.5 -167q0 -121 115 -184q12 4 28 26q-6 4 -16 17.5t-22.5 48.5t-12.5 76q0 69 43 110t100 41q52 0 95 -39t43 -131q0 -147 -142 -243zM1438 230h20q80 7 144 107q-27 -23 -66 -45z" />
<glyph unicode="&#xbe;" horiz-adv-x="1704" d="M68 858q0 53 34 94t91 41q141 0 141 -119q0 -34 -24 -59q65 0 109 45t44 115q0 55 -47 69q-28 -6 -65 -22h-72l-61 133l114 37q99 33 99 117q0 28 -21.5 46.5t-50.5 22.5q-98 -22 -74 -164q-29 -32 -94 -43q-74 93 -74 152q0 219 330 219q125 0 218 -52t93 -161 q0 -100 -78 -158q111 -57 111 -182q0 -137 -124 -221t-290 -84q-170 0 -239.5 55.5t-69.5 118.5zM109 858q0 -26 13 -50t41.5 -42.5t73.5 -29.5t110 -11q55 0 109 19t97 54t70 83.5t27 107.5q0 38 -11 67.5t-31 51t-47 36t-59 21.5v2q115 39 115 162q0 41 -16 73t-44 54.5 t-65.5 34.5t-79.5 12q-131 0 -192.5 -49t-61.5 -131q0 -60 49 -106q31 1 43 24q-8 27 -8 68q0 42 27.5 71t87.5 29q25 0 46.5 -8t36.5 -21.5t23.5 -31.5t8.5 -39q0 -115 -115 -152l-84 -27l26 -55q39 17 80 17q125 0 125 -117q0 -93 -48 -142t-126 -49q-73 0 -113.5 22.5 t-40.5 67.5q0 11 9 24t24 13q0 25 -16 41q-18 0 -33.5 -8t-27 -21t-17.5 -30t-6 -35zM367 -137l770 1749h71l174 -45l-774 -1749h-72zM422 -111l92 -24l741 1675l-96 25zM867 153v98l449 520h194v-446h111v-172h-111v-201h-311v201h-332zM908 194h332v-201h158v201h110v90 h-110v446h-64l-426 -493v-43zM1033 284l207 223v-223h-207z" />
<glyph unicode="&#xbf;" horiz-adv-x="1137" d="M82 301q0 84 23.5 152.5t75.5 125t87 86t105 78.5q82 62 133 134.5t51 138.5v151h231v-182q0 -133 -35.5 -210t-134.5 -167q-43 -39 -70.5 -70.5t-55 -102t-27.5 -156.5q0 -72 35 -127.5t112 -63.5q103 8 133 51q-53 37 -53 113q0 63 43 107t111 44q76 0 120 -42t44 -121 q0 -117 -117 -213.5t-328 -96.5q-207 0 -345 97.5t-138 273.5zM123 301q0 -156 133 -243t330 -87q153 0 258.5 77t105.5 185q0 60 -35.5 92.5t-87.5 32.5q-14 -26 0 -47q52 -14 52 -69q0 -88 -75 -142.5t-216 -54.5q-139 0 -201.5 69.5t-62.5 164.5q0 98 33.5 174.5 t80.5 128t94.5 102.5t81 127t33.5 174v141h-49v-110q0 -78 -55.5 -159t-145.5 -146q-65 -47 -98 -74t-82 -80t-71.5 -115.5t-22.5 -140.5zM477 1380q0 34 13 63.5t35.5 52t52 35.5t63.5 13q225 0 225 -164q0 -163 -225 -163q-33 0 -63 13t-52.5 35t-35.5 51.5t-13 63.5z M518 1380q0 -25 8.5 -47.5t23.5 -39t34.5 -26.5t42.5 -10q22 0 41.5 10t34.5 26.5t23.5 39t8.5 47.5q0 26 -8.5 48.5t-23.5 39t-34.5 26t-41.5 9.5q-45 0 -78 -37q-31 -34 -31 -86z" />
<glyph unicode="&#xc0;" horiz-adv-x="1757" d="M35 78q206 24 233 90l422 1061q-4 8 -15.5 36.5t-13.5 37.5q78 79 86 204q88 43 207 49l561 -1392q19 -47 60 -62.5t143 -23.5q25 -60 -2 -127h-793q-24 69 0 127q109 6 154 22.5t31 53.5l-131 331q-185 7 -396 -4l-129 -331q-6 -17 9.5 -30.5t50.5 -21.5t82 -13t106 -7 q25 -60 -2 -127q-328 12 -661 0q-27 67 -2 127zM59 16q0 -12 6 -24q114 4 183.5 6t95.5 2q23 0 104.5 -2t221.5 -6q6 12 6 24q0 11 -6 25q-83 8 -135 17.5t-81 20.5t-39 24.5t-10 30.5q0 11 4 22l146 366q111 2 179.5 3t94.5 1q57 0 101.5 -0.5t76.5 -1.5l145 -368 q5 -15 5 -23q0 -27 -27.5 -48t-67.5 -29l-108 -15q-6 -14 -6 -25q0 -12 6 -24q85 3 172.5 5t179.5 2t186.5 -2t194.5 -5q7 14 7 24q0 6 -2 12t-5 13q-56 3 -108.5 8.5t-95.5 15.5t-72.5 26.5t-38.5 41.5l-553 1366q-17 -1 -33 -14q-7 -124 -76 -199l23 -59l-422 -1061 q-40 -100 -246 -125q-6 -14 -6 -25zM512 1968q0 58 35 92.5t92 34.5q146 0 195 -61l262 -326l-68 -94h-71l-394 250q-51 33 -51 104zM553 1968q0 -51 37 -73l354 -226l29 37l-242 301q-36 47 -92 47q-39 0 -62.5 -23.5t-23.5 -62.5zM590 608l190 490h4l191 -492 q-54 -2 -146 -2q-145 0 -239 4zM649 647q121 -6 266 -2l-133 348z" />
<glyph unicode="&#xc1;" horiz-adv-x="1757" d="M35 78q206 24 233 90l422 1061q-4 8 -15.5 36.5t-13.5 37.5q78 79 86 204q88 43 207 49l561 -1392q19 -47 60 -62.5t143 -23.5q25 -60 -2 -127h-793q-24 69 0 127q109 6 154 22.5t31 53.5l-131 331q-185 7 -396 -4l-129 -331q-6 -17 9.5 -30.5t50.5 -21.5t82 -13t106 -7 q25 -60 -2 -127q-328 12 -661 0q-27 67 -2 127zM59 16q0 -12 6 -24q114 4 183.5 6t95.5 2q23 0 104.5 -2t221.5 -6q6 12 6 24q0 11 -6 25q-83 8 -135 17.5t-81 20.5t-39 24.5t-10 30.5q0 11 4 22l146 366q111 2 179.5 3t94.5 1q57 0 101.5 -0.5t76.5 -1.5l145 -368 q5 -15 5 -23q0 -27 -27.5 -48t-67.5 -29l-108 -15q-6 -14 -6 -25q0 -12 6 -24q85 3 172.5 5t179.5 2t186.5 -2t194.5 -5q7 14 7 24q0 6 -2 12t-5 13q-56 3 -108.5 8.5t-95.5 15.5t-72.5 26.5t-38.5 41.5l-553 1366q-17 -1 -33 -14q-7 -124 -76 -199l23 -59l-422 -1061 q-40 -100 -246 -125q-6 -14 -6 -25zM590 608l190 490h4l191 -492q-54 -2 -146 -2q-145 0 -239 4zM649 647q121 -6 266 -2l-133 348zM666 1708l260 324q51 63 125 63h71q58 0 92.5 -34.5t34.5 -92.5q0 -71 -51 -104l-393 -250h-72zM717 1706l28 -37l355 226q37 22 37 73 q0 39 -24 62.5t-62 23.5q-56 0 -93 -47z" />
<glyph unicode="&#xc2;" horiz-adv-x="1757" d="M35 78q206 24 233 90l422 1061q-4 8 -15.5 36.5t-13.5 37.5q78 79 86 204q88 43 207 49l561 -1392q19 -47 60 -62.5t143 -23.5q25 -60 -2 -127h-793q-24 69 0 127q109 6 154 22.5t31 53.5l-131 331q-185 7 -396 -4l-129 -331q-6 -17 9.5 -30.5t50.5 -21.5t82 -13t106 -7 q25 -60 -2 -127q-328 12 -661 0q-27 67 -2 127zM59 16q0 -12 6 -24q114 4 183.5 6t95.5 2q23 0 104.5 -2t221.5 -6q6 12 6 24q0 11 -6 25q-83 8 -135 17.5t-81 20.5t-39 24.5t-10 30.5q0 11 4 22l146 366q111 2 179.5 3t94.5 1q57 0 101.5 -0.5t76.5 -1.5l145 -368 q5 -15 5 -23q0 -27 -27.5 -48t-67.5 -29l-108 -15q-6 -14 -6 -25q0 -12 6 -24q85 3 172.5 5t179.5 2t186.5 -2t194.5 -5q7 14 7 24q0 6 -2 12t-5 13q-56 3 -108.5 8.5t-95.5 15.5t-72.5 26.5t-38.5 41.5l-553 1366q-17 -1 -33 -14q-7 -124 -76 -199l23 -59l-422 -1061 q-40 -100 -246 -125q-6 -14 -6 -25zM469 1612l318 414h231l317 -414h-241l-193 141l-190 -141h-242zM551 1653h74l241 178l242 -178h74l-256 332h-119zM590 608l190 490h4l191 -492q-54 -2 -146 -2q-145 0 -239 4zM649 647q121 -6 266 -2l-133 348z" />
<glyph unicode="&#xc3;" horiz-adv-x="1757" d="M35 78q206 24 233 90l422 1061q-4 8 -15.5 36.5t-13.5 37.5q78 79 86 204q88 43 207 49l561 -1392q19 -47 60 -62.5t143 -23.5q25 -60 -2 -127h-793q-24 69 0 127q109 6 154 22.5t31 53.5l-131 331q-185 7 -396 -4l-129 -331q-6 -17 9.5 -30.5t50.5 -21.5t82 -13t106 -7 q25 -60 -2 -127q-328 12 -661 0q-27 67 -2 127zM59 16q0 -12 6 -24q114 4 183.5 6t95.5 2q23 0 104.5 -2t221.5 -6q6 12 6 24q0 11 -6 25q-83 8 -135 17.5t-81 20.5t-39 24.5t-10 30.5q0 11 4 22l146 366q111 2 179.5 3t94.5 1q57 0 101.5 -0.5t76.5 -1.5l145 -368 q5 -15 5 -23q0 -27 -27.5 -48t-67.5 -29l-108 -15q-6 -14 -6 -25q0 -12 6 -24q85 3 172.5 5t179.5 2t186.5 -2t194.5 -5q7 14 7 24q0 6 -2 12t-5 13q-56 3 -108.5 8.5t-95.5 15.5t-72.5 26.5t-38.5 41.5l-553 1366q-17 -1 -33 -14q-7 -124 -76 -199l23 -59l-422 -1061 q-40 -100 -246 -125q-6 -14 -6 -25zM471 1673q114 283 276 283q94 0 313 -55q31 16 47 67h220q-90 -295 -279 -295q-100 0 -309 54q-27 -13 -60 -54h-208zM532 1714h55q47 62 113 62q45 0 136 -31t140 -31q160 0 224 213h-62q-22 -73 -102 -73q-31 0 -136.5 30.5 t-152.5 30.5q-135 0 -215 -201zM590 608l190 490h4l191 -492q-54 -2 -146 -2q-145 0 -239 4zM649 647q121 -6 266 -2l-133 348z" />
<glyph unicode="&#xc4;" horiz-adv-x="1757" d="M35 78q206 24 233 90l422 1061q-4 8 -15.5 36.5t-13.5 37.5q78 79 86 204q88 43 207 49l561 -1392q19 -47 60 -62.5t143 -23.5q25 -60 -2 -127h-793q-24 69 0 127q109 6 154 22.5t31 53.5l-131 331q-185 7 -396 -4l-129 -331q-6 -17 9.5 -30.5t50.5 -21.5t82 -13t106 -7 q25 -60 -2 -127q-328 12 -661 0q-27 67 -2 127zM59 16q0 -12 6 -24q114 4 183.5 6t95.5 2q23 0 104.5 -2t221.5 -6q6 12 6 24q0 11 -6 25q-83 8 -135 17.5t-81 20.5t-39 24.5t-10 30.5q0 11 4 22l146 366q111 2 179.5 3t94.5 1q57 0 101.5 -0.5t76.5 -1.5l145 -368 q5 -15 5 -23q0 -27 -27.5 -48t-67.5 -29l-108 -15q-6 -14 -6 -25q0 -12 6 -24q85 3 172.5 5t179.5 2t186.5 -2t194.5 -5q7 14 7 24q0 6 -2 12t-5 13q-56 3 -108.5 8.5t-95.5 15.5t-72.5 26.5t-38.5 41.5l-553 1366q-17 -1 -33 -14q-7 -124 -76 -199l23 -59l-422 -1061 q-40 -100 -246 -125q-6 -14 -6 -25zM498 1827q0 33 13 63t35 52.5t51.5 35.5t63.5 13q187 0 217 -111q17 49 60 80t96 31q225 0 225 -164t-225 -164q-53 0 -96 30t-60 79q-30 -109 -217 -109q-34 0 -63.5 13t-51.5 35.5t-35 52.5t-13 63zM538 1827q0 -26 9 -48.5t24 -39 t35 -26t41 -9.5t41 9.5t35 26t24 39t9 48.5t-9 48.5t-24 39t-35 26t-41 9.5t-41 -9t-37 -28q-31 -34 -31 -86zM590 608l190 490h4l191 -492q-54 -2 -146 -2q-145 0 -239 4zM649 647q121 -6 266 -2l-133 348zM911 1827q0 -25 8.5 -47.5t23.5 -39t34.5 -26.5t42.5 -10 q22 0 41.5 10t34.5 26.5t23.5 39t8.5 47.5t-8.5 47t-23.5 39t-34.5 27t-41.5 10q-45 0 -78 -37q-31 -34 -31 -86z" />
<glyph unicode="&#xc5;" horiz-adv-x="1757" d="M35 78q206 24 233 90l422 1061q-4 8 -15.5 36.5t-13.5 37.5q78 79 86 204q88 43 207 49l561 -1392q19 -47 60 -62.5t143 -23.5q25 -60 -2 -127h-793q-24 69 0 127q109 6 154 22.5t31 53.5l-131 331q-185 7 -396 -4l-129 -331q-6 -17 9.5 -30.5t50.5 -21.5t82 -13t106 -7 q25 -60 -2 -127q-328 12 -661 0q-27 67 -2 127zM59 16q0 -12 6 -24q114 4 183.5 6t95.5 2q23 0 104.5 -2t221.5 -6q6 12 6 24q0 11 -6 25q-83 8 -135 17.5t-81 20.5t-39 24.5t-10 30.5q0 11 4 22l146 366q111 2 179.5 3t94.5 1q57 0 101.5 -0.5t76.5 -1.5l145 -368 q5 -15 5 -23q0 -27 -27.5 -48t-67.5 -29l-108 -15q-6 -14 -6 -25q0 -12 6 -24q85 3 172.5 5t179.5 2t186.5 -2t194.5 -5q7 14 7 24q0 6 -2 12t-5 13q-56 3 -108.5 8.5t-95.5 15.5t-72.5 26.5t-38.5 41.5l-553 1366q-17 -1 -33 -14q-7 -124 -76 -199l23 -59l-422 -1061 q-40 -100 -246 -125q-6 -14 -6 -25zM590 608l190 490h4l191 -492q-54 -2 -146 -2q-145 0 -239 4zM600 1848q0 57 21.5 102t56 76.5t78.5 48t88 16.5h72q46 0 90 -17t78.5 -48.5t55.5 -76.5t21 -101q0 -53 -18 -98t-50.5 -78t-77.5 -51.5t-99 -18.5h-72q-54 0 -98.5 18.5 t-77 51.5t-50.5 78t-18 98zM641 1848q0 -44 15.5 -81.5t42.5 -65t64 -43t81 -15.5q43 0 80.5 15t65.5 42t43.5 65t15.5 83q0 47 -17.5 84.5t-46.5 63.5t-66 40t-75 14q-37 0 -73 -13.5t-65 -39.5t-47 -63.5t-18 -85.5zM649 647q121 -6 266 -2l-133 348zM723 1846 q0 25 10 47.5t26.5 39t38.5 26t46 9.5q25 0 47.5 -10.5t39 -27.5t26.5 -39t10 -46q0 -23 -10 -44.5t-27 -38.5t-39 -27t-47 -10q-23 0 -44.5 10t-38.5 26.5t-27.5 38.5t-10.5 46zM836 1846q0 -48 45 -72q45 24 45 71q0 48 -47 72q-43 -19 -43 -71z" />
<glyph unicode="&#xc6;" horiz-adv-x="2404" d="M11 80q192 22 229 84l711 1204q-25 4 -137 16q-19 70 4 129q307 -10 407 -10h967q25 -196 156 -413q-23 -48 -107 -78q-82 149 -241.5 248.5t-413.5 99.5h-164q-10 -359 -10 -551q63 -2 182 -2q84 0 134 56.5t110 176.5l43 84q84 -30 106 -77q-45 -78 -75.5 -168.5 t-30.5 -145.5q0 -133 106 -313q-24 -51 -102 -78q-37 61 -53 94q-41 68 -64.5 101.5t-71 67.5t-104.5 36h-180q0 -221 8 -539h207q254 0 413.5 99.5t241.5 249.5q84 -31 107 -78q-131 -217 -156 -414h-829q-396 0 -588 -6q-21 65 -2 127q219 22 221 59q10 262 12 523h-319 l-297 -510q-14 -30 1 -40.5t30 -14t60.5 -8.5t80.5 -7q22 -64 0 -131q-293 12 -590 0q-33 65 -2 129zM38 16.5q0 -12.5 4 -24.5q282 16 530 0q4 16 4 24.5t-4 24.5q-92 8 -118.5 13t-41 11t-28.5 17.5t-15 27.5t11 35l325 557h383q0 -282 -12 -565q-2 -74 -232 -96 q-4 -35 0 -47q193 6 465 6h433q245 0 369 84t224 289q-8 16 -34 26q-183 -338 -672 -338h-361q-10 437 -10 639l326 2q43 0 81 -14t60.5 -28.5t52 -55.5t42 -59.5t42 -76.5t39.5 -75q31 13 39 27q-100 170 -100 313q0 62 28.5 151t71.5 163q-8 14 -39 26q-8 -14 -31.5 -60 t-30.5 -59.5t-28.5 -49.5t-34 -48t-36 -35.5t-45 -32t-50 -15.5t-61.5 -7q-215 0 -326 4q0 242 12 631h318q489 0 672 -338q26 10 34 27q-100 204 -224 288t-369 84h-504q-125 0 -350 8v-47q108 -8 165 -30l-737 -1250q-49 -80 -233 -102q-4 -12 -4 -24.5zM742 764l332 571 h4q10 -235 10 -571h-346zM812 807l235 2l-2 395z" />
<glyph unicode="&#xc7;" horiz-adv-x="1659" d="M113 729q0 186 55 332.5t141 234.5t201 146.5t223.5 80t218.5 21.5q150 0 326 -40t252 -50q-33 -129 -26 -226.5t57 -238.5q-29 -59 -107 -71q-43 96 -79 158.5t-96 140t-143 120.5t-186 52q-114 -9 -199 -72.5t-131.5 -162.5t-68 -205.5t-21.5 -219.5q0 -252 127 -423 t379 -183q244 12 383 182q39 0 68 -25.5t29 -60.5q-82 -117 -211 -190.5t-269 -98.5l-18 -59q102 0 159.5 -47t57.5 -137q0 -88 -71.5 -152.5t-196.5 -64.5t-197 32.5t-119 104.5l66 84l69 237q-122 19 -234 70t-214 141t-163.5 243t-61.5 347zM154 729q0 -158 44 -288 t113.5 -214t162.5 -143t183.5 -87t184.5 -36l-66 -211q51 14 96 14q97 0 97 -81q0 -41 -30 -68t-79 -27q-86 0 -131 47l-27 -30q62 -94 193 -94q94 0 146.5 52t52.5 124q0 69 -38 106t-102 37q-69 0 -92 -4l43 133q158 0 317.5 69.5t252.5 204.5q0 13 -11.5 22t-25.5 9 q-150 -182 -441 -182q-307 0 -463.5 185.5t-156.5 461.5q0 125 27.5 241.5t86 223t167 172.5t253.5 66q99 0 183 -31t138 -73t105.5 -112.5t78 -122t63.5 -130.5q30 4 37 22q-74 297 -223.5 407.5t-381.5 110.5q-94 0 -192 -22.5t-201.5 -80t-182.5 -142t-130 -222 t-51 -307.5zM801 -305q45 -49 92 -60q35 13 35 48q0 26 -27 36q-35 -6 -100 -24z" />
<glyph unicode="&#xc8;" horiz-adv-x="1714" d="M70 80q219 22 221 59q12 314 12 629q0 322 -10 557q-2 37 -223 59q-19 70 4 129q307 -10 407 -10h967q24 -196 156 -413q-23 -48 -107 -78q-82 149 -241.5 248.5t-413.5 99.5h-164q-10 -359 -10 -551q63 -2 182 -2q84 0 134 56.5t110 176.5l43 84q84 -30 106 -77 q-45 -78 -75.5 -168.5t-30.5 -145.5q0 -133 106 -313q-24 -51 -102 -78q-37 61 -54 94q-41 68 -64.5 101.5t-70.5 67.5t-104 36h-180q0 -221 8 -539h207q254 0 413.5 99.5t241.5 249.5q84 -31 106 -78q-131 -217 -155 -414h-830q-395 0 -587 -6q-21 65 -2 127zM100 -6 q193 6 897 6q246 0 370 84t224 289q-8 16 -35 26q-182 -338 -671 -338h-361q-10 437 -10 639l326 2q43 0 80.5 -14t60 -28.5t52.5 -55.5t42 -59.5t42 -76.5t40 -75q31 13 39 27q-100 170 -100 313q0 62 28.5 151t71.5 163q-8 14 -39 26q-8 -14 -31.5 -60t-31 -59.5 t-29 -49.5t-33.5 -48l-35.5 -35.5t-45 -32t-50.5 -15.5t-61 -7q-215 0 -326 4q0 242 12 631h318q489 0 671 -338q27 10 35 27q-100 204 -224 288t-370 84h-503q-125 0 -351 8v-47q230 -22 232 -96q10 -235 10 -559q0 -317 -12 -631q-2 -74 -232 -96q-4 -35 0 -47zM512 1968 q0 58 35 92.5t92 34.5q146 0 195 -61l262 -326l-68 -94h-71l-394 250q-51 33 -51 104zM553 1968q0 -51 37 -73l354 -226l29 37l-242 301q-36 47 -92 47q-39 0 -62.5 -23.5t-23.5 -62.5z" />
<glyph unicode="&#xc9;" horiz-adv-x="1714" d="M70 80q219 22 221 59q12 314 12 629q0 322 -10 557q-2 37 -223 59q-19 70 4 129q307 -10 407 -10h967q24 -196 156 -413q-23 -48 -107 -78q-82 149 -241.5 248.5t-413.5 99.5h-164q-10 -359 -10 -551q63 -2 182 -2q84 0 134 56.5t110 176.5l43 84q84 -30 106 -77 q-45 -78 -75.5 -168.5t-30.5 -145.5q0 -133 106 -313q-24 -51 -102 -78q-37 61 -54 94q-41 68 -64.5 101.5t-70.5 67.5t-104 36h-180q0 -221 8 -539h207q254 0 413.5 99.5t241.5 249.5q84 -31 106 -78q-131 -217 -155 -414h-830q-395 0 -587 -6q-21 65 -2 127zM100 -6 q193 6 897 6q246 0 370 84t224 289q-8 16 -35 26q-182 -338 -671 -338h-361q-10 437 -10 639l326 2q43 0 80.5 -14t60 -28.5t52.5 -55.5t42 -59.5t42 -76.5t40 -75q31 13 39 27q-100 170 -100 313q0 62 28.5 151t71.5 163q-8 14 -39 26q-8 -14 -31.5 -60t-31 -59.5 t-29 -49.5t-33.5 -48l-35.5 -35.5t-45 -32t-50.5 -15.5t-61 -7q-215 0 -326 4q0 242 12 631h318q489 0 671 -338q27 10 35 27q-100 204 -224 288t-370 84h-503q-125 0 -351 8v-47q230 -22 232 -96q10 -235 10 -559q0 -317 -12 -631q-2 -74 -232 -96q-4 -35 0 -47zM666 1708 l260 324q51 63 125 63h71q58 0 92.5 -34.5t34.5 -92.5q0 -71 -51 -104l-393 -250h-72zM717 1706l28 -37l355 226q37 22 37 73q0 39 -24 62.5t-62 23.5q-56 0 -93 -47z" />
<glyph unicode="&#xca;" horiz-adv-x="1714" d="M70 80q219 22 221 59q12 314 12 629q0 322 -10 557q-2 37 -223 59q-19 70 4 129q307 -10 407 -10h967q24 -196 156 -413q-23 -48 -107 -78q-82 149 -241.5 248.5t-413.5 99.5h-164q-10 -359 -10 -551q63 -2 182 -2q84 0 134 56.5t110 176.5l43 84q84 -30 106 -77 q-45 -78 -75.5 -168.5t-30.5 -145.5q0 -133 106 -313q-24 -51 -102 -78q-37 61 -54 94q-41 68 -64.5 101.5t-70.5 67.5t-104 36h-180q0 -221 8 -539h207q254 0 413.5 99.5t241.5 249.5q84 -31 106 -78q-131 -217 -155 -414h-830q-395 0 -587 -6q-21 65 -2 127zM100 -6 q193 6 897 6q246 0 370 84t224 289q-8 16 -35 26q-182 -338 -671 -338h-361q-10 437 -10 639l326 2q43 0 80.5 -14t60 -28.5t52.5 -55.5t42 -59.5t42 -76.5t40 -75q31 13 39 27q-100 170 -100 313q0 62 28.5 151t71.5 163q-8 14 -39 26q-8 -14 -31.5 -60t-31 -59.5 t-29 -49.5t-33.5 -48l-35.5 -35.5t-45 -32t-50.5 -15.5t-61 -7q-215 0 -326 4q0 242 12 631h318q489 0 671 -338q27 10 35 27q-100 204 -224 288t-370 84h-503q-125 0 -351 8v-47q230 -22 232 -96q10 -235 10 -559q0 -317 -12 -631q-2 -74 -232 -96q-4 -35 0 -47zM446 1612 l318 414h231l317 -414h-241l-193 141l-190 -141h-242zM528 1653h74l241 178l242 -178h74l-256 332h-119z" />
<glyph unicode="&#xcb;" horiz-adv-x="1714" d="M70 80q219 22 221 59q12 314 12 629q0 322 -10 557q-2 37 -223 59q-19 70 4 129q307 -10 407 -10h967q24 -196 156 -413q-23 -48 -107 -78q-82 149 -241.5 248.5t-413.5 99.5h-164q-10 -359 -10 -551q63 -2 182 -2q84 0 134 56.5t110 176.5l43 84q84 -30 106 -77 q-45 -78 -75.5 -168.5t-30.5 -145.5q0 -133 106 -313q-24 -51 -102 -78q-37 61 -54 94q-41 68 -64.5 101.5t-70.5 67.5t-104 36h-180q0 -221 8 -539h207q254 0 413.5 99.5t241.5 249.5q84 -31 106 -78q-131 -217 -155 -414h-830q-395 0 -587 -6q-21 65 -2 127zM100 -6 q193 6 897 6q246 0 370 84t224 289q-8 16 -35 26q-182 -338 -671 -338h-361q-10 437 -10 639l326 2q43 0 80.5 -14t60 -28.5t52.5 -55.5t42 -59.5t42 -76.5t40 -75q31 13 39 27q-100 170 -100 313q0 62 28.5 151t71.5 163q-8 14 -39 26q-8 -14 -31.5 -60t-31 -59.5 t-29 -49.5t-33.5 -48l-35.5 -35.5t-45 -32t-50.5 -15.5t-61 -7q-215 0 -326 4q0 242 12 631h318q489 0 671 -338q27 10 35 27q-100 204 -224 288t-370 84h-503q-125 0 -351 8v-47q230 -22 232 -96q10 -235 10 -559q0 -317 -12 -631q-2 -74 -232 -96q-4 -35 0 -47zM478 1827 q0 33 13 63t35 52.5t51.5 35.5t63.5 13q187 0 217 -111q17 49 60 80t96 31q225 0 225 -164t-225 -164q-53 0 -96 30t-60 79q-30 -109 -217 -109q-34 0 -63.5 13t-51.5 35.5t-35 52.5t-13 63zM518 1827q0 -26 9 -48.5t24 -39t35 -26t41 -9.5t41 9.5t35 26t24 39t9 48.5 t-9 48.5t-24 39t-35 26t-41 9.5t-41 -9t-37 -28q-31 -34 -31 -86zM891 1827q0 -25 8.5 -47.5t23.5 -39t34.5 -26.5t42.5 -10q22 0 41.5 10t34.5 26.5t23.5 39t8.5 47.5t-8.5 47t-23.5 39t-34.5 27t-41.5 10q-45 0 -78 -37q-31 -34 -31 -86z" />
<glyph unicode="&#xcc;" horiz-adv-x="956" d="M74 1384q-17 66 4 129q88 0 238.5 -5t209.5 -5q43 0 166 2t213 2q19 -57 2 -123q-221 -22 -223 -59q-12 -250 -12 -631q0 -368 10 -555q0 -6 5 -12t14.5 -10t19.5 -8.5t27.5 -8.5t29.5 -7t32.5 -6t33 -5t34 -4t29.5 -4q17 -56 -6 -123q-369 8 -448 8q-54 0 -377 -8 q-25 69 0 129q217 22 219 59q12 250 12 629q0 322 -10 557q-2 37 -223 59zM104 -6q170 6 349 6q213 0 409 -6q8 16 0 47q-332 20 -334 96q-8 418 -8 631q0 246 10 559q2 76 334 96q6 19 0 47q-262 -8 -409 -8q-123 0 -349 8q-8 -18 0 -47q230 -22 232 -96q10 -235 10 -559 q0 -317 -12 -631q-2 -74 -232 -96q-8 -16 0 -47zM134 1968q0 58 35 92.5t92 34.5q146 0 195 -61l262 -326l-68 -94h-71l-394 250q-51 33 -51 104zM175 1968q0 -51 37 -73l354 -226l29 37l-242 301q-36 47 -92 47q-39 0 -62.5 -23.5t-23.5 -62.5z" />
<glyph unicode="&#xcd;" horiz-adv-x="956" d="M74 1384q-17 66 4 129q88 0 238.5 -5t209.5 -5q43 0 166 2t213 2q19 -57 2 -123q-221 -22 -223 -59q-12 -250 -12 -631q0 -368 10 -555q0 -6 5 -12t14.5 -10t19.5 -8.5t27.5 -8.5t29.5 -7t32.5 -6t33 -5t34 -4t29.5 -4q17 -56 -6 -123q-369 8 -448 8q-54 0 -377 -8 q-25 69 0 129q217 22 219 59q12 250 12 629q0 322 -10 557q-2 37 -223 59zM104 -6q170 6 349 6q213 0 409 -6q8 16 0 47q-332 20 -334 96q-8 418 -8 631q0 246 10 559q2 76 334 96q6 19 0 47q-262 -8 -409 -8q-123 0 -349 8q-8 -18 0 -47q230 -22 232 -96q10 -235 10 -559 q0 -317 -12 -631q-2 -74 -232 -96q-8 -16 0 -47zM247 1708l260 324q51 63 125 63h71q58 0 92.5 -34.5t34.5 -92.5q0 -71 -51 -104l-393 -250h-72zM298 1706l28 -37l355 226q37 22 37 73q0 39 -24 62.5t-62 23.5q-56 0 -93 -47z" />
<glyph unicode="&#xce;" horiz-adv-x="956" d="M50 1612l318 414h231l317 -414h-241l-193 141l-190 -141h-242zM74 1384q-17 66 4 129q88 0 238.5 -5t209.5 -5q43 0 166 2t213 2q19 -57 2 -123q-221 -22 -223 -59q-12 -250 -12 -631q0 -368 10 -555q0 -6 5 -12t14.5 -10t19.5 -8.5t27.5 -8.5t29.5 -7t32.5 -6t33 -5 t34 -4t29.5 -4q17 -56 -6 -123q-369 8 -448 8q-54 0 -377 -8q-25 69 0 129q217 22 219 59q12 250 12 629q0 322 -10 557q-2 37 -223 59zM104 -6q170 6 349 6q213 0 409 -6q8 16 0 47q-332 20 -334 96q-8 418 -8 631q0 246 10 559q2 76 334 96q6 19 0 47q-262 -8 -409 -8 q-123 0 -349 8q-8 -18 0 -47q230 -22 232 -96q10 -235 10 -559q0 -317 -12 -631q-2 -74 -232 -96q-8 -16 0 -47zM132 1653h74l241 178l242 -178h74l-256 332h-119z" />
<glyph unicode="&#xcf;" horiz-adv-x="956" d="M74 1384q-17 66 4 129q88 0 238.5 -5t209.5 -5q43 0 166 2t213 2q19 -57 2 -123q-221 -22 -223 -59q-12 -250 -12 -631q0 -368 10 -555q0 -6 5 -12t14.5 -10t19.5 -8.5t27.5 -8.5t29.5 -7t32.5 -6t33 -5t34 -4t29.5 -4q17 -56 -6 -123q-369 8 -448 8q-54 0 -377 -8 q-25 69 0 129q217 22 219 59q12 250 12 629q0 322 -10 557q-2 37 -223 59zM100 1827q0 33 13 63t35 52.5t51.5 35.5t63.5 13q187 0 217 -111q17 49 60 80t96 31q225 0 225 -164t-225 -164q-53 0 -96 30t-60 79q-30 -109 -217 -109q-34 0 -63.5 13t-51.5 35.5t-35 52.5 t-13 63zM104 -6q170 6 349 6q213 0 409 -6q8 16 0 47q-332 20 -334 96q-8 418 -8 631q0 246 10 559q2 76 334 96q6 19 0 47q-262 -8 -409 -8q-123 0 -349 8q-8 -18 0 -47q230 -22 232 -96q10 -235 10 -559q0 -317 -12 -631q-2 -74 -232 -96q-8 -16 0 -47zM140 1827 q0 -26 9 -48.5t24 -39t35 -26t41 -9.5t41 9.5t35 26t24 39t9 48.5t-9 48.5t-24 39t-35 26t-41 9.5t-41 -9t-37 -28q-31 -34 -31 -86zM513 1827q0 -25 8.5 -47.5t23.5 -39t34.5 -26.5t42.5 -10q22 0 41.5 10t34.5 26.5t23.5 39t8.5 47.5t-8.5 47t-23.5 39t-34.5 27t-41.5 10 q-45 0 -78 -37q-31 -34 -31 -86z" />
<glyph unicode="&#xd0;" horiz-adv-x="1827" d="M70 635v182l237 -8q0 297 -10 516q-2 37 -223 59q-17 64 4 129q123 -2 766 -2q139 0 255.5 -17t237.5 -68.5t204 -134.5t135 -224t52 -330q0 -180 -61 -319t-159.5 -224t-231.5 -139.5t-262 -75t-269 -20.5q-335 0 -669 -8q-25 69 0 129q217 22 219 59q12 332 12 500z M104 -6q215 6 570 6q127 0 245.5 19.5t240.5 71.5t211 132t146.5 213t57.5 303q0 731 -803 731q-74 0 -210 -3t-246.5 -3t-209.5 6q-8 -18 0 -47q230 -22 232 -96q10 -235 10 -561q-160 4 -238 8v-96q156 4 238 4q0 -231 -12 -545q-2 -74 -232 -96q-10 -23 0 -47zM518 684 q47 0 440 -6v96q-174 -8 -440 -8q0 299 12 620q109 13 230 13q133 0 238.5 -42t171 -107.5t107.5 -154.5t58.5 -176.5t16.5 -179.5q0 -303 -170 -485t-490 -182q-108 0 -164 2q-10 415 -10 610zM672 643q0 -225 8 -530q315 8 473 177t158 449q0 109 -26 208.5t-83 193.5 t-166.5 152.5t-257.5 62.5q-49 0 -94 -6q-10 -299 -12 -543q86 0 338 10v-180q-242 0 -338 6z" />
<glyph unicode="&#xd1;" horiz-adv-x="1810" d="M41 16q0 29 14 64q207 20 209 72q12 210 12 616q0 311 -8 555q-65 51 -198 61q-15 27 -15 62q0 37 19 67q209 -10 528 -10l692 -864v131q0 231 -10 543q-2 53 -219 71q-14 35 -14 64q0 18 14 61q152 -6 305.5 -6t315.5 6q14 -43 14 -61q0 -29 -14 -64q-207 -20 -209 -71 q-13 -211 -13 -617q0 -458 13 -741l-82 -2l-949 1161q0 -18 -1 -65.5t-1 -73.5q0 -483 13 -823q2 -54 219 -72q14 -35 14 -64q0 -22 -14 -65q-154 6 -305 6q-154 0 -316 -6q-14 43 -14 65zM84 -6q188 6 268 6q125 0 285 -6q8 31 0 47q-219 20 -221 111q-10 311 -10 542 q0 264 6 523h10l993 -1223l19 2q-11 235 -11 700q0 303 13 617q4 90 221 110q8 17 0 47q-189 -6 -268 -6q-125 0 -285 6q-8 -30 0 -47q219 -20 221 -110q10 -312 10 -543q0 -135 -4 -364l-862 1056q-225 0 -373 8q-8 -24 0 -47q129 -8 213 -82q8 -243 8 -573 q0 -303 -12 -616q-4 -91 -221 -111q-8 -16 0 -47zM478 1673q114 283 276 283q94 0 313 -55q31 16 47 67h220q-90 -295 -279 -295q-100 0 -309 54q-27 -13 -60 -54h-208zM539 1714h55q47 62 113 62q45 0 136 -31t140 -31q160 0 224 213h-62q-22 -73 -102 -73 q-31 0 -136.5 30.5t-152.5 30.5q-135 0 -215 -201z" />
<glyph unicode="&#xd2;" horiz-adv-x="1888" d="M113 729q0 184 55 334.5t161 257t261 165t356 58.5q189 0 343.5 -54t264 -157.5t169 -255.5t59.5 -348q0 -197 -59.5 -348.5t-169 -255.5t-264 -157.5t-343.5 -53.5q-201 0 -356 58.5t-261 165t-161 257t-55 334.5zM154 729q0 -152 35.5 -268t94.5 -201.5t136.5 -143 t161.5 -92.5t169 -50t160 -15q69 0 149 14t159.5 48t153.5 91t130.5 142.5t90.5 203t34 271.5q0 151 -33.5 267.5t-89.5 202.5t-129 144t-153 93.5t-160.5 51t-151.5 15.5q-69 0 -152 -13.5t-167 -47t-163 -90.5t-140 -143t-98 -204.5t-37 -275.5zM377 729q0 80 12 163.5 t38 161.5t68 147t101 120t137.5 81t177.5 30q91 0 163 -29.5t126.5 -81t93.5 -120.5t63.5 -147t36 -161.5t11.5 -163.5t-11 -162.5t-35.5 -160t-63 -146t-93.5 -119.5t-127 -80.5t-164 -29.5q-99 0 -177 29.5t-137.5 80t-101 118.5t-68 145.5t-38.5 161t-12 163.5zM530 729 q0 -73 9.5 -148.5t30.5 -146.5t53.5 -134t79 -111.5t107 -78.5t136.5 -36q78 6 139 36.5t107.5 79t79 112t53 134t30 146t9.5 147.5q0 73 -9.5 148.5t-30 147t-53 135t-79 112.5t-108 80t-138.5 37q-77 -6 -138 -37t-107 -80.5t-78.5 -113t-53 -134.5t-30 -146.5 t-9.5 -148.5zM618 1968q0 58 35 92.5t92 34.5q146 0 195 -61l262 -326l-68 -94h-71l-394 250q-51 33 -51 104zM659 1968q0 -51 37 -73l354 -226l29 37l-242 301q-36 47 -92 47q-39 0 -62.5 -23.5t-23.5 -62.5z" />
<glyph unicode="&#xd3;" horiz-adv-x="1888" d="M113 729q0 184 55 334.5t161 257t261 165t356 58.5q189 0 343.5 -54t264 -157.5t169 -255.5t59.5 -348q0 -197 -59.5 -348.5t-169 -255.5t-264 -157.5t-343.5 -53.5q-201 0 -356 58.5t-261 165t-161 257t-55 334.5zM154 729q0 -152 35.5 -268t94.5 -201.5t136.5 -143 t161.5 -92.5t169 -50t160 -15q69 0 149 14t159.5 48t153.5 91t130.5 142.5t90.5 203t34 271.5q0 151 -33.5 267.5t-89.5 202.5t-129 144t-153 93.5t-160.5 51t-151.5 15.5q-69 0 -152 -13.5t-167 -47t-163 -90.5t-140 -143t-98 -204.5t-37 -275.5zM377 729q0 80 12 163.5 t38 161.5t68 147t101 120t137.5 81t177.5 30q91 0 163 -29.5t126.5 -81t93.5 -120.5t63.5 -147t36 -161.5t11.5 -163.5t-11 -162.5t-35.5 -160t-63 -146t-93.5 -119.5t-127 -80.5t-164 -29.5q-99 0 -177 29.5t-137.5 80t-101 118.5t-68 145.5t-38.5 161t-12 163.5zM530 729 q0 -73 9.5 -148.5t30.5 -146.5t53.5 -134t79 -111.5t107 -78.5t136.5 -36q78 6 139 36.5t107.5 79t79 112t53 134t30 146t9.5 147.5q0 73 -9.5 148.5t-30 147t-53 135t-79 112.5t-108 80t-138.5 37q-77 -6 -138 -37t-107 -80.5t-78.5 -113t-53 -134.5t-30 -146.5 t-9.5 -148.5zM711 1708l260 324q51 63 125 63h71q58 0 92.5 -34.5t34.5 -92.5q0 -71 -51 -104l-393 -250h-72zM762 1706l28 -37l355 226q37 22 37 73q0 39 -24 62.5t-62 23.5q-56 0 -93 -47z" />
<glyph unicode="&#xd4;" horiz-adv-x="1888" d="M113 729q0 184 55 334.5t161 257t261 165t356 58.5q189 0 343.5 -54t264 -157.5t169 -255.5t59.5 -348q0 -197 -59.5 -348.5t-169 -255.5t-264 -157.5t-343.5 -53.5q-201 0 -356 58.5t-261 165t-161 257t-55 334.5zM154 729q0 -152 35.5 -268t94.5 -201.5t136.5 -143 t161.5 -92.5t169 -50t160 -15q69 0 149 14t159.5 48t153.5 91t130.5 142.5t90.5 203t34 271.5q0 151 -33.5 267.5t-89.5 202.5t-129 144t-153 93.5t-160.5 51t-151.5 15.5q-69 0 -152 -13.5t-167 -47t-163 -90.5t-140 -143t-98 -204.5t-37 -275.5zM377 729q0 80 12 163.5 t38 161.5t68 147t101 120t137.5 81t177.5 30q91 0 163 -29.5t126.5 -81t93.5 -120.5t63.5 -147t36 -161.5t11.5 -163.5t-11 -162.5t-35.5 -160t-63 -146t-93.5 -119.5t-127 -80.5t-164 -29.5q-99 0 -177 29.5t-137.5 80t-101 118.5t-68 145.5t-38.5 161t-12 163.5zM530 729 q0 -73 9.5 -148.5t30.5 -146.5t53.5 -134t79 -111.5t107 -78.5t136.5 -36q78 6 139 36.5t107.5 79t79 112t53 134t30 146t9.5 147.5q0 73 -9.5 148.5t-30 147t-53 135t-79 112.5t-108 80t-138.5 37q-77 -6 -138 -37t-107 -80.5t-78.5 -113t-53 -134.5t-30 -146.5 t-9.5 -148.5zM534 1612l318 414h231l317 -414h-241l-193 141l-190 -141h-242zM616 1653h74l241 178l242 -178h74l-256 332h-119z" />
<glyph unicode="&#xd5;" horiz-adv-x="1888" d="M113 729q0 184 55 334.5t161 257t261 165t356 58.5q189 0 343.5 -54t264 -157.5t169 -255.5t59.5 -348q0 -197 -59.5 -348.5t-169 -255.5t-264 -157.5t-343.5 -53.5q-201 0 -356 58.5t-261 165t-161 257t-55 334.5zM154 729q0 -152 35.5 -268t94.5 -201.5t136.5 -143 t161.5 -92.5t169 -50t160 -15q69 0 149 14t159.5 48t153.5 91t130.5 142.5t90.5 203t34 271.5q0 151 -33.5 267.5t-89.5 202.5t-129 144t-153 93.5t-160.5 51t-151.5 15.5q-69 0 -152 -13.5t-167 -47t-163 -90.5t-140 -143t-98 -204.5t-37 -275.5zM377 729q0 80 12 163.5 t38 161.5t68 147t101 120t137.5 81t177.5 30q91 0 163 -29.5t126.5 -81t93.5 -120.5t63.5 -147t36 -161.5t11.5 -163.5t-11 -162.5t-35.5 -160t-63 -146t-93.5 -119.5t-127 -80.5t-164 -29.5q-99 0 -177 29.5t-137.5 80t-101 118.5t-68 145.5t-38.5 161t-12 163.5zM517 1673 q114 283 276 283q94 0 313 -55q31 16 47 67h220q-90 -295 -279 -295q-100 0 -309 54q-27 -13 -60 -54h-208zM530 729q0 -73 9.5 -148.5t30.5 -146.5t53.5 -134t79 -111.5t107 -78.5t136.5 -36q78 6 139 36.5t107.5 79t79 112t53 134t30 146t9.5 147.5q0 73 -9.5 148.5 t-30 147t-53 135t-79 112.5t-108 80t-138.5 37q-77 -6 -138 -37t-107 -80.5t-78.5 -113t-53 -134.5t-30 -146.5t-9.5 -148.5zM578 1714h55q47 62 113 62q45 0 136 -31t140 -31q160 0 224 213h-62q-22 -73 -102 -73q-31 0 -136.5 30.5t-152.5 30.5q-135 0 -215 -201z" />
<glyph unicode="&#xd6;" horiz-adv-x="1888" d="M113 729q0 184 55 334.5t161 257t261 165t356 58.5q189 0 343.5 -54t264 -157.5t169 -255.5t59.5 -348q0 -197 -59.5 -348.5t-169 -255.5t-264 -157.5t-343.5 -53.5q-201 0 -356 58.5t-261 165t-161 257t-55 334.5zM154 729q0 -152 35.5 -268t94.5 -201.5t136.5 -143 t161.5 -92.5t169 -50t160 -15q69 0 149 14t159.5 48t153.5 91t130.5 142.5t90.5 203t34 271.5q0 151 -33.5 267.5t-89.5 202.5t-129 144t-153 93.5t-160.5 51t-151.5 15.5q-69 0 -152 -13.5t-167 -47t-163 -90.5t-140 -143t-98 -204.5t-37 -275.5zM377 729q0 80 12 163.5 t38 161.5t68 147t101 120t137.5 81t177.5 30q91 0 163 -29.5t126.5 -81t93.5 -120.5t63.5 -147t36 -161.5t11.5 -163.5t-11 -162.5t-35.5 -160t-63 -146t-93.5 -119.5t-127 -80.5t-164 -29.5q-99 0 -177 29.5t-137.5 80t-101 118.5t-68 145.5t-38.5 161t-12 163.5zM530 729 q0 -73 9.5 -148.5t30.5 -146.5t53.5 -134t79 -111.5t107 -78.5t136.5 -36q78 6 139 36.5t107.5 79t79 112t53 134t30 146t9.5 147.5q0 73 -9.5 148.5t-30 147t-53 135t-79 112.5t-108 80t-138.5 37q-77 -6 -138 -37t-107 -80.5t-78.5 -113t-53 -134.5t-30 -146.5 t-9.5 -148.5zM564 1827q0 33 13 63t35 52.5t51.5 35.5t63.5 13q187 0 217 -111q17 49 60 80t96 31q225 0 225 -164t-225 -164q-53 0 -96 30t-60 79q-30 -109 -217 -109q-34 0 -63.5 13t-51.5 35.5t-35 52.5t-13 63zM604 1827q0 -26 9 -48.5t24 -39t35 -26t41 -9.5t41 9.5 t35 26t24 39t9 48.5t-9 48.5t-24 39t-35 26t-41 9.5t-41 -9t-37 -28q-31 -34 -31 -86zM977 1827q0 -25 8.5 -47.5t23.5 -39t34.5 -26.5t42.5 -10q22 0 41.5 10t34.5 26.5t23.5 39t8.5 47.5t-8.5 47t-23.5 39t-34.5 27t-41.5 10q-45 0 -78 -37q-31 -34 -31 -86z" />
<glyph unicode="&#xd7;" horiz-adv-x="1571" d="M252 350l360 361l-360 362l139 137h72l323 -325l328 327h72l139 -139l-362 -362l360 -361l-137 -139h-72l-328 324l-323 -324h-72zM309 350l82 -82l361 361l362 -361l80 82l-360 361l362 362l-82 82l-362 -362l-361 360l-82 -80l361 -362z" />
<glyph unicode="&#xd8;" horiz-adv-x="1888" d="M113 729q0 186 54 332.5t139 234.5t198.5 146.5t222.5 80t221 21.5q223 0 385 -71l146 204l155 -112l-135 -187q283 -254 283 -649q0 -186 -54.5 -331.5t-139.5 -233.5t-198.5 -145.5t-222 -79t-221.5 -21.5q-209 0 -432 86l-172 -244l-156 113l172 240 q-245 215 -245 616zM154 729q0 -405 260 -608l-170 -238l88 -65l172 241q184 -100 407 -100q93 0 183 20.5t189 75t174 137t123 222t48 315.5q0 395 -211 602l160 223l-88 66l-162 -225q-186 108 -416 108q-96 0 -192 -20.5t-200.5 -75.5t-183.5 -139t-130 -223.5 t-51 -315.5zM377 729q0 125 27.5 241.5t86 223t167 172.5t253.5 66q203 0 332 -156l-735 -1024q-131 203 -131 477zM530 729q0 -174 45 -311l617 856q-92 100 -242 115q-114 -9 -199 -72.5t-131.5 -162.5t-68 -205.5t-21.5 -219.5zM582 164l725 1014q98 -189 98 -449 q0 -125 -25.5 -240.5t-80 -222t-155 -171t-233.5 -64.5q-186 0 -329 133zM668 213q47 -61 122.5 -98t151.5 -43q115 8 200 71.5t132 161.5t68.5 204.5t21.5 219.5q0 199 -61 379z" />
<glyph unicode="&#xd9;" horiz-adv-x="1874" d="M20 1446q0 33 13 70q88 0 238.5 -5.5t209.5 -5.5q43 0 166 2t213 2q10 -30 10 -61q0 -29 -8 -62q-221 -22 -223 -59q-4 -70 -4 -731q0 -252 79 -372t263 -130q194 12 299.5 141.5t105.5 360.5q0 475 -6 715q-2 49 -215 80q-8 24 -8 49q0 30 14 71q283 -8 338 -8 q107 0 273 6q14 -43 14 -63q0 -31 -14 -62q-207 -20 -209 -73q-10 -193 -10 -715q0 -156 -41 -277.5t-104.5 -195.5t-147.5 -122t-162 -65.5t-158 -17.5q-160 0 -276.5 28.5t-213 100.5t-145.5 209t-49 340q0 489 -10 731q-2 37 -223 59q-9 31 -9 60zM61 1425q45 -4 74 -8 t71 -14t64.5 -29.5t22.5 -46.5q10 -317 10 -731q0 -190 46 -319.5t137.5 -197t200 -94t259.5 -26.5q74 0 147.5 16.5t151.5 61.5t137.5 114.5t97.5 184.5t38 260q0 479 10 717q4 88 221 108q8 17 0 47q-188 -6 -268 -6q-125 0 -285 6q-8 -16 0 -47q219 -20 221 -108 q6 -240 6 -717q0 -262 -124.5 -402.5t-356.5 -140.5q-252 0 -356.5 129t-104.5 414q0 598 4 733q2 76 334 96q6 19 0 48q-262 -9 -409 -9q-123 0 -349 9q-8 -19 0 -48zM551 1968q0 58 35 92.5t92 34.5q146 0 195 -61l262 -326l-68 -94h-71l-394 250q-51 33 -51 104z M592 1968q0 -51 37 -73l354 -226l29 37l-242 301q-36 47 -92 47q-39 0 -62.5 -23.5t-23.5 -62.5z" />
<glyph unicode="&#xda;" horiz-adv-x="1874" d="M20 1446q0 33 13 70q88 0 238.5 -5.5t209.5 -5.5q43 0 166 2t213 2q10 -30 10 -61q0 -29 -8 -62q-221 -22 -223 -59q-4 -70 -4 -731q0 -252 79 -372t263 -130q194 12 299.5 141.5t105.5 360.5q0 475 -6 715q-2 49 -215 80q-8 24 -8 49q0 30 14 71q283 -8 338 -8 q107 0 273 6q14 -43 14 -63q0 -31 -14 -62q-207 -20 -209 -73q-10 -193 -10 -715q0 -156 -41 -277.5t-104.5 -195.5t-147.5 -122t-162 -65.5t-158 -17.5q-160 0 -276.5 28.5t-213 100.5t-145.5 209t-49 340q0 489 -10 731q-2 37 -223 59q-9 31 -9 60zM61 1425q45 -4 74 -8 t71 -14t64.5 -29.5t22.5 -46.5q10 -317 10 -731q0 -190 46 -319.5t137.5 -197t200 -94t259.5 -26.5q74 0 147.5 16.5t151.5 61.5t137.5 114.5t97.5 184.5t38 260q0 479 10 717q4 88 221 108q8 17 0 47q-188 -6 -268 -6q-125 0 -285 6q-8 -16 0 -47q219 -20 221 -108 q6 -240 6 -717q0 -262 -124.5 -402.5t-356.5 -140.5q-252 0 -356.5 129t-104.5 414q0 598 4 733q2 76 334 96q6 19 0 48q-262 -9 -409 -9q-123 0 -349 9q-8 -19 0 -48zM848 1708l260 324q51 63 125 63h71q58 0 92.5 -34.5t34.5 -92.5q0 -71 -51 -104l-393 -250h-72z M899 1706l28 -37l355 226q37 22 37 73q0 39 -24 62.5t-62 23.5q-56 0 -93 -47z" />
<glyph unicode="&#xdb;" horiz-adv-x="1874" d="M20 1446q0 33 13 70q88 0 238.5 -5.5t209.5 -5.5q43 0 166 2t213 2q10 -30 10 -61q0 -29 -8 -62q-221 -22 -223 -59q-4 -70 -4 -731q0 -252 79 -372t263 -130q194 12 299.5 141.5t105.5 360.5q0 475 -6 715q-2 49 -215 80q-8 24 -8 49q0 30 14 71q283 -8 338 -8 q107 0 273 6q14 -43 14 -63q0 -31 -14 -62q-207 -20 -209 -73q-10 -193 -10 -715q0 -156 -41 -277.5t-104.5 -195.5t-147.5 -122t-162 -65.5t-158 -17.5q-160 0 -276.5 28.5t-213 100.5t-145.5 209t-49 340q0 489 -10 731q-2 37 -223 59q-9 31 -9 60zM61 1425q45 -4 74 -8 t71 -14t64.5 -29.5t22.5 -46.5q10 -317 10 -731q0 -190 46 -319.5t137.5 -197t200 -94t259.5 -26.5q74 0 147.5 16.5t151.5 61.5t137.5 114.5t97.5 184.5t38 260q0 479 10 717q4 88 221 108q8 17 0 47q-188 -6 -268 -6q-125 0 -285 6q-8 -16 0 -47q219 -20 221 -108 q6 -240 6 -717q0 -262 -124.5 -402.5t-356.5 -140.5q-252 0 -356.5 129t-104.5 414q0 598 4 733q2 76 334 96q6 19 0 48q-262 -9 -409 -9q-123 0 -349 9q-8 -19 0 -48zM567 1612l318 414h231l317 -414h-241l-193 141l-190 -141h-242zM649 1653h74l241 178l242 -178h74 l-256 332h-119z" />
<glyph unicode="&#xdc;" horiz-adv-x="1874" d="M20 1446q0 33 13 70q88 0 238.5 -5.5t209.5 -5.5q43 0 166 2t213 2q10 -30 10 -61q0 -29 -8 -62q-221 -22 -223 -59q-4 -70 -4 -731q0 -252 79 -372t263 -130q194 12 299.5 141.5t105.5 360.5q0 475 -6 715q-2 49 -215 80q-8 24 -8 49q0 30 14 71q283 -8 338 -8 q107 0 273 6q14 -43 14 -63q0 -31 -14 -62q-207 -20 -209 -73q-10 -193 -10 -715q0 -156 -41 -277.5t-104.5 -195.5t-147.5 -122t-162 -65.5t-158 -17.5q-160 0 -276.5 28.5t-213 100.5t-145.5 209t-49 340q0 489 -10 731q-2 37 -223 59q-9 31 -9 60zM61 1425q45 -4 74 -8 t71 -14t64.5 -29.5t22.5 -46.5q10 -317 10 -731q0 -190 46 -319.5t137.5 -197t200 -94t259.5 -26.5q74 0 147.5 16.5t151.5 61.5t137.5 114.5t97.5 184.5t38 260q0 479 10 717q4 88 221 108q8 17 0 47q-188 -6 -268 -6q-125 0 -285 6q-8 -16 0 -47q219 -20 221 -108 q6 -240 6 -717q0 -262 -124.5 -402.5t-356.5 -140.5q-252 0 -356.5 129t-104.5 414q0 598 4 733q2 76 334 96q6 19 0 48q-262 -9 -409 -9q-123 0 -349 9q-8 -19 0 -48zM578 1827q0 33 13 63t35 52.5t51.5 35.5t63.5 13q187 0 217 -111q17 49 60 80t96 31q225 0 225 -164 t-225 -164q-53 0 -96 30t-60 79q-30 -109 -217 -109q-34 0 -63.5 13t-51.5 35.5t-35 52.5t-13 63zM618 1827q0 -26 9 -48.5t24 -39t35 -26t41 -9.5t41 9.5t35 26t24 39t9 48.5t-9 48.5t-24 39t-35 26t-41 9.5t-41 -9t-37 -28q-31 -34 -31 -86zM991 1827q0 -25 8.5 -47.5 t23.5 -39t34.5 -26.5t42.5 -10q22 0 41.5 10t34.5 26.5t23.5 39t8.5 47.5t-8.5 47t-23.5 39t-34.5 27t-41.5 10q-45 0 -78 -37q-31 -34 -31 -86z" />
<glyph unicode="&#xdd;" horiz-adv-x="1573" d="M-20 1444q0 31 12 67q211 -8 497 -8q207 0 306 4q10 -34 10 -59q0 -29 -10 -66q-107 -8 -148 -18t-41 -31q0 -6 244 -444q272 452 272 457q0 10 -12 18t-32.5 13t-38 7t-40 4.5t-26.5 2.5q-17 53 6 120q184 -8 274 -8q84 0 244 8q23 -69 0 -127q-154 -14 -203 -92 l-338 -542q0 -406 11 -609q2 -37 223 -59q14 -59 -4 -127q-275 4 -414 4q-137 0 -412 -4q-32 59 0 127q218 22 220 57q10 277 12 496l-373 649q-49 82 -231 100q-8 31 -8 60zM20 1423q177 -16 236 -123l377 -657q-2 -235 -12 -506q-3 -74 -232 -96q-10 -25 0 -49 q442 8 758 2q8 20 0 49q-332 20 -334 94q-10 287 -10 445l457 731q59 96 208 110q9 17 0 47q-112 -6 -227 -6q-104 0 -233 6q-9 -16 0 -47q147 -16 157 -65q4 -19 -12 -45l-362 -598l-328 585q-35 66 21.5 87.5t271.5 35.5q8 29 0 47q-295 -14 -736 0q-8 -18 0 -47z M697 1708l260 324q51 63 125 63h71q58 0 92.5 -34.5t34.5 -92.5q0 -71 -51 -104l-393 -250h-72zM748 1706l28 -37l355 226q37 22 37 73q0 39 -24 62.5t-62 23.5q-56 0 -93 -47z" />
<glyph unicode="&#xde;" horiz-adv-x="1442" d="M72 1384q-17 66 4 129q88 0 238.5 -5t209.5 -5q41 0 164 2t215 2q19 -57 2 -123q-221 -22 -223 -59q-2 -35 -2 -100q72 10 221 10q225 0 359.5 -126t134.5 -337q0 -207 -132.5 -344t-373.5 -137q-162 0 -215 10q4 -106 8 -162q0 -6 5 -12t17.5 -12t41.5 -15t91 -16.5 t70 -9.5q17 -56 -6 -123q-369 8 -448 8q-54 0 -377 -8q-25 69 0 129q217 22 219 59q12 590 0 1186q0 37 -223 59zM104 -6q170 6 349 6q213 0 409 -6q8 16 0 47q-332 20 -334 96q-4 78 -8 238q121 -43 297 -43q203 0 313.5 125t110.5 315q0 193 -111.5 307.5t-300.5 114.5 q-194 0 -305 -41q0 59 4 174q2 76 334 96q6 19 0 47q-262 -8 -409 -8q-123 0 -349 8q-8 -18 0 -47q234 -22 234 -96q2 -405 -2 -1190q0 -74 -232 -96q-8 -16 0 -47zM520 440q-8 271 2 641q92 27 227 27q273 0 273 -334q0 -162 -72 -259t-211 -97q-133 0 -219 22zM672 471 q43 -8 90 -12q106 8 162.5 94t56.5 221q0 277 -207 291q-57 -2 -100 -14q-8 -267 -2 -580z" />
<glyph unicode="&#xdf;" horiz-adv-x="1290" d="M55 -43q-16 59 0 121q164 16 166 61q4 99 4 983q8 437 453 437q86 0 161.5 -19.5t139 -60.5t100.5 -115t37 -174q0 -252 -164 -354q248 -84 248 -422q0 -117 -39 -224.5t-125 -183.5t-201 -76q-167 0 -262 74l2 -45l-442 -2h-78zM92 -8l340 8l-8 137q-8 180 -8 1063 q0 254 229 254q158 0 158 -264q0 -60 -5.5 -107t-20.5 -95t-40.5 -81t-71 -53t-106.5 -20h-25v-62h29q105 0 173.5 -32.5t97 -92t37.5 -111t9 -122.5q0 -162 -17 -249t-40.5 -109.5t-64.5 -22.5q-72 0 -104 29.5t-32 68.5q0 55 52 70q10 24 0 47q-54 0 -88.5 -33t-34.5 -92 q0 -57 58.5 -104.5t154.5 -47.5q137 0 216 136.5t79 306.5q0 184 -86 289.5t-246 113.5v8q248 70 248 365q0 170 -100.5 250t-229.5 80q-43 0 -85 -6.5t-97.5 -32t-96.5 -65.5t-70.5 -116.5t-29.5 -177.5q0 -886 -4 -985q-2 -74 -170 -96q-10 -25 0 -49zM557 731 q0 -256 4 -502q35 41 102 41q125 0 125 -129q0 -45 -24 -73q14 0 25.5 11t19.5 29.5t14 40t9 49t5.5 52t2.5 53.5v46.5v39v25.5q0 61 -8.5 105t-34 96.5t-87 82t-153.5 33.5zM557 874q121 0 163 86.5t42 229.5q0 192 -86 219q-119 -25 -119 -209v-326z" />
<glyph unicode="&#xe0;" horiz-adv-x="1145" d="M113 158q0 147 99 220t400 150v109q0 80 -33.5 117t-86.5 37q-113 0 -162 -64q47 -8 74.5 -36.5t27.5 -72.5q0 -53 -35 -87.5t-92 -34.5q-59 0 -107 42t-48 119q0 131 124.5 212t325.5 81q191 0 268.5 -76.5t77.5 -257.5v-350l64 2q82 -6 114 -78l-32 -55 q-31 -47 -51.5 -72.5t-58.5 -57.5t-89 -46t-119 -14q-84 0 -127 63q-108 -78 -282 -78q-76 0 -129.5 23.5t-78 62.5t-34.5 73t-10 69zM154 158q0 -68 46 -127.5t165 -59.5q47 0 88.5 15t86 48.5t54.5 42.5t33.5 31.5t25.5 24.5q13 -147 121 -147q27 0 62 14t70.5 55t45 54.5 t28.5 43t28 40.5q-13 28 -50 32q-55 -84 -112 -82q-41 2 -41 58v415q0 160 -62.5 226.5t-214.5 66.5q-137 0 -237.5 -70.5t-100.5 -181.5q0 -57 35 -88.5t80 -31.5q14 20 0 47q-35 0 -49 51q-20 82 49 143q68 60 205 60q65 0 104 -50.5t39 -150.5v-139q-295 -76 -397 -143.5 t-102 -196.5zM208 1382q0 58 35 92.5t92 34.5q146 0 195 -61l262 -326l-68 -94h-71l-394 250q-51 33 -51 104zM249 1382q0 -51 37 -73l354 -226l29 37l-242 301q-36 47 -92 47q-39 0 -62.5 -23.5t-23.5 -62.5zM326 205q0 82 67.5 135t259.5 94v-209q-96 -127 -196 -127 q-58 0 -94.5 28t-36.5 79zM467 205q0 -43 31 -60q53 19 114 93v122q-145 -53 -145 -155z" />
<glyph unicode="&#xe1;" horiz-adv-x="1145" d="M113 158q0 147 99 220t400 150v109q0 80 -33.5 117t-86.5 37q-113 0 -162 -64q47 -8 74.5 -36.5t27.5 -72.5q0 -53 -35 -87.5t-92 -34.5q-59 0 -107 42t-48 119q0 131 124.5 212t325.5 81q191 0 268.5 -76.5t77.5 -257.5v-350l64 2q82 -6 114 -78l-32 -55 q-31 -47 -51.5 -72.5t-58.5 -57.5t-89 -46t-119 -14q-84 0 -127 63q-108 -78 -282 -78q-76 0 -129.5 23.5t-78 62.5t-34.5 73t-10 69zM154 158q0 -68 46 -127.5t165 -59.5q47 0 88.5 15t86 48.5t54.5 42.5t33.5 31.5t25.5 24.5q13 -147 121 -147q27 0 62 14t70.5 55t45 54.5 t28.5 43t28 40.5q-13 28 -50 32q-55 -84 -112 -82q-41 2 -41 58v415q0 160 -62.5 226.5t-214.5 66.5q-137 0 -237.5 -70.5t-100.5 -181.5q0 -57 35 -88.5t80 -31.5q14 20 0 47q-35 0 -49 51q-20 82 49 143q68 60 205 60q65 0 104 -50.5t39 -150.5v-139q-295 -76 -397 -143.5 t-102 -196.5zM326 205q0 82 67.5 135t259.5 94v-209q-96 -127 -196 -127q-58 0 -94.5 28t-36.5 79zM341 1122l260 324q51 63 125 63h71q58 0 92.5 -34.5t34.5 -92.5q0 -71 -51 -104l-393 -250h-72zM392 1120l28 -37l355 226q37 22 37 73q0 39 -24 62.5t-62 23.5 q-56 0 -93 -47zM467 205q0 -43 31 -60q53 19 114 93v122q-145 -53 -145 -155z" />
<glyph unicode="&#xe2;" horiz-adv-x="1145" d="M113 158q0 147 99 220t400 150v109q0 80 -33.5 117t-86.5 37q-113 0 -162 -64q47 -8 74.5 -36.5t27.5 -72.5q0 -53 -35 -87.5t-92 -34.5q-59 0 -107 42t-48 119q0 131 124.5 212t325.5 81q191 0 268.5 -76.5t77.5 -257.5v-350l64 2q82 -6 114 -78l-32 -55 q-31 -47 -51.5 -72.5t-58.5 -57.5t-89 -46t-119 -14q-84 0 -127 63q-108 -78 -282 -78q-76 0 -129.5 23.5t-78 62.5t-34.5 73t-10 69zM146 1026l318 414h231l317 -414h-241l-193 141l-190 -141h-242zM154 158q0 -68 46 -127.5t165 -59.5q47 0 88.5 15t86 48.5t54.5 42.5 t33.5 31.5t25.5 24.5q13 -147 121 -147q27 0 62 14t70.5 55t45 54.5t28.5 43t28 40.5q-13 28 -50 32q-55 -84 -112 -82q-41 2 -41 58v415q0 160 -62.5 226.5t-214.5 66.5q-137 0 -237.5 -70.5t-100.5 -181.5q0 -57 35 -88.5t80 -31.5q14 20 0 47q-35 0 -49 51q-20 82 49 143 q68 60 205 60q65 0 104 -50.5t39 -150.5v-139q-295 -76 -397 -143.5t-102 -196.5zM228 1067h74l241 178l242 -178h74l-256 332h-119zM326 205q0 82 67.5 135t259.5 94v-209q-96 -127 -196 -127q-58 0 -94.5 28t-36.5 79zM467 205q0 -43 31 -60q53 19 114 93v122 q-145 -53 -145 -155z" />
<glyph unicode="&#xe3;" horiz-adv-x="1145" d="M113 158q0 147 99 220t400 150v109q0 80 -33.5 117t-86.5 37q-113 0 -162 -64q47 -8 74.5 -36.5t27.5 -72.5q0 -53 -35 -87.5t-92 -34.5q-59 0 -107 42t-48 119q0 131 124.5 212t325.5 81q191 0 268.5 -76.5t77.5 -257.5v-350l64 2q82 -6 114 -78l-32 -55 q-31 -47 -51.5 -72.5t-58.5 -57.5t-89 -46t-119 -14q-84 0 -127 63q-108 -78 -282 -78q-76 0 -129.5 23.5t-78 62.5t-34.5 73t-10 69zM147 1087q114 283 276 283q94 0 313 -55q31 16 47 67h220q-90 -295 -279 -295q-100 0 -309 54q-27 -13 -60 -54h-208zM154 158 q0 -68 46 -127.5t165 -59.5q47 0 88.5 15t86 48.5t54.5 42.5t33.5 31.5t25.5 24.5q13 -147 121 -147q27 0 62 14t70.5 55t45 54.5t28.5 43t28 40.5q-13 28 -50 32q-55 -84 -112 -82q-41 2 -41 58v415q0 160 -62.5 226.5t-214.5 66.5q-137 0 -237.5 -70.5t-100.5 -181.5 q0 -57 35 -88.5t80 -31.5q14 20 0 47q-35 0 -49 51q-20 82 49 143q68 60 205 60q65 0 104 -50.5t39 -150.5v-139q-295 -76 -397 -143.5t-102 -196.5zM208 1128h55q47 62 113 62q45 0 136 -31t140 -31q160 0 224 213h-62q-22 -73 -102 -73q-31 0 -136.5 30.5t-152.5 30.5 q-135 0 -215 -201zM326 205q0 82 67.5 135t259.5 94v-209q-96 -127 -196 -127q-58 0 -94.5 28t-36.5 79zM467 205q0 -43 31 -60q53 19 114 93v122q-145 -53 -145 -155z" />
<glyph unicode="&#xe4;" horiz-adv-x="1145" d="M113 158q0 147 99 220t400 150v109q0 80 -33.5 117t-86.5 37q-113 0 -162 -64q47 -8 74.5 -36.5t27.5 -72.5q0 -53 -35 -87.5t-92 -34.5q-59 0 -107 42t-48 119q0 131 124.5 212t325.5 81q191 0 268.5 -76.5t77.5 -257.5v-350l64 2q82 -6 114 -78l-32 -55 q-31 -47 -51.5 -72.5t-58.5 -57.5t-89 -46t-119 -14q-84 0 -127 63q-108 -78 -282 -78q-76 0 -129.5 23.5t-78 62.5t-34.5 73t-10 69zM154 158q0 -68 46 -127.5t165 -59.5q47 0 88.5 15t86 48.5t54.5 42.5t33.5 31.5t25.5 24.5q13 -147 121 -147q27 0 62 14t70.5 55t45 54.5 t28.5 43t28 40.5q-13 28 -50 32q-55 -84 -112 -82q-41 2 -41 58v415q0 160 -62.5 226.5t-214.5 66.5q-137 0 -237.5 -70.5t-100.5 -181.5q0 -57 35 -88.5t80 -31.5q14 20 0 47q-35 0 -49 51q-20 82 49 143q68 60 205 60q65 0 104 -50.5t39 -150.5v-139q-295 -76 -397 -143.5 t-102 -196.5zM194 1241q0 33 13 63t35 52.5t51.5 35.5t63.5 13q187 0 217 -111q17 49 60 80t96 31q225 0 225 -164t-225 -164q-53 0 -96 30t-60 79q-30 -109 -217 -109q-34 0 -63.5 13t-51.5 35.5t-35 52.5t-13 63zM234 1241q0 -26 9 -48.5t24 -39t35 -26t41 -9.5t41 9.5 t35 26t24 39t9 48.5t-9 48.5t-24 39t-35 26t-41 9.5t-41 -9t-37 -28q-31 -34 -31 -86zM326 205q0 82 67.5 135t259.5 94v-209q-96 -127 -196 -127q-58 0 -94.5 28t-36.5 79zM467 205q0 -43 31 -60q53 19 114 93v122q-145 -53 -145 -155zM607 1241q0 -25 8.5 -47.5t23.5 -39 t34.5 -26.5t42.5 -10q22 0 41.5 10t34.5 26.5t23.5 39t8.5 47.5t-8.5 47t-23.5 39t-34.5 27t-41.5 10q-45 0 -78 -37q-31 -34 -31 -86z" />
<glyph unicode="&#xe5;" horiz-adv-x="1145" d="M113 158q0 147 99 220t400 150v109q0 80 -33.5 117t-86.5 37q-113 0 -162 -64q47 -8 74.5 -36.5t27.5 -72.5q0 -53 -35 -87.5t-92 -34.5q-59 0 -107 42t-48 119q0 131 124.5 212t325.5 81q191 0 268.5 -76.5t77.5 -257.5v-350l64 2q82 -6 114 -78l-32 -55 q-31 -47 -51.5 -72.5t-58.5 -57.5t-89 -46t-119 -14q-84 0 -127 63q-108 -78 -282 -78q-76 0 -129.5 23.5t-78 62.5t-34.5 73t-10 69zM154 158q0 -68 46 -127.5t165 -59.5q47 0 88.5 15t86 48.5t54.5 42.5t33.5 31.5t25.5 24.5q13 -147 121 -147q27 0 62 14t70.5 55t45 54.5 t28.5 43t28 40.5q-13 28 -50 32q-55 -84 -112 -82q-41 2 -41 58v415q0 160 -62.5 226.5t-214.5 66.5q-137 0 -237.5 -70.5t-100.5 -181.5q0 -57 35 -88.5t80 -31.5q14 20 0 47q-35 0 -49 51q-20 82 49 143q68 60 205 60q65 0 104 -50.5t39 -150.5v-139q-295 -76 -397 -143.5 t-102 -196.5zM296 1262q0 57 21.5 102t56 76.5t78.5 48t88 16.5h72q46 0 90 -17t78.5 -48.5t55.5 -76.5t21 -101q0 -53 -18 -98t-50.5 -78t-77.5 -51.5t-99 -18.5h-72q-54 0 -98.5 18.5t-77 51.5t-50.5 78t-18 98zM326 205q0 82 67.5 135t259.5 94v-209q-96 -127 -196 -127 q-58 0 -94.5 28t-36.5 79zM337 1262q0 -44 15.5 -81.5t42.5 -65t64 -43t81 -15.5q43 0 80.5 15t65.5 42t43.5 65t15.5 83q0 47 -17.5 84.5t-46.5 63.5t-66 40t-75 14q-37 0 -73 -13.5t-65 -39.5t-47 -63.5t-18 -85.5zM419 1260q0 25 10 47.5t26.5 39t38.5 26t46 9.5 q25 0 47.5 -10.5t39 -27.5t26.5 -39t10 -46q0 -23 -10 -44.5t-27 -38.5t-39 -27t-47 -10q-23 0 -44.5 10t-38.5 26.5t-27.5 38.5t-10.5 46zM467 205q0 -43 31 -60q53 19 114 93v122q-145 -53 -145 -155zM532 1260q0 -48 45 -72q45 24 45 71q0 48 -47 72q-43 -19 -43 -71z " />
<glyph unicode="&#xe6;" horiz-adv-x="1608" d="M113 158q0 147 99 220t400 150v109q0 74 -31.5 116t-91.5 42q-110 -4 -159 -68q47 -8 74.5 -36.5t27.5 -72.5q0 -53 -35 -87.5t-92 -34.5q-59 0 -107 42t-48 119q0 131 115.5 212t299.5 81q189 0 285 -67q115 67 313 67q180 0 264 -92t84 -225q0 -62 -28 -144h-537v-65 q4 -121 65.5 -196.5t168.5 -88.5q63 6 104 43t100 125q64 -14 103 -63q-57 -156 -176 -235t-254 -79q-172 0 -305 117q-80 -61 -161 -89t-226 -28q-76 0 -129.5 23.5t-78 62.5t-34.5 73t-10 69zM154 158q0 -68 46 -127.5t165 -59.5q75 0 140.5 23.5t105.5 52.5t116 92 q111 -168 330 -168q123 0 228.5 66.5t154.5 200.5q-15 16 -39 22q-4 -6 -23.5 -32.5t-29 -38t-33 -33t-45 -31.5t-54 -19.5t-71.5 -9.5q-154 0 -245 90t-95 238l4 106h545q16 50 16 103q0 117 -66.5 196.5t-211.5 79.5q-170 0 -291 -116q-62 116 -273 116 q-137 0 -237.5 -70.5t-100.5 -181.5q0 -57 35 -88.5t80 -31.5q14 20 0 47q-20 0 -35.5 23.5t-15.5 58.5q0 65 57.5 117.5t184.5 54.5q71 -2 114 -52.5t43 -148.5v-139q-295 -76 -397 -143.5t-102 -196.5zM326 205q0 82 67.5 135t259.5 94v-256q-90 -80 -196 -80 q-58 0 -94.5 28t-36.5 79zM467 205q0 -47 37 -62q59 11 108 54v163q-145 -53 -145 -155zM819 598q31 125 100.5 185.5t147.5 60.5q80 0 116 -51.5t36 -128.5q0 -29 -11 -66h-389zM973 639h203q0 4 1 12t1 13q0 110 -74 133q-88 -27 -131 -158z" />
<glyph unicode="&#xe7;" horiz-adv-x="1090" d="M102 424q0 117 39 214t107 166.5t160.5 107.5t199.5 38q79 0 145 -19t113.5 -53t74 -81t26.5 -103q0 -35 -12.5 -62.5t-34 -47.5t-51.5 -30.5t-64 -10.5q-125 0 -125 110q0 69 86 101q-57 39 -119 45q-184 -27 -184 -375q0 -262 194 -285q117 15 228 160q66 -7 104 -55 q-25 -68 -64.5 -122.5t-88.5 -93.5t-106 -63.5t-118 -32.5q51 0 92.5 -12.5t71.5 -36t46 -57.5t16 -78t-19 -83t-54 -69t-84.5 -47.5t-111.5 -17.5q-63 0 -111 8t-85.5 24.5t-66 42.5t-52.5 62l65 84l62 211q-62 25 -113.5 66t-88.5 98.5t-57 131.5t-20 165zM143 424 q0 -180 82 -288.5t209 -145.5l-55 -178q51 14 96 14q96 0 96 -82q0 -41 -29.5 -67.5t-78.5 -26.5q-86 0 -131 47l-27 -31q62 -94 193 -94q94 0 146 52t52 124q0 70 -37.5 106.5t-101.5 36.5q-70 0 -92 -4l29 90q34 -6 65 -6q123 0 228.5 66.5t154.5 200.5q-14 16 -39 22 q-26 -37 -42.5 -54.5t-53.5 -49t-83 -46t-101 -14.5q-156 0 -228.5 91.5t-72.5 236.5q0 420 286 420q115 0 181.5 -38t66.5 -112q0 -61 -51 -76q-14 -26 0 -47q51 0 86 35t35 88q0 94 -88 154.5t-230 60.5q-198 0 -331.5 -134t-133.5 -351zM403 -244q46 -49 93 -59 q34 12 34 47q0 27 -26 37q-35 -6 -101 -25z" />
<glyph unicode="&#xe8;" horiz-adv-x="1106" d="M102 424q0 223 137.5 374.5t389.5 151.5q381 0 381 -317q0 -62 -29 -144h-537v-65q5 -121 66 -196.5t168 -88.5q63 6 104 43t101 125q63 -14 102 -63q-57 -156 -176 -235t-254 -79q-184 0 -318.5 124t-134.5 370zM143 424q0 -225 123 -339t289 -114q123 0 228.5 66.5 t154.5 200.5q-14 16 -39 22q-4 -6 -23.5 -32.5t-28.5 -38t-32.5 -33t-45 -31.5t-54.5 -19.5t-72 -9.5q-154 0 -245 91.5t-95 246.5q0 35 4 96h545q16 50 16 103q0 117 -66.5 196.5t-211.5 79.5q-189 0 -318 -137t-129 -348zM268 1382q0 58 35 92.5t92 34.5q146 0 195 -61 l262 -326l-68 -94h-71l-394 250q-51 33 -51 104zM309 1382q0 -51 37 -73l354 -226l29 37l-242 301q-36 47 -92 47q-39 0 -62.5 -23.5t-23.5 -62.5zM317 598q31 125 100.5 185.5t147.5 60.5q80 0 116 -51.5t36 -128.5q0 -29 -10 -66h-390zM471 639h203q0 4 1 12t1 13 q0 110 -74 133q-88 -27 -131 -158z" />
<glyph unicode="&#xe9;" horiz-adv-x="1106" d="M102 424q0 223 137.5 374.5t389.5 151.5q381 0 381 -317q0 -62 -29 -144h-537v-65q5 -121 66 -196.5t168 -88.5q63 6 104 43t101 125q63 -14 102 -63q-57 -156 -176 -235t-254 -79q-184 0 -318.5 124t-134.5 370zM143 424q0 -225 123 -339t289 -114q123 0 228.5 66.5 t154.5 200.5q-14 16 -39 22q-4 -6 -23.5 -32.5t-28.5 -38t-32.5 -33t-45 -31.5t-54.5 -19.5t-72 -9.5q-154 0 -245 91.5t-95 246.5q0 35 4 96h545q16 50 16 103q0 117 -66.5 196.5t-211.5 79.5q-189 0 -318 -137t-129 -348zM317 598q31 125 100.5 185.5t147.5 60.5 q80 0 116 -51.5t36 -128.5q0 -29 -10 -66h-390zM384 1122l260 324q51 63 125 63h71q58 0 92.5 -34.5t34.5 -92.5q0 -71 -51 -104l-393 -250h-72zM435 1120l28 -37l355 226q37 22 37 73q0 39 -24 62.5t-62 23.5q-56 0 -93 -47zM471 639h203q0 4 1 12t1 13q0 110 -74 133 q-88 -27 -131 -158z" />
<glyph unicode="&#xea;" horiz-adv-x="1106" d="M102 424q0 223 137.5 374.5t389.5 151.5q381 0 381 -317q0 -62 -29 -144h-537v-65q5 -121 66 -196.5t168 -88.5q63 6 104 43t101 125q63 -14 102 -63q-57 -156 -176 -235t-254 -79q-184 0 -318.5 124t-134.5 370zM143 424q0 -225 123 -339t289 -114q123 0 228.5 66.5 t154.5 200.5q-14 16 -39 22q-4 -6 -23.5 -32.5t-28.5 -38t-32.5 -33t-45 -31.5t-54.5 -19.5t-72 -9.5q-154 0 -245 91.5t-95 246.5q0 35 4 96h545q16 50 16 103q0 117 -66.5 196.5t-211.5 79.5q-189 0 -318 -137t-129 -348zM144 1026l318 414h231l317 -414h-241l-193 141 l-190 -141h-242zM226 1067h74l241 178l242 -178h74l-256 332h-119zM317 598q31 125 100.5 185.5t147.5 60.5q80 0 116 -51.5t36 -128.5q0 -29 -10 -66h-390zM471 639h203q0 4 1 12t1 13q0 110 -74 133q-88 -27 -131 -158z" />
<glyph unicode="&#xeb;" horiz-adv-x="1106" d="M102 424q0 223 137.5 374.5t389.5 151.5q381 0 381 -317q0 -62 -29 -144h-537v-65q5 -121 66 -196.5t168 -88.5q63 6 104 43t101 125q63 -14 102 -63q-57 -156 -176 -235t-254 -79q-184 0 -318.5 124t-134.5 370zM143 424q0 -225 123 -339t289 -114q123 0 228.5 66.5 t154.5 200.5q-14 16 -39 22q-4 -6 -23.5 -32.5t-28.5 -38t-32.5 -33t-45 -31.5t-54.5 -19.5t-72 -9.5q-154 0 -245 91.5t-95 246.5q0 35 4 96h545q16 50 16 103q0 117 -66.5 196.5t-211.5 79.5q-189 0 -318 -137t-129 -348zM236 1241q0 33 13 63t35 52.5t51.5 35.5t63.5 13 q187 0 217 -111q17 49 60 80t96 31q225 0 225 -164t-225 -164q-53 0 -96 30t-60 79q-30 -109 -217 -109q-34 0 -63.5 13t-51.5 35.5t-35 52.5t-13 63zM276 1241q0 -26 9 -48.5t24 -39t35 -26t41 -9.5t41 9.5t35 26t24 39t9 48.5t-9 48.5t-24 39t-35 26t-41 9.5t-41 -9 t-37 -28q-31 -34 -31 -86zM317 598q31 125 100.5 185.5t147.5 60.5q80 0 116 -51.5t36 -128.5q0 -29 -10 -66h-390zM471 639h203q0 4 1 12t1 13q0 110 -74 133q-88 -27 -131 -158zM649 1241q0 -25 8.5 -47.5t23.5 -39t34.5 -26.5t42.5 -10q22 0 41.5 10t34.5 26.5t23.5 39 t8.5 47.5t-8.5 47t-23.5 39t-34.5 27t-41.5 10q-45 0 -78 -37q-31 -34 -31 -86z" />
<glyph unicode="&#xec;" horiz-adv-x="780" d="M52 1382q0 58 35 92.5t92 34.5q146 0 195 -61l262 -326l-68 -94h-71l-394 250q-51 33 -51 104zM93 1382q0 -51 37 -73l354 -226l29 37l-242 301q-36 47 -92 47q-39 0 -62.5 -23.5t-23.5 -62.5zM142 -43q-17 59 0 121q163 16 165 61q13 285 2 572q-67 20 -167 26 q-23 60 0 127q151 8 340 90q108 -8 161 -65q-4 -492 8 -750q3 -45 136 -61q16 -62 0 -121q-322 10 -645 0zM178 -8q287 6 572 0q10 24 0 49q-238 22 -240 96q-10 305 -8 742q-8 16 -35 26q-139 -65 -289 -82q-6 -24 0 -47q113 -6 172 -41q9 -373 -2 -598q-2 -74 -170 -96 q-10 -25 0 -49z" />
<glyph unicode="&#xed;" horiz-adv-x="780" d="M82 -43q-17 59 0 121q163 16 165 61q13 285 2 572q-67 20 -167 26q-23 60 0 127q151 8 340 90q108 -8 161 -65q-4 -492 8 -750q3 -45 136 -61q16 -62 0 -121q-322 10 -645 0zM118 -8q287 6 572 0q10 24 0 49q-238 22 -240 96q-10 305 -8 742q-8 16 -35 26 q-139 -65 -289 -82q-6 -24 0 -47q113 -6 172 -41q9 -373 -2 -598q-2 -74 -170 -96q-10 -25 0 -49zM208 1122l260 324q51 63 125 63h71q58 0 92.5 -34.5t34.5 -92.5q0 -71 -51 -104l-393 -250h-72zM259 1120l28 -37l355 226q37 22 37 73q0 39 -24 62.5t-62 23.5 q-56 0 -93 -47z" />
<glyph unicode="&#xee;" horiz-adv-x="780" d="M-48 1026l318 414h231l317 -414h-241l-193 141l-190 -141h-242zM34 1067h74l241 178l242 -178h74l-256 332h-119zM74 -43q-17 59 0 121q163 16 165 61q13 285 2 572q-67 20 -167 26q-23 60 0 127q151 8 340 90q108 -8 161 -65q-4 -492 8 -750q3 -45 136 -61 q16 -62 0 -121q-322 10 -645 0zM110 -8q287 6 572 0q10 24 0 49q-238 22 -240 96q-10 305 -8 742q-8 16 -35 26q-139 -65 -289 -82q-6 -24 0 -47q113 -6 172 -41q9 -373 -2 -598q-2 -74 -170 -96q-10 -25 0 -49z" />
<glyph unicode="&#xef;" horiz-adv-x="780" d="M-9 1241q0 33 13 63t35 52.5t51.5 35.5t63.5 13q187 0 217 -111q17 49 60 80t96 31q225 0 225 -164t-225 -164q-53 0 -96 30t-60 79q-30 -109 -217 -109q-34 0 -63.5 13t-51.5 35.5t-35 52.5t-13 63zM31 1241q0 -26 9 -48.5t24 -39t35 -26t41 -9.5t41 9.5t35 26t24 39 t9 48.5t-9 48.5t-24 39t-35 26t-41 9.5t-41 -9t-37 -28q-31 -34 -31 -86zM74 -43q-17 59 0 121q163 16 165 61q13 285 2 572q-67 20 -167 26q-23 60 0 127q151 8 340 90q108 -8 161 -65q-4 -492 8 -750q3 -45 136 -61q16 -62 0 -121q-322 10 -645 0zM110 -8q287 6 572 0 q10 24 0 49q-238 22 -240 96q-10 305 -8 742q-8 16 -35 26q-139 -65 -289 -82q-6 -24 0 -47q113 -6 172 -41q9 -373 -2 -598q-2 -74 -170 -96q-10 -25 0 -49zM404 1241q0 -25 8.5 -47.5t23.5 -39t34.5 -26.5t42.5 -10q22 0 41.5 10t34.5 26.5t23.5 39t8.5 47.5t-8.5 47 t-23.5 39t-34.5 27t-41.5 10q-45 0 -78 -37q-31 -34 -31 -86z" />
<glyph unicode="&#xf0;" horiz-adv-x="1233" d="M102 440q0 82 22.5 165t73 164t146.5 131t227 50q78 0 119 -2q-33 90 -88 180l-121 -122h-71l-113 124l162 158q-58 51 -174 127l-58 37l72 115h72q137 -64 243 -127l134 129h71l125 -103l-153 -153q192 -193 258.5 -397.5t66.5 -477.5q0 -135 -45 -238.5t-117.5 -159.5 t-151.5 -83t-159 -27q-541 0 -541 510zM143 440q0 -131 42 -227t109.5 -146.5t137.5 -73t139 -22.5q68 0 135.5 26t129 78t100.5 146t39 217q0 262 -69.5 473t-246.5 400l152 151l-61 54l-160 -156q-119 86 -275 156l-30 -52q170 -114 231 -176l-164 -160l60 -63l166 168 q149 -178 178 -371q-64 47 -185 47q-118 0 -206.5 -46t-134.5 -120.5t-66.5 -150.5t-20.5 -152zM322 438q0 68 9 129.5t33.5 129t78 107.5t128.5 40q103 0 164.5 -97.5t61.5 -308.5q0 -63 -7.5 -120.5t-28 -127t-69.5 -111.5t-121 -42q-79 0 -132.5 42t-77 111.5t-31.5 127 t-8 120.5zM463 438q0 -319 145 -356q148 37 148 356q0 324 -150 359q-143 -37 -143 -359z" />
<glyph unicode="&#xf1;" horiz-adv-x="1348" d="M76 -38q-25 59 0 121q163 22 165 61q11 282 0 567q-67 20 -165 26q-23 60 0 127q151 8 340 90q108 -8 161 -65v-33q142 94 326 94q135 0 192.5 -73.5t59.5 -231.5q4 -397 10 -503q2 -41 141 -59q23 -66 -4 -121q-293 6 -585 0q-25 59 0 121q32 0 66 17.5t34 41.5l2 470 q0 109 -43 133q-74 -18 -199 -108q0 -275 8 -493q5 -53 80 -61q25 -62 0 -121q-293 10 -589 0zM110 -3q260 10 523 0q12 26 0 49q-187 20 -189 96q-8 208 -8 474q201 177 315 177q109 0 109 -181l-2 -470q0 -49 -30 -68.5t-79 -27.5q-12 -23 0 -49q260 6 521 0q14 24 0 49 q-244 12 -246 96l-10 503q-5 137 -44.5 200.5t-138.5 63.5q-166 0 -395 -229v199q-8 16 -35 26q-139 -65 -289 -82q-6 -24 0 -47q115 -6 170 -41q11 -299 0 -593q-2 -74 -172 -96q-12 -23 0 -49zM291 1087q114 283 276 283q94 0 313 -55q31 16 47 67h220q-90 -295 -279 -295 q-100 0 -309 54q-27 -13 -60 -54h-208zM352 1128h55q47 62 113 62q45 0 136 -31t140 -31q160 0 224 213h-62q-22 -73 -102 -73q-31 0 -136.5 30.5t-152.5 30.5q-135 0 -215 -201z" />
<glyph unicode="&#xf2;" horiz-adv-x="1212" d="M102 440q0 113 34 207t99 161.5t159 104.5t214 37q121 0 215.5 -37t159.5 -104.5t99 -161.5t34 -207q0 -112 -34 -206t-98.5 -161.5t-159.5 -105t-216 -37.5q-120 0 -214.5 37.5t-159 105t-98.5 161t-34 206.5zM143 440q0 -103 30 -189t85.5 -148.5t135.5 -97t179 -34.5 q93 0 167 35t126.5 97.5t80.5 148.5t28 188t-28 188t-80.5 148.5t-126.5 97.5t-167 35q-99 0 -179 -35t-135.5 -97t-85.5 -148.5t-30 -188.5zM220 1382q0 58 35 92.5t92 34.5q146 0 195 -61l262 -326l-68 -94h-71l-394 250q-51 33 -51 104zM261 1382q0 -51 37 -73l354 -226 l29 37l-242 301q-36 47 -92 47q-39 0 -62.5 -23.5t-23.5 -62.5zM322 440q0 103 18 179.5t50.5 126t79 74t103.5 24.5q103 0 163.5 -98.5t60.5 -305.5t-60.5 -305t-163.5 -98q-57 0 -103.5 24t-79 74t-50.5 125.5t-18 179.5zM463 440q0 -323 145 -358q148 35 148 358 q0 320 -148 359q-145 -39 -145 -359z" />
<glyph unicode="&#xf3;" horiz-adv-x="1212" d="M102 440q0 113 34 207t99 161.5t159 104.5t214 37q121 0 215.5 -37t159.5 -104.5t99 -161.5t34 -207q0 -112 -34 -206t-98.5 -161.5t-159.5 -105t-216 -37.5q-120 0 -214.5 37.5t-159 105t-98.5 161t-34 206.5zM143 440q0 -103 30 -189t85.5 -148.5t135.5 -97t179 -34.5 q93 0 167 35t126.5 97.5t80.5 148.5t28 188t-28 188t-80.5 148.5t-126.5 97.5t-167 35q-99 0 -179 -35t-135.5 -97t-85.5 -148.5t-30 -188.5zM322 440q0 103 18 179.5t50.5 126t79 74t103.5 24.5q103 0 163.5 -98.5t60.5 -305.5t-60.5 -305t-163.5 -98q-57 0 -103.5 24 t-79 74t-50.5 125.5t-18 179.5zM397 1122l260 324q51 63 125 63h71q58 0 92.5 -34.5t34.5 -92.5q0 -71 -51 -104l-393 -250h-72zM448 1120l28 -37l355 226q37 22 37 73q0 39 -24 62.5t-62 23.5q-56 0 -93 -47zM463 440q0 -323 145 -358q148 35 148 358q0 320 -148 359 q-145 -39 -145 -359z" />
<glyph unicode="&#xf4;" horiz-adv-x="1212" d="M102 440q0 113 34 207t99 161.5t159 104.5t214 37q121 0 215.5 -37t159.5 -104.5t99 -161.5t34 -207q0 -112 -34 -206t-98.5 -161.5t-159.5 -105t-216 -37.5q-120 0 -214.5 37.5t-159 105t-98.5 161t-34 206.5zM143 440q0 -103 30 -189t85.5 -148.5t135.5 -97t179 -34.5 q93 0 167 35t126.5 97.5t80.5 148.5t28 188t-28 188t-80.5 148.5t-126.5 97.5t-167 35q-99 0 -179 -35t-135.5 -97t-85.5 -148.5t-30 -188.5zM180 1026l318 414h231l317 -414h-241l-193 141l-190 -141h-242zM262 1067h74l241 178l242 -178h74l-256 332h-119zM322 440 q0 103 18 179.5t50.5 126t79 74t103.5 24.5q103 0 163.5 -98.5t60.5 -305.5t-60.5 -305t-163.5 -98q-57 0 -103.5 24t-79 74t-50.5 125.5t-18 179.5zM463 440q0 -323 145 -358q148 35 148 358q0 320 -148 359q-145 -39 -145 -359z" />
<glyph unicode="&#xf5;" horiz-adv-x="1212" d="M102 440q0 113 34 207t99 161.5t159 104.5t214 37q121 0 215.5 -37t159.5 -104.5t99 -161.5t34 -207q0 -112 -34 -206t-98.5 -161.5t-159.5 -105t-216 -37.5q-120 0 -214.5 37.5t-159 105t-98.5 161t-34 206.5zM143 440q0 -103 30 -189t85.5 -148.5t135.5 -97t179 -34.5 q93 0 167 35t126.5 97.5t80.5 148.5t28 188t-28 188t-80.5 148.5t-126.5 97.5t-167 35q-99 0 -179 -35t-135.5 -97t-85.5 -148.5t-30 -188.5zM188 1087q114 283 276 283q94 0 313 -55q31 16 47 67h220q-90 -295 -279 -295q-100 0 -309 54q-27 -13 -60 -54h-208zM249 1128h55 q47 62 113 62q45 0 136 -31t140 -31q160 0 224 213h-62q-22 -73 -102 -73q-31 0 -136.5 30.5t-152.5 30.5q-135 0 -215 -201zM322 440q0 103 18 179.5t50.5 126t79 74t103.5 24.5q103 0 163.5 -98.5t60.5 -305.5t-60.5 -305t-163.5 -98q-57 0 -103.5 24t-79 74t-50.5 125.5 t-18 179.5zM463 440q0 -323 145 -358q148 35 148 358q0 320 -148 359q-145 -39 -145 -359z" />
<glyph unicode="&#xf6;" horiz-adv-x="1212" d="M102 440q0 113 34 207t99 161.5t159 104.5t214 37q121 0 215.5 -37t159.5 -104.5t99 -161.5t34 -207q0 -112 -34 -206t-98.5 -161.5t-159.5 -105t-216 -37.5q-120 0 -214.5 37.5t-159 105t-98.5 161t-34 206.5zM143 440q0 -103 30 -189t85.5 -148.5t135.5 -97t179 -34.5 q93 0 167 35t126.5 97.5t80.5 148.5t28 188t-28 188t-80.5 148.5t-126.5 97.5t-167 35q-99 0 -179 -35t-135.5 -97t-85.5 -148.5t-30 -188.5zM229 1241q0 33 13 63t35 52.5t51.5 35.5t63.5 13q187 0 217 -111q17 49 60 80t96 31q225 0 225 -164t-225 -164q-53 0 -96 30 t-60 79q-30 -109 -217 -109q-34 0 -63.5 13t-51.5 35.5t-35 52.5t-13 63zM269 1241q0 -26 9 -48.5t24 -39t35 -26t41 -9.5t41 9.5t35 26t24 39t9 48.5t-9 48.5t-24 39t-35 26t-41 9.5t-41 -9t-37 -28q-31 -34 -31 -86zM322 440q0 103 18 179.5t50.5 126t79 74t103.5 24.5 q103 0 163.5 -98.5t60.5 -305.5t-60.5 -305t-163.5 -98q-57 0 -103.5 24t-79 74t-50.5 125.5t-18 179.5zM463 440q0 -323 145 -358q148 35 148 358q0 320 -148 359q-145 -39 -145 -359zM642 1241q0 -25 8.5 -47.5t23.5 -39t34.5 -26.5t42.5 -10q22 0 41.5 10t34.5 26.5 t23.5 39t8.5 47.5t-8.5 47t-23.5 39t-34.5 27t-41.5 10q-45 0 -78 -37q-31 -34 -31 -86z" />
<glyph unicode="&#xf7;" horiz-adv-x="1571" d="M143 612v197h1291v-197h-1291zM184 653h1137v115h-1137v-115zM586 379q0 74 51 125t123 51q241 0 241 -176q0 -174 -241 -174q-72 0 -123 51t-51 123zM586 1040q0 74 51 125.5t123 51.5q241 0 241 -177q0 -174 -241 -174q-72 0 -123 51.5t-51 122.5zM631 379 q0 -27 9 -50.5t24.5 -41t36.5 -27.5t44 -10q24 0 45 10.5t37 28t25.5 41t9.5 49.5q0 27 -9.5 51t-25.5 41.5t-37 28t-45 10.5q-23 0 -43.5 -10t-36.5 -27.5t-25 -41.5t-9 -52zM631 1040q0 -27 9 -50.5t24.5 -41t36.5 -27.5t44 -10q24 0 45 10.5t37 28t25.5 41t9.5 49.5 q0 27 -9.5 51t-25.5 41.5t-37 28t-45 10.5q-23 0 -43.5 -10t-36.5 -27.5t-25 -41.5t-9 -52z" />
<glyph unicode="&#xf8;" horiz-adv-x="1212" d="M100 -51l109 149q-107 135 -107 342q0 226 128 368t345 142q160 0 234 -26l90 123h72l141 -105l-111 -151q115 -138 115 -351q0 -221 -144.5 -365.5t-363.5 -144.5q-131 0 -213 29l-82 -115h-71zM143 440q0 -211 119 -340l-104 -143l75 -55l99 137q102 -68 241 -68 q185 0 293.5 131t108.5 338q0 219 -98 348l106 146l-76 55l-102 -141q-100 61 -232 61q-198 0 -314 -131t-116 -338zM322 440q0 207 68.5 305.5t182.5 98.5q101 0 160 -94l-383 -527q-28 86 -28 217zM395 127l379 518q23 -86 23 -205q0 -207 -60.5 -305t-163.5 -98 q-106 0 -178 90zM463 449q129 180 219 303q-27 32 -74 47q-145 -39 -145 -350zM508 217q8 -47 41 -88t59 -47q148 35 148 358q0 33 -8 103z" />
<glyph unicode="&#xf9;" horiz-adv-x="1352" d="M57 803q-22 61 0 121h434q29 -11 41.5 -24t22.5 -38q0 -18 -5 -57t-5 -62q-7 -233 0 -475q4 -114 41 -133q73 19 200 107q8 250 0 501q0 35 -151 60q-23 61 0 121h432q28 -11 40.5 -24t22.5 -38q0 -18 -5 -57t-5 -62q-10 -329 0 -573q72 -23 152 -27q22 -59 0 -127 q-131 -8 -324 -90q-109 8 -162 66v26q-137 -88 -325 -88q-136 0 -193 74t-59 232q2 251 0 507q0 35 -152 60zM90 840q158 -25 160 -97q2 -254 0 -507q-2 -136 47 -200.5t164 -64.5q151 0 366 187v-146q8 -16 35 -26q143 53 371 71q8 25 0 47q-172 7 -254 41q-8 357 0 598 q0 27 5 65t5 48q-10 23 -29 31q-145 -8 -293 0q-8 -23 0 -47q158 -25 160 -97q6 -260 0 -522q-186 -133 -287 -133q-137 0 -137 180q-6 242 0 475q0 27 5.5 65t5.5 48q-11 23 -29 31q-148 -10 -295 0q-8 -23 0 -47zM208 1382q0 58 35 92.5t92 34.5q146 0 195 -61l262 -326 l-68 -94h-71l-394 250q-51 33 -51 104zM249 1382q0 -51 37 -73l354 -226l29 37l-242 301q-36 47 -92 47q-39 0 -62.5 -23.5t-23.5 -62.5z" />
<glyph unicode="&#xfa;" horiz-adv-x="1352" d="M57 803q-22 61 0 121h434q29 -11 41.5 -24t22.5 -38q0 -18 -5 -57t-5 -62q-7 -233 0 -475q4 -114 41 -133q73 19 200 107q8 250 0 501q0 35 -151 60q-23 61 0 121h432q28 -11 40.5 -24t22.5 -38q0 -18 -5 -57t-5 -62q-10 -329 0 -573q72 -23 152 -27q22 -59 0 -127 q-131 -8 -324 -90q-109 8 -162 66v26q-137 -88 -325 -88q-136 0 -193 74t-59 232q2 251 0 507q0 35 -152 60zM90 840q158 -25 160 -97q2 -254 0 -507q-2 -136 47 -200.5t164 -64.5q151 0 366 187v-146q8 -16 35 -26q143 53 371 71q8 25 0 47q-172 7 -254 41q-8 357 0 598 q0 27 5 65t5 48q-10 23 -29 31q-145 -8 -293 0q-8 -23 0 -47q158 -25 160 -97q6 -260 0 -522q-186 -133 -287 -133q-137 0 -137 180q-6 242 0 475q0 27 5.5 65t5.5 48q-11 23 -29 31q-148 -10 -295 0q-8 -23 0 -47zM425 1122l260 324q51 63 125 63h71q58 0 92.5 -34.5 t34.5 -92.5q0 -71 -51 -104l-393 -250h-72zM476 1120l28 -37l355 226q37 22 37 73q0 39 -24 62.5t-62 23.5q-56 0 -93 -47z" />
<glyph unicode="&#xfb;" horiz-adv-x="1352" d="M57 803q-22 61 0 121h434q29 -11 41.5 -24t22.5 -38q0 -18 -5 -57t-5 -62q-7 -233 0 -475q4 -114 41 -133q73 19 200 107q8 250 0 501q0 35 -151 60q-23 61 0 121h432q28 -11 40.5 -24t22.5 -38q0 -18 -5 -57t-5 -62q-10 -329 0 -573q72 -23 152 -27q22 -59 0 -127 q-131 -8 -324 -90q-109 8 -162 66v26q-137 -88 -325 -88q-136 0 -193 74t-59 232q2 251 0 507q0 35 -152 60zM90 840q158 -25 160 -97q2 -254 0 -507q-2 -136 47 -200.5t164 -64.5q151 0 366 187v-146q8 -16 35 -26q143 53 371 71q8 25 0 47q-172 7 -254 41q-8 357 0 598 q0 27 5 65t5 48q-10 23 -29 31q-145 -8 -293 0q-8 -23 0 -47q158 -25 160 -97q6 -260 0 -522q-186 -133 -287 -133q-137 0 -137 180q-6 242 0 475q0 27 5.5 65t5.5 48q-11 23 -29 31q-148 -10 -295 0q-8 -23 0 -47zM250 1026l318 414h231l317 -414h-241l-193 141l-190 -141 h-242zM332 1067h74l241 178l242 -178h74l-256 332h-119z" />
<glyph unicode="&#xfc;" horiz-adv-x="1352" d="M57 803q-22 61 0 121h434q29 -11 41.5 -24t22.5 -38q0 -18 -5 -57t-5 -62q-7 -233 0 -475q4 -114 41 -133q73 19 200 107q8 250 0 501q0 35 -151 60q-23 61 0 121h432q28 -11 40.5 -24t22.5 -38q0 -18 -5 -57t-5 -62q-10 -329 0 -573q72 -23 152 -27q22 -59 0 -127 q-131 -8 -324 -90q-109 8 -162 66v26q-137 -88 -325 -88q-136 0 -193 74t-59 232q2 251 0 507q0 35 -152 60zM90 840q158 -25 160 -97q2 -254 0 -507q-2 -136 47 -200.5t164 -64.5q151 0 366 187v-146q8 -16 35 -26q143 53 371 71q8 25 0 47q-172 7 -254 41q-8 357 0 598 q0 27 5 65t5 48q-10 23 -29 31q-145 -8 -293 0q-8 -23 0 -47q158 -25 160 -97q6 -260 0 -522q-186 -133 -287 -133q-137 0 -137 180q-6 242 0 475q0 27 5.5 65t5.5 48q-11 23 -29 31q-148 -10 -295 0q-8 -23 0 -47zM248 1241q0 33 13 63t35 52.5t51.5 35.5t63.5 13 q187 0 217 -111q17 49 60 80t96 31q225 0 225 -164t-225 -164q-53 0 -96 30t-60 79q-30 -109 -217 -109q-34 0 -63.5 13t-51.5 35.5t-35 52.5t-13 63zM288 1241q0 -26 9 -48.5t24 -39t35 -26t41 -9.5t41 9.5t35 26t24 39t9 48.5t-9 48.5t-24 39t-35 26t-41 9.5t-41 -9 t-37 -28q-31 -34 -31 -86zM661 1241q0 -25 8.5 -47.5t23.5 -39t34.5 -26.5t42.5 -10q22 0 41.5 10t34.5 26.5t23.5 39t8.5 47.5t-8.5 47t-23.5 39t-34.5 27t-41.5 10q-45 0 -78 -37q-31 -34 -31 -86z" />
<glyph unicode="&#xfd;" horiz-adv-x="1032" d="M-70 924q338 -13 617 0q20 -64 -4 -121q-60 -4 -81.5 -18.5t-6.5 -49.5l122 -299l113 299q12 31 -6.5 48.5t-83.5 19.5q-25 57 -4 121q82 -4 430 0q20 -64 -4 -121q-125 -6 -156 -76l-307 -739l-109 -289q-65 -174 -132.5 -238.5t-168.5 -64.5q-84 0 -135 51t-51 127 q0 74 51 125t125 51q88 0 141 -67l121 319l-303 725q-22 59 -164 76q-26 57 -4 121zM-39 840q139 -17 174 -97l311 -743l-110 -285q-33 -92 -79 -144t-95 -52q-82 0 -82 82q0 53 39 61q14 23 0 47q-50 0 -82.5 -33.5t-32.5 -93.5q0 -65 44 -105t112 -40q82 0 136 57t116 219 l108 291l309 739q39 91 166 97q10 20 0 47q-221 -10 -368 0q-11 -27 0 -47q38 -2 64 -8.5t43 -29t3 -59.5l-209 -550l-211 526q-22 57 45.5 87t153.5 34q10 20 0 47q-299 -13 -555 0q-10 -27 0 -47zM288 1122l260 324q51 63 125 63h71q58 0 92.5 -34.5t34.5 -92.5 q0 -71 -51 -104l-393 -250h-72zM339 1120l28 -37l355 226q37 22 37 73q0 39 -24 62.5t-62 23.5q-56 0 -93 -47z" />
<glyph unicode="&#xfe;" horiz-adv-x="1274" d="M12 -455q164 17 166 62q12 928 2 1718q-68 21 -168 27q-22 59 0 127q152 8 340 90q109 -8 162 -66l-2 -606q96 53 270 53q172 0 280.5 -126t108.5 -339q0 -100 -29.5 -194t-88 -177t-162 -133.5t-236.5 -50.5q-98 0 -143 4q4 -231 10 -327q2 -45 135 -62q17 -61 0 -120 q-385 8 -645 0q-16 59 0 120zM49 -492q-10 -24 0 -49q231 9 571 0q11 25 0 49q-239 17 -239 97q-6 112 -11 401q101 -35 213 -35q117 0 206 47.5t139.5 124t76 163.5t25.5 179q0 195 -89 309.5t-231 114.5q-172 0 -340 -149l3 733q-9 16 -35 27q-140 -66 -289 -82 q-6 -25 0 -47q113 -7 172 -41q8 -777 -2 -1745q-2 -74 -170 -97zM370 682q117 96 244 96q119 0 180.5 -96t61.5 -244q0 -217 -77 -309t-167 -92q-172 0 -239 129zM512 178q39 -84 131 -98q70 16 121 101t51 257q0 117 -43 199t-125 96q-66 -10 -135 -69v-486z" />
<glyph unicode="&#xff;" horiz-adv-x="1032" d="M-70 924q338 -13 617 0q20 -64 -4 -121q-60 -4 -81.5 -18.5t-6.5 -49.5l122 -299l113 299q12 31 -6.5 48.5t-83.5 19.5q-25 57 -4 121q82 -4 430 0q20 -64 -4 -121q-125 -6 -156 -76l-307 -739l-109 -289q-65 -174 -132.5 -238.5t-168.5 -64.5q-84 0 -135 51t-51 127 q0 74 51 125t125 51q88 0 141 -67l121 319l-303 725q-22 59 -164 76q-26 57 -4 121zM-39 840q139 -17 174 -97l311 -743l-110 -285q-33 -92 -79 -144t-95 -52q-82 0 -82 82q0 53 39 61q14 23 0 47q-50 0 -82.5 -33.5t-32.5 -93.5q0 -65 44 -105t112 -40q82 0 136 57t116 219 l108 291l309 739q39 91 166 97q10 20 0 47q-221 -10 -368 0q-11 -27 0 -47q38 -2 64 -8.5t43 -29t3 -59.5l-209 -550l-211 526q-22 57 45.5 87t153.5 34q10 20 0 47q-299 -13 -555 0q-10 -27 0 -47zM176 1241q0 33 13 63t35 52.5t51.5 35.5t63.5 13q187 0 217 -111 q17 49 60 80t96 31q225 0 225 -164t-225 -164q-53 0 -96 30t-60 79q-30 -109 -217 -109q-34 0 -63.5 13t-51.5 35.5t-35 52.5t-13 63zM216 1241q0 -26 9 -48.5t24 -39t35 -26t41 -9.5t41 9.5t35 26t24 39t9 48.5t-9 48.5t-24 39t-35 26t-41 9.5t-41 -9t-37 -28 q-31 -34 -31 -86zM589 1241q0 -25 8.5 -47.5t23.5 -39t34.5 -26.5t42.5 -10q22 0 41.5 10t34.5 26.5t23.5 39t8.5 47.5t-8.5 47t-23.5 39t-34.5 27t-41.5 10q-45 0 -78 -37q-31 -34 -31 -86z" />
<glyph unicode="&#x152;" horiz-adv-x="2529" d="M113 729q0 186 55 332.5t141 234.5t201 146.5t223.5 80t218.5 21.5q138 0 314 -41h1013q25 -196 156 -413q-22 -48 -106 -78q-82 149 -242 248.5t-414 99.5h-164q-10 -359 -10 -551q64 -2 182 -2q84 0 134.5 56.5t109.5 176.5l43 84q84 -30 107 -77q-45 -78 -76 -168.5 t-31 -145.5q0 -133 107 -313q-25 -51 -103 -78q-90 162 -115.5 195.5t-72.5 67.5t-105 36h-180q0 -221 8 -539h207q254 0 414 99.5t242 249.5q84 -31 106 -78q-131 -217 -156 -414h-1052q-146 -41 -357 -41q-100 0 -202.5 23.5t-212 83t-193.5 148.5t-137 233.5t-53 322.5z M154 729q0 -148 36 -263t95.5 -200.5t137.5 -144t162.5 -94.5t168.5 -52t157 -16q134 0 275 41h643q246 0 369 84q125 84 225 289q-7 15 -35 26q-182 -338 -672 -338h-360q-5 220 -7.5 378.5t-2.5 260.5l325 2q49 0 85.5 -14t63.5 -36.5t47.5 -51t70 -116.5t51.5 -91 q30 13 39 27q-101 170 -101 313q0 30 8 69t21.5 82t32 85t39.5 78q-9 14 -39 26q-5 -7 -43.5 -80t-48.5 -88.5t-19.5 -29.5t-43.5 -48t-71.5 -47.5t-91.5 -13.5q-108 0 -189 1t-136 3q0 242 12 631h317q490 0 672 -338q28 11 35 27q-101 204 -225 288q-123 84 -369 84h-598 q-141 41 -279 41q-69 0 -151.5 -15t-166.5 -50t-163 -93t-140.5 -144t-98.5 -203t-37 -269zM377 729q0 125 27.5 241.5t86 223t167 172.5t253.5 66q123 0 254 -70q11 -236 11 -594q0 -408 -11 -668q-71 -18 -168 -18q-307 0 -463.5 185.5t-156.5 461.5zM530 729 q0 -274 162 -452.5t432 -151.5q11 260 11 643q0 381 -9 569q-88 45 -176 52q-114 -9 -199 -72.5t-131.5 -162.5t-68 -205.5t-21.5 -219.5z" />
<glyph unicode="&#x153;" horiz-adv-x="1774" d="M102 440q0 109 34 202t98.5 161t159 106.5t214.5 38.5q206 0 334 -104q133 106 301 106q115 0 195 -24.5t130 -67.5t72.5 -100.5t22.5 -124.5q0 -60 -29 -144h-536v-65q4 -121 65.5 -196.5t167.5 -88.5q64 6 110 46.5t91 115.5q67 -6 106 -57q-29 -78 -74.5 -137 t-102.5 -98t-121.5 -59t-131.5 -20q-161 0 -282 90q-109 -88 -316 -88q-126 0 -221 35.5t-159 101.5t-96 160t-32 211zM143 440q0 -103 30 -189t85.5 -148.5t135.5 -97t179 -34.5q205 0 316 146q117 -146 319 -146q62 0 120 17t108.5 50.5t90 83.5t64.5 116q-13 16 -39 22 q-61 -84 -79.5 -100.5t-43.5 -30.5t-57.5 -23.5t-75.5 -9.5q-76 0 -138 23.5t-106 66.5t-69 103.5t-27 134.5q0 29 1.5 55t3.5 51h544q17 51 17 103q0 57 -16 107t-50 87.5t-87 59.5t-126 22q-205 0 -340 -166q-108 166 -330 166q-99 0 -179 -35t-135.5 -97t-85.5 -148.5 t-30 -188.5zM322 440q0 103 18 179.5t50.5 126t79 74t103.5 24.5q103 0 163.5 -98.5t60.5 -305.5q0 -105 -16.5 -181t-46 -125.5t-71 -73t-90.5 -23.5q-57 0 -103.5 24t-79 74t-50.5 125.5t-18 179.5zM463 440q0 -319 145 -358q148 39 148 358q0 320 -148 359 q-145 -39 -145 -359zM971 598q15 63 41.5 109t59.5 76.5t71 45.5t76 15q40 0 68.5 -14t47 -38.5t27 -57.5t8.5 -70q0 -30 -10 -66h-389zM1124 639h203q0 4 2 25q0 110 -74 133q-87 -27 -131 -158z" />
<glyph unicode="&#x2c6;" horiz-adv-x="1208" d="M174 1026l318 414h231l317 -414h-241l-193 141l-190 -141h-242zM256 1067h74l241 178l242 -178h74l-256 332h-119z" />
<glyph unicode="&#x2dc;" horiz-adv-x="1245" d="M195 1087q114 283 276 283q94 0 313 -55q31 16 47 67h220q-90 -295 -279 -295q-100 0 -309 54q-27 -13 -60 -54h-208zM256 1128h55q47 62 113 62q45 0 136 -31t140 -31q160 0 224 213h-62q-22 -73 -102 -73q-31 0 -136.5 30.5t-152.5 30.5q-135 0 -215 -201z" />
<glyph unicode="&#x2000;" horiz-adv-x="1047" />
<glyph unicode="&#x2001;" horiz-adv-x="2095" />
<glyph unicode="&#x2002;" horiz-adv-x="1047" />
<glyph unicode="&#x2003;" horiz-adv-x="2095" />
<glyph unicode="&#x2004;" horiz-adv-x="698" />
<glyph unicode="&#x2005;" horiz-adv-x="523" />
<glyph unicode="&#x2006;" horiz-adv-x="349" />
<glyph unicode="&#x2007;" horiz-adv-x="349" />
<glyph unicode="&#x2008;" horiz-adv-x="261" />
<glyph unicode="&#x2009;" horiz-adv-x="419" />
<glyph unicode="&#x200a;" horiz-adv-x="116" />
<glyph unicode="&#x2010;" horiz-adv-x="1042" d="M143 371v207h762v-207h-762zM184 412h609v125h-609v-125z" />
<glyph unicode="&#x2011;" horiz-adv-x="1042" d="M143 371v207h762v-207h-762zM184 412h609v125h-609v-125z" />
<glyph unicode="&#x2012;" horiz-adv-x="1042" d="M143 371v207h762v-207h-762zM184 412h609v125h-609v-125z" />
<glyph unicode="&#x2013;" horiz-adv-x="1862" d="M143 371v196h1581v-196h-1581zM184 412h1428v114h-1428v-114z" />
<glyph unicode="&#x2014;" horiz-adv-x="2546" d="M143 371v196h2265v-196h-2265zM184 412h2112v114h-2112v-114z" />
<glyph unicode="&#x2018;" horiz-adv-x="725" d="M164 1155q0 102 71.5 219t170.5 180h71l111 -96q-113 -96 -144 -160q123 -18 123 -155q0 -68 -57 -116t-172 -48q-76 0 -125 42t-49 134zM205 1155q0 -72 38 -103.5t95 -31.5q49 0 83 38t34 85q0 119 -129 119l-4 6q19 98 133 190l-52 45q-81 -53 -139.5 -153.5 t-58.5 -194.5z" />
<glyph unicode="&#x2019;" horiz-adv-x="725" d="M143 1065q111 94 144 158q-123 20 -123 157q0 64 45 114t113 50q55 0 92 -5t75.5 -21.5t58 -53.5t19.5 -96q0 -102 -71.5 -219t-169.5 -180h-72zM205 1065l51 -45q82 53 140.5 153.5t58.5 194.5q0 72 -38 103.5t-95 31.5q-50 0 -83.5 -38t-33.5 -85q0 -118 129 -118l4 -7 q-20 -99 -133 -190z" />
<glyph unicode="&#x201a;" horiz-adv-x="725" d="M143 -217q115 98 144 160q-123 18 -123 155q0 64 45 114t113 50q55 0 92 -5t75.5 -21.5t58 -53.5t19.5 -96q0 -102 -71.5 -219t-169.5 -180h-72zM205 98q0 -118 129 -118l4 -7q-22 -98 -133 -190l51 -45q82 53 140.5 153.5t58.5 194.5q0 72 -38 103.5t-95 31.5 q-50 0 -83.5 -38t-33.5 -85z" />
<glyph unicode="&#x201c;" horiz-adv-x="1096" d="M164 1155q0 102 71.5 219t170.5 180h71l111 -96q-113 -96 -144 -160q72 -8 101 -61q24 90 88.5 178t142.5 139h72l110 -96q-112 -96 -143 -160q123 -18 123 -155q0 -68 -57.5 -116t-171.5 -48q-121 0 -160 90q-43 -90 -211 -90q-76 0 -125 42t-49 134zM205 1155 q0 -72 38 -103.5t95 -31.5q49 0 83 38t34 85q0 119 -129 119l-4 6q20 99 133 190l-52 45q-81 -53 -139.5 -153.5t-58.5 -194.5zM575 1155q0 -72 38 -103.5t96 -31.5q49 0 82.5 38t33.5 85q0 119 -129 119l-4 6q21 98 133 190l-51 45q-82 -53 -140.5 -153.5t-58.5 -194.5z " />
<glyph unicode="&#x201d;" horiz-adv-x="1096" d="M143 1065q111 94 144 158q-123 20 -123 157q0 64 45 114t113 50q49 0 68.5 -1t58 -8t62.5 -27.5t40 -53.5q49 90 141 90q56 0 92.5 -5t75.5 -21.5t58.5 -53.5t19.5 -96q0 -102 -71.5 -219t-170.5 -180h-71l-111 96q111 94 143 158q-71 12 -102 61q-23 -88 -87.5 -176 t-141.5 -139h-72zM205 1065l51 -45q82 53 140.5 153.5t58.5 194.5q0 72 -38 103.5t-95 31.5q-50 0 -83.5 -38t-33.5 -85q0 -118 129 -118l4 -7q-20 -97 -133 -190zM575 1065l52 -45q82 53 140 153.5t58 194.5q0 72 -37.5 103.5t-95.5 31.5q-49 0 -83 -38t-34 -85 q0 -118 130 -118l4 -7q-22 -99 -134 -190z" />
<glyph unicode="&#x201e;" horiz-adv-x="1096" d="M143 -217q115 98 144 160q-123 18 -123 155q0 64 45 114t113 50q49 0 68.5 -1t55.5 -8t62.5 -27.5t42.5 -53.5q49 90 141 90q125 0 185.5 -40t60.5 -136q0 -102 -71.5 -219t-170.5 -180h-71l-111 96q115 98 143 160q-67 8 -102 59q-23 -88 -87.5 -176t-141.5 -139h-72z M205 98q0 -118 129 -118l4 -7q-21 -98 -133 -190l51 -45q82 53 140.5 153.5t58.5 194.5q0 72 -38 103.5t-95 31.5q-50 0 -83.5 -38t-33.5 -85zM575 98q0 -118 130 -118l4 -7q-25 -96 -134 -190l52 -45q82 53 140 153.5t58 194.5q0 72 -37.5 103.5t-95.5 31.5q-49 0 -83 -38 t-34 -85z" />
<glyph unicode="&#x2022;" horiz-adv-x="827" d="M143 729q0 100 69 169t169 69q309 0 309 -237.5t-309 -237.5q-100 0 -169 69.5t-69 167.5zM184 729q0 -82 51.5 -139.5t127 -57.5t128 57.5t52.5 139.5q0 84 -52.5 140.5t-128 56.5t-127 -56.5t-51.5 -140.5z" />
<glyph unicode="&#x202f;" horiz-adv-x="419" />
<glyph unicode="&#x2039;" horiz-adv-x="844" d="M127 424l403 434h72l119 -90l-215 -344l215 -344l-119 -92h-72zM184 424l353 -381l57 47l-209 334l209 334l-57 45z" />
<glyph unicode="&#x203a;" horiz-adv-x="844" d="M129 80l215 344l-215 344l119 90h71l404 -434l-404 -436h-71zM184 90l58 -47l352 381l-352 379l-58 -45l209 -334z" />
<glyph unicode="&#x205f;" horiz-adv-x="523" />
<glyph unicode="&#x20ac;" d="M-96 532l51 166l102 -4v35h-153l51 166l113 -4q14 145 62 262t109.5 188.5t139.5 118.5t147.5 65.5t139.5 18.5q137 0 399 -61q-39 -183 -6 -416q-58 -29 -127 -29q-53 185 -96 260.5t-129 87.5q-115 -18 -185.5 -160.5t-95.5 -338.5q254 0 428 8h72l-49 -168l-459 4v-41 l444 8l-49 -168l-385 5q55 -385 299 -410q141 16 231 174q33 0 70 -20.5t37 -53.5q-68 -149 -196 -228t-240 -79q-90 0 -173 28.5t-166 93t-142.5 191.5t-79.5 301h-164zM-41 573h145q17 -170 72 -294.5t133 -191.5t157 -97.5t163 -30.5q104 0 219 70.5t176 203.5 q-6 25 -43 25q-100 -176 -291 -176q-350 0 -407 493q358 0 489 -4l25 84q-131 -6 -518 -6q-3 23 -3 72v51q429 0 560 -4l24 84q-131 -6 -579 -6q14 151 57 278t129 217.5t199 90.5q131 0 185 -75t112 -278q30 0 51 11q-4 112 -35 196t-81 129t-107.5 66.5t-124.5 21.5 q-82 0 -167 -33.5t-170 -104.5t-146.5 -205t-78.5 -312q-47 0 -120 4l-25 -82h139v-49q0 -47 2 -70q-43 0 -116 4z" />
<glyph unicode="&#xe000;" horiz-adv-x="930" d="M0 0v930h930v-930h-930z" />
</font>
</defs>
</svg>
